<?xml version="1.0" encoding="utf-8"?>
<!-- Generator: Adobe Illustrator 16.0.1, SVG Export Plug-In . SVG Version: 6.00 Build 0)  -->
<!DOCTYPE svg PUBLIC "-//W3C//DTD SVG 1.1//EN" "http://www.w3.org/Graphics/SVG/1.1/DTD/svg11.dtd">
<svg version="1.1" id="Page_2" xmlns="http://www.w3.org/2000/svg" xmlns:xlink="http://www.w3.org/1999/xlink" x="0px" y="0px"
	 width="1024px" height="768px" viewBox="0 0 1024 768" enable-background="new 0 0 1024 768" xml:space="preserve">
<rect x="-0.216" y="34.592" fill="#3FCDD2" width="175" height="140.333"/>
<g id="Logo_2_">
	<path fill="#F2F2F2" d="M81.421,66.908L81.421,66.908c-0.307,0.458-0.784,0.8-1.364,0.918c-0.594,0.12-1.175-0.017-1.635-0.331
		l0.004,0.017c-0.521-0.408-1.205-0.604-1.906-0.46c-1.269,0.254-2.087,1.487-1.829,2.752c0.257,1.263,1.492,2.079,2.757,1.825
		c0.704-0.144,1.258-0.588,1.576-1.168l0.003,0.017l0.001,0c0.303-0.467,0.786-0.818,1.375-0.938
		c0.58-0.118,1.158,0.011,1.614,0.314v0c0.522,0.411,1.208,0.604,1.908,0.463c1.265-0.255,2.084-1.487,1.827-2.751
		c-0.258-1.264-1.492-2.081-2.757-1.825C82.294,65.881,81.739,66.329,81.421,66.908z"/>
	<path fill="#F2F2F2" d="M119.436,153.938c0.791,0.792,0.791,2.08,0,2.875c-0.797,0.792-2.089,0.792-2.881,0
		c-0.795-0.794-0.796-2.083,0-2.875C117.347,153.145,118.639,153.145,119.436,153.938z"/>
	<path fill="#F2F2F2" d="M108.323,72.791l-0.001-0.002c0.156,0.521,0.115,1.102-0.162,1.617c-0.283,0.526-0.752,0.88-1.284,1.033
		l0.016,0.008c-0.644,0.137-1.224,0.534-1.561,1.155c-0.604,1.125-0.182,2.526,0.943,3.131c1.13,0.604,2.533,0.184,3.137-0.942
		c0.337-0.622,0.347-1.324,0.107-1.934l0.013,0.007l0.001-0.001c-0.164-0.526-0.128-1.113,0.154-1.637
		c0.277-0.516,0.742-0.873,1.263-1.027l-0.004-0.001c0.645-0.136,1.226-0.534,1.563-1.156c0.604-1.124,0.182-2.526-0.944-3.13
		c-1.125-0.603-2.529-0.182-3.136,0.941C108.095,71.475,108.085,72.18,108.323,72.791z"/>
	<path fill="#F2F2F2" d="M128.006,147.154l0.002-0.001c-1.187-0.315-2.254-1.087-2.918-2.233c-0.673-1.165-0.798-2.494-0.458-3.693
		l-0.037,0.02c0.498-1.393,0.426-2.982-0.371-4.362c-1.446-2.497-4.645-3.354-7.15-1.912c-2.501,1.441-3.357,4.636-1.915,7.135
		c0.8,1.382,2.142,2.236,3.601,2.503l-0.033,0.017l0.002,0.002c1.208,0.31,2.297,1.081,2.97,2.243
		c0.664,1.148,0.8,2.456,0.481,3.642l0.002-0.003c-0.503,1.397-0.431,2.986,0.367,4.369c1.447,2.499,4.646,3.354,7.151,1.912
		c2.501-1.442,3.356-4.635,1.915-7.134C130.812,148.276,129.47,147.417,128.006,147.154z"/>
	<path fill="#F2F2F2" d="M62.457,123.081h-0.002c0.594,0.602,0.959,1.43,0.951,2.341c-0.006,0.926-0.397,1.757-1.019,2.351h0.03
		c-0.783,0.652-1.296,1.621-1.304,2.718c-0.016,1.984,1.585,3.604,3.57,3.621c1.991,0.015,3.615-1.583,3.63-3.566
		c0.009-1.098-0.489-2.071-1.263-2.737h0.028v-0.002c-0.61-0.602-0.988-1.44-0.981-2.363c0.011-0.913,0.386-1.735,0.99-2.326h-0.001
		c0.782-0.654,1.296-1.622,1.304-2.721c0.016-1.984-1.581-3.606-3.571-3.621c-1.985-0.015-3.611,1.581-3.626,3.565
		C61.186,121.44,61.682,122.415,62.457,123.081z"/>
	<path fill="#F2F2F2" d="M132.031,138.862l0.002,0c-0.621-0.594-1.013-1.425-1.03-2.348c-0.019-0.94,0.356-1.795,0.965-2.415h-0.025
		c0.775-0.685,1.267-1.678,1.244-2.791c-0.037-2.016-1.705-3.615-3.723-3.578c-2.02,0.041-3.624,1.705-3.582,3.719
		c0.021,1.113,0.552,2.088,1.354,2.742l-0.027,0v0.002c0.635,0.597,1.041,1.434,1.059,2.37c0.017,0.926-0.34,1.771-0.938,2.389
		l0.001,0c-0.774,0.685-1.271,1.682-1.249,2.797c0.039,2.015,1.71,3.615,3.725,3.577c2.019-0.04,3.624-1.704,3.585-3.719
		C133.367,140.492,132.838,139.516,132.031,138.862z"/>
	<path fill="#F2F2F2" d="M105.443,71.785c0.933,0.927,0.933,2.435,0,3.365c-0.931,0.929-2.44,0.929-3.368,0
		c-0.932-0.93-0.932-2.437,0-3.364C103.002,70.855,104.513,70.855,105.443,71.785z"/>
	<path fill="#F2F2F2" d="M66.078,53.655c0.734,0.729,0.734,1.916-0.001,2.645c-0.73,0.731-1.919,0.731-2.649,0
		c-0.73-0.729-0.73-1.916-0.001-2.645C64.158,52.923,65.347,52.923,66.078,53.655z"/>
	<path fill="#F2F2F2" d="M84.939,63.078L84.939,63.078c0.11,0.538,0.012,1.119-0.314,1.611c-0.331,0.501-0.841,0.816-1.389,0.918
		l0.015,0.011c-0.659,0.079-1.278,0.424-1.674,1.017c-0.717,1.075-0.419,2.524,0.654,3.237c1.078,0.711,2.53,0.418,3.243-0.657
		c0.396-0.593,0.474-1.3,0.287-1.936l0.013,0.009l0.001-0.001c-0.113-0.544-0.023-1.133,0.312-1.633
		c0.326-0.494,0.824-0.808,1.362-0.917l0,0c0.656-0.078,1.281-0.423,1.678-1.019c0.712-1.076,0.419-2.524-0.659-3.238
		c-1.077-0.712-2.526-0.418-3.243,0.657C84.829,61.735,84.755,62.442,84.939,63.078z"/>
	<path fill="#F2F2F2" d="M74.638,64.203c0.823,0.823,0.823,2.157-0.001,2.982c-0.824,0.823-2.163,0.823-2.988,0
		c-0.823-0.825-0.823-2.159-0.001-2.982C72.474,63.379,73.812,63.379,74.638,64.203z"/>
	<path fill="#F2F2F2" d="M128.953,87.775c1.472,1.468,1.472,3.853-0.001,5.324c-1.474,1.468-3.86,1.468-5.333,0
		c-1.473-1.471-1.475-3.855-0.001-5.323C125.092,86.305,127.479,86.305,128.953,87.775z"/>
	<path fill="#F2F2F2" d="M129.724,71.96c0.904,0.907,0.904,2.375-0.001,3.281c-0.908,0.907-2.382,0.907-3.287,0
		c-0.908-0.905-0.908-2.374-0.001-3.281C127.341,71.055,128.814,71.055,129.724,71.96z"/>
	<path fill="#F2F2F2" d="M125.005,129.61L125.005,129.61c0.093-0.908,0.531-1.78,1.296-2.403c0.773-0.634,1.738-0.882,2.658-0.779
		l-0.018-0.022c1.083,0.197,2.244-0.046,3.16-0.796c1.661-1.357,1.909-3.802,0.55-5.463c-1.36-1.659-3.811-1.905-5.474-0.549
		c-0.92,0.751-1.389,1.835-1.408,2.935l-0.017-0.02l-0.001,0.001c-0.084,0.92-0.52,1.81-1.295,2.443
		c-0.763,0.622-1.707,0.877-2.618,0.786l0.001,0.001c-1.087-0.2-2.244,0.043-3.167,0.795c-1.662,1.357-1.909,3.802-0.549,5.463
		c1.359,1.66,3.81,1.905,5.473,0.548C124.519,131.799,124.986,130.712,125.005,129.61z"/>
	<path fill="#F2F2F2" d="M110.197,97.873c1.473,1.47,1.473,3.854-0.001,5.324c-1.473,1.47-3.859,1.47-5.332-0.001
		c-1.474-1.468-1.475-3.853-0.002-5.323C106.336,96.404,108.724,96.404,110.197,97.873z"/>
	<path fill="#F2F2F2" d="M110.191,91.224c0.7,0.699,0.7,1.835,0,2.535c-0.701,0.701-1.837,0.701-2.542,0
		c-0.7-0.699-0.7-1.835,0-2.534C108.354,90.524,109.49,90.524,110.191,91.224z"/>
	<path fill="#F2F2F2" d="M117.125,81.966c0.93,0.931,0.93,2.446-0.001,3.379c-0.936,0.932-2.451,0.932-3.386-0.001
		c-0.936-0.932-0.936-2.447-0.002-3.378C114.673,81.033,116.188,81.033,117.125,81.966z"/>
	<path fill="#F2F2F2" d="M111.253,81.303c0.7,0.699,0.7,1.835,0,2.535c-0.7,0.699-1.841,0.699-2.541,0
		c-0.701-0.699-0.701-1.835-0.001-2.534C109.412,80.604,110.553,80.604,111.253,81.303z"/>
	<path fill="#F2F2F2" d="M58.375,123.411c1.277,1.277,1.277,3.35-0.001,4.629c-1.278,1.276-3.357,1.276-4.637,0
		c-1.278-1.278-1.279-3.351-0.002-4.628C55.016,122.132,57.096,122.132,58.375,123.411z"/>
	<path fill="#F2F2F2" d="M114.744,154.582L114.744,154.582c0.011-0.641,0.268-1.28,0.768-1.763c0.509-0.489,1.166-0.718,1.82-0.7
		l-0.015-0.015c0.773,0.075,1.572-0.164,2.171-0.742c1.087-1.049,1.117-2.78,0.064-3.865c-1.049-1.084-2.783-1.114-3.87-0.066
		c-0.6,0.582-0.866,1.369-0.816,2.143l-0.014-0.013l-0.001,0.001c-0.004,0.65-0.258,1.301-0.766,1.789
		c-0.497,0.48-1.146,0.715-1.789,0.704v0c-0.771-0.076-1.57,0.16-2.176,0.743c-1.083,1.048-1.115,2.78-0.063,3.862
		c1.052,1.086,2.783,1.116,3.87,0.066C114.532,156.146,114.798,155.356,114.744,154.582z"/>
	<path fill="#F2F2F2" d="M117.314,146.674L117.314,146.674c-0.645,0.002-1.286-0.24-1.781-0.729c-0.5-0.498-0.742-1.151-0.737-1.804
		l-0.015,0.016c0.059-0.772-0.196-1.563-0.787-2.151c-1.075-1.063-2.81-1.057-3.876,0.012c-1.062,1.072-1.057,2.801,0.017,3.865
		c0.593,0.587,1.388,0.837,2.158,0.771l-0.012,0.012v0.001c0.653-0.008,1.31,0.232,1.807,0.728c0.494,0.488,0.743,1.129,0.744,1.772
		l0.001,0c-0.063,0.773,0.191,1.566,0.789,2.154c1.073,1.063,2.805,1.059,3.87-0.013c1.066-1.071,1.061-2.801-0.013-3.864
		C118.888,146.856,118.09,146.606,117.314,146.674z"/>
	<path fill="#F2F2F2" d="M113.016,148.116c0.727,0.727,0.727,1.906,0,2.635c-0.73,0.728-1.911,0.727-2.642,0
		c-0.728-0.728-0.729-1.908,0-2.634C111.104,147.39,112.285,147.39,113.016,148.116z"/>
	<circle fill="#F2F2F2" cx="121.513" cy="156.62" r="0.874"/>
	<path fill="#F2F2F2" d="M67.883,155.697L67.883,155.697c0.059-0.602,0.352-1.185,0.861-1.6c0.518-0.421,1.155-0.589,1.772-0.52
		l-0.013-0.015c0.721,0.131,1.493-0.029,2.104-0.531c1.107-0.903,1.271-2.534,0.367-3.639c-0.907-1.105-2.54-1.268-3.647-0.365
		c-0.61,0.5-0.926,1.223-0.938,1.954l-0.012-0.013v0.001c-0.055,0.614-0.344,1.207-0.861,1.627c-0.51,0.415-1.138,0.586-1.745,0.525
		h0.001c-0.724-0.133-1.497,0.028-2.109,0.528c-1.107,0.906-1.274,2.534-0.367,3.641c0.907,1.106,2.54,1.268,3.647,0.365
		C67.556,157.158,67.867,156.432,67.883,155.697z"/>
	<path fill="#F2F2F2" d="M71.518,98.894c0.908,0.907,0.908,2.375-0.001,3.281c-0.909,0.907-2.378,0.907-3.287,0
		c-0.909-0.905-0.909-2.374-0.001-3.281C69.139,97.988,70.607,97.988,71.518,98.894z"/>
	<path fill="#F2F2F2" d="M93.934,103.931c0.908,0.905,0.908,2.375-0.001,3.281c-0.908,0.905-2.378,0.905-3.287,0
		s-0.909-2.376-0.001-3.281C91.555,103.025,93.024,103.025,93.934,103.931z"/>
	<path fill="#F2F2F2" d="M95.104,137.674c0.905,0.905,0.905,2.374,0,3.281c-0.91,0.905-2.382,0.905-3.287,0
		c-0.91-0.907-0.91-2.376-0.001-3.281C92.722,136.766,94.194,136.766,95.104,137.674z"/>
	<circle fill="#F2F2F2" cx="111.301" cy="54.807" r="1.961"/>
	<path fill="#F2F2F2" d="M132.851,95.13c0.904,0.907,0.904,2.376,0,3.282c-0.909,0.907-2.382,0.907-3.287,0
		c-0.909-0.905-0.909-2.374-0.001-3.281C130.468,94.225,131.941,94.225,132.851,95.13z"/>
	<path fill="#F2F2F2" d="M118.892,116.579c0.904,0.905,0.904,2.376-0.001,3.282c-0.909,0.905-2.382,0.905-3.287,0
		c-0.908-0.905-0.908-2.376-0.001-3.281C116.509,115.673,117.981,115.673,118.892,116.579z"/>
	<path fill="#F2F2F2" d="M44.811,121.764c0.904,0.905,0.904,2.376,0,3.282c-0.91,0.905-2.382,0.905-3.287,0
		c-0.909-0.905-0.909-2.376-0.001-3.281C42.428,120.858,43.9,120.858,44.811,121.764z"/>
	<path fill="#F2F2F2" d="M71.79,54.578c0.7,0.699,0.7,1.835-0.001,2.535c-0.7,0.699-1.835,0.699-2.536,0
		c-0.704-0.7-0.704-1.836-0.001-2.535C69.953,53.878,71.089,53.878,71.79,54.578z"/>
	<path fill="#F2F2F2" d="M88.312,49.161c0.588,0.587,0.588,1.54,0,2.13c-0.588,0.588-1.542,0.588-2.135,0
		c-0.588-0.589-0.588-1.542-0.001-2.129C86.769,48.572,87.724,48.572,88.312,49.161z"/>
	<circle fill="#F2F2F2" cx="104.459" cy="64.966" r="1.793"/>
	<circle fill="#F2F2F2" cx="58.38" cy="78.216" r="1.793"/>
	<path fill="#F2F2F2" d="M53.534,138.046c0.7,0.699,0.7,1.835,0,2.535c-0.705,0.699-1.841,0.699-2.542,0
		c-0.7-0.699-0.7-1.835,0-2.534C51.693,137.346,52.829,137.346,53.534,138.046z"/>
	<path fill="#F2F2F2" d="M76.624,103.031c0.704,0.699,0.704,1.835,0,2.535c-0.7,0.699-1.836,0.699-2.537,0
		c-0.701-0.7-0.701-1.836-0.001-2.535C74.788,102.332,75.924,102.332,76.624,103.031z"/>
	<path fill="#F2F2F2" d="M79.509,93.799L79.509,93.799c-0.333,0.431-0.829,0.737-1.411,0.815c-0.591,0.078-1.155-0.096-1.59-0.437
		l0.002,0.019c-0.488-0.44-1.151-0.678-1.853-0.585c-1.267,0.17-2.159,1.333-1.987,2.597c0.168,1.266,1.331,2.155,2.602,1.986
		c0.701-0.093,1.277-0.496,1.63-1.046l0.005,0.016l0.002-0.001c0.329-0.439,0.83-0.754,1.419-0.833
		c0.581-0.078,1.14,0.088,1.571,0.418v-0.001c0.489,0.44,1.154,0.68,1.855,0.587c1.267-0.169,2.159-1.333,1.99-2.596
		c-0.172-1.267-1.335-2.156-2.604-1.988C80.438,92.843,79.861,93.247,79.509,93.799z"/>
	<path fill="#F2F2F2" d="M122.789,116.69L122.789,116.69c0.155,0.519,0.115,1.1-0.163,1.615c-0.282,0.525-0.756,0.88-1.283,1.032
		l0.015,0.01c-0.644,0.137-1.224,0.532-1.561,1.154c-0.604,1.125-0.182,2.526,0.943,3.131c1.126,0.604,2.533,0.184,3.137-0.942
		c0.337-0.622,0.347-1.324,0.107-1.934l0.013,0.007l0.001-0.001c-0.164-0.524-0.128-1.114,0.154-1.638
		c0.278-0.515,0.738-0.87,1.26-1.027l-0.001-0.001c0.645-0.136,1.226-0.534,1.563-1.156c0.604-1.124,0.182-2.526-0.943-3.129
		c-1.126-0.604-2.533-0.184-3.136,0.94C122.558,115.374,122.548,116.08,122.789,116.69z"/>
	<path fill="#F2F2F2" d="M119.787,120.692L119.787,120.692c-0.245,0.484-0.675,0.877-1.232,1.062
		c-0.565,0.188-1.152,0.122-1.645-0.132l0.006,0.016c-0.561-0.341-1.256-0.453-1.928-0.229c-1.215,0.401-1.874,1.709-1.472,2.919
		c0.402,1.212,1.715,1.871,2.929,1.469c0.671-0.222,1.161-0.727,1.408-1.333l0.006,0.016v-0.001c0.243-0.496,0.676-0.896,1.24-1.083
		c0.557-0.185,1.136-0.125,1.624,0.12v-0.001c0.562,0.342,1.257,0.452,1.93,0.231c1.214-0.401,1.874-1.709,1.472-2.921
		c-0.401-1.212-1.714-1.869-2.929-1.467C120.528,119.58,120.033,120.083,119.787,120.692z"/>
	<path fill="#F2F2F2" d="M115.269,127.077c0.909,0.905,0.909,2.374,0,3.281c-0.909,0.905-2.378,0.905-3.287,0
		c-0.909-0.907-0.909-2.376-0.001-3.281C112.89,126.169,114.359,126.169,115.269,127.077z"/>
	<path fill="#F2F2F2" d="M113.382,115.558c1.473,1.47,1.473,3.855-0.001,5.324c-1.469,1.469-3.858,1.469-5.332-0.001
		c-1.469-1.469-1.47-3.854-0.002-5.323C109.521,114.088,111.912,114.088,113.382,115.558z"/>
	<path fill="#F2F2F2" d="M112.3,111.136c1.091,1.088,1.091,2.856,0,3.946c-1.092,1.088-2.862,1.088-3.953-0.001
		c-1.087-1.089-1.089-2.857-0.001-3.945C109.438,110.048,111.208,110.048,112.3,111.136z"/>
	<path fill="#F2F2F2" d="M114.392,108.257c0.7,0.701,0.7,1.835-0.001,2.535c-0.7,0.701-1.84,0.701-2.541,0
		c-0.7-0.699-0.7-1.833-0.001-2.535C112.55,107.558,113.69,107.558,114.392,108.257z"/>
	<path fill="#F2F2F2" d="M117.219,131.561c0.703,0.7,0.703,1.835-0.001,2.535c-0.7,0.701-1.835,0.701-2.537,0
		c-0.701-0.7-0.701-1.835-0.001-2.535C115.381,130.861,116.518,130.861,117.219,131.561z"/>
	<circle fill="#F2F2F2" cx="56.585" cy="57.638" r="0.79"/>
	<path fill="#F2F2F2" d="M133.124,116.953c0.7,0.699,0.7,1.833,0,2.535c-0.7,0.699-1.841,0.699-2.541,0
		c-0.701-0.701-0.701-1.835-0.001-2.534C131.283,116.251,132.424,116.251,133.124,116.953z"/>
	<path fill="#F2F2F2" d="M49.415,61.544c0.312,0.309,0.312,0.808,0,1.116c-0.308,0.308-0.805,0.308-1.116,0
		c-0.309-0.308-0.309-0.807-0.001-1.116C48.61,61.237,49.107,61.237,49.415,61.544z"/>
	<path fill="#F2F2F2" d="M133.146,145.272c0.768,0.769,0.768,2.016,0,2.788c-0.773,0.769-2.022,0.769-2.795,0
		c-0.769-0.771-0.769-2.019-0.001-2.787C131.124,144.502,132.373,144.502,133.146,145.272z"/>
	<path fill="#F2F2F2" d="M108.838,136.659L108.838,136.659c-0.326,0.432-0.822,0.741-1.403,0.821
		c-0.594,0.083-1.158-0.088-1.595-0.426l0.003,0.017c-0.487-0.438-1.152-0.671-1.853-0.575c-1.27,0.176-2.153,1.343-1.979,2.609
		c0.175,1.263,1.346,2.146,2.611,1.97c0.701-0.096,1.279-0.502,1.629-1.054l0.002,0.015l0.001-0.001
		c0.331-0.441,0.826-0.759,1.419-0.84c0.58-0.08,1.141,0.082,1.573,0.411v-0.001c0.492,0.437,1.157,0.673,1.858,0.575
		c1.266-0.174,2.147-1.342,1.974-2.606c-0.175-1.264-1.346-2.147-2.611-1.973C109.767,135.698,109.192,136.104,108.838,136.659z"/>
	<path fill="#F2F2F2" d="M96.812,66.02c1.214,1.211,1.214,3.178-0.001,4.391c-1.214,1.209-3.181,1.209-4.396,0
		c-1.214-1.213-1.215-3.179-0.001-4.39C93.629,64.809,95.597,64.809,96.812,66.02z"/>
	<path fill="#F2F2F2" d="M100.879,68.541c0.904,0.907,0.904,2.375,0,3.281c-0.909,0.907-2.383,0.907-3.288,0
		c-0.908-0.905-0.908-2.374,0-3.281C98.496,67.635,99.97,67.635,100.879,68.541z"/>
	<circle fill="#F2F2F2" cx="97.766" cy="62.478" r="1.793"/>
	<circle fill="#F2F2F2" cx="78.206" cy="55.845" r="1.739"/>
	<path fill="#F2F2F2" d="M122.789,90.24c0.908,0.905,0.908,2.375,0,3.281c-0.909,0.905-2.379,0.905-3.288,0
		c-0.908-0.905-0.908-2.376,0-3.281C120.41,89.334,121.88,89.334,122.789,90.24z"/>
	<circle fill="#F2F2F2" cx="74.643" cy="53.106" r="1.26"/>
	<circle fill="#F2F2F2" cx="113.12" cy="62.787" r="1.26"/>
	<circle fill="#F2F2F2" cx="56.584" cy="68.683" r="1.26"/>
	<circle fill="#F2F2F2" cx="63.493" cy="57.638" r="1.26"/>
	<path fill="#F2F2F2" d="M108.017,67.793c0.493,0.493,0.493,1.289,0,1.78c-0.494,0.493-1.288,0.493-1.782,0
		c-0.494-0.491-0.494-1.287-0.001-1.78C106.729,67.303,107.522,67.303,108.017,67.793z"/>
	<path fill="#F2F2F2" d="M119.101,63.815L119.101,63.815c-0.346,0.062-0.717-0.01-1.028-0.227c-0.319-0.221-0.512-0.551-0.572-0.903
		l-0.006,0.009c-0.04-0.422-0.249-0.827-0.625-1.089c-0.68-0.473-1.616-0.309-2.09,0.369c-0.477,0.679-0.312,1.613,0.367,2.087
		c0.377,0.262,0.829,0.323,1.239,0.214l-0.005,0.008l0.001,0c0.353-0.066,0.73,0.002,1.045,0.223
		c0.312,0.22,0.508,0.541,0.567,0.888l0.001,0c0.038,0.425,0.252,0.827,0.629,1.09c0.679,0.475,1.611,0.31,2.089-0.369
		c0.474-0.678,0.309-1.613-0.371-2.087C119.965,63.768,119.513,63.708,119.101,63.815z"/>
	<path fill="#F2F2F2" d="M57.122,71.766c0.729,0.729,0.729,1.916-0.001,2.645c-0.735,0.731-1.919,0.731-2.654,0
		c-0.73-0.729-0.73-1.916-0.001-2.645C55.202,71.034,56.386,71.034,57.122,71.766z"/>
	<path fill="#F2F2F2" d="M60.023,71.448c0.91,0.905,0.91,2.375,0,3.281c-0.909,0.905-2.377,0.905-3.287,0
		c-0.909-0.905-0.909-2.376-0.001-3.281C57.646,70.542,59.114,70.542,60.023,71.448z"/>
	<path fill="#F2F2F2" d="M62.551,75.535c0.491,0.491,0.491,1.289,0,1.78c-0.492,0.491-1.291,0.491-1.785,0
		c-0.49-0.492-0.49-1.29-0.001-1.78C61.26,75.042,62.059,75.042,62.551,75.535z"/>
	<path fill="#F2F2F2" d="M114.917,77.453L114.917,77.453c-0.349,0.062-0.72-0.009-1.031-0.229c-0.316-0.221-0.512-0.551-0.568-0.904
		l-0.006,0.009c-0.044-0.422-0.253-0.826-0.63-1.089c-0.68-0.474-1.615-0.307-2.089,0.371c-0.477,0.678-0.308,1.611,0.371,2.085
		c0.373,0.263,0.828,0.323,1.239,0.214l-0.005,0.01v0c0.35-0.066,0.727,0.002,1.042,0.222c0.315,0.217,0.508,0.542,0.566,0.888
		h0.001c0.043,0.423,0.253,0.828,0.63,1.09c0.679,0.474,1.615,0.308,2.088-0.371c0.478-0.678,0.312-1.611-0.367-2.085
		C115.781,77.404,115.329,77.344,114.917,77.453z"/>
	<path fill="#F2F2F2" d="M66.586,71.368L66.586,71.368c-0.194,0.292-0.506,0.508-0.876,0.582c-0.381,0.075-0.754-0.014-1.049-0.216
		l0.002,0.011c-0.331-0.264-0.772-0.39-1.222-0.302c-0.813,0.16-1.343,0.949-1.183,1.761c0.164,0.81,0.951,1.339,1.764,1.179
		c0.453-0.09,0.808-0.374,1.017-0.743l0.002,0.01l0.001,0c0.193-0.298,0.503-0.523,0.883-0.597c0.375-0.074,0.744,0.01,1.036,0.207
		v-0.001c0.332,0.265,0.771,0.393,1.223,0.305c0.813-0.161,1.343-0.949,1.179-1.761c-0.159-0.812-0.949-1.34-1.763-1.178
		C67.149,70.711,66.795,70.995,66.586,71.368z"/>
	<path fill="#F2F2F2" d="M66.684,74.264c0.308,0.309,0.308,0.808-0.001,1.115c-0.311,0.309-0.809,0.309-1.116,0
		c-0.312-0.307-0.312-0.806-0.001-1.115C65.873,73.957,66.372,73.957,66.684,74.264z"/>
	<path fill="#F2F2F2" d="M73.137,70.408c0.7,0.699,0.7,1.833,0,2.535c-0.701,0.699-1.84,0.699-2.542,0c-0.7-0.702-0.7-1.835,0-2.535
		C71.297,69.707,72.436,69.707,73.137,70.408z"/>
	<path fill="#F2F2F2" d="M70.632,69.325c0.307,0.307,0.307,0.808,0,1.115c-0.312,0.309-0.81,0.309-1.121,0
		c-0.309-0.308-0.309-0.808,0-1.115C69.822,69.016,70.32,69.016,70.632,69.325z"/>
	<circle fill="#F2F2F2" cx="52.18" cy="60.995" r="1.739"/>
	<path fill="#F2F2F2" d="M57.947,62.817c0.489,0.491,0.489,1.287,0,1.78c-0.493,0.491-1.292,0.491-1.782,0
		c-0.494-0.493-0.494-1.289-0.001-1.78C56.655,62.324,57.454,62.324,57.947,62.817z"/>
	<circle fill="#F2F2F2" cx="60.174" cy="62.254" r="0.79"/>
	<circle fill="#F2F2F2" cx="64.181" cy="62.731" r="1.26"/>
	<path fill="#F2F2F2" d="M63.125,64.075c0.489,0.491,0.489,1.289,0,1.78c-0.494,0.491-1.293,0.491-1.783,0
		c-0.494-0.491-0.494-1.289,0-1.78C61.832,63.583,62.631,63.583,63.125,64.075z"/>
	<circle fill="#F2F2F2" cx="67.999" cy="64.579" r="1.873"/>
	<path fill="#F2F2F2" d="M67.015,65.865c0.493,0.491,0.493,1.289,0,1.78c-0.49,0.491-1.29,0.491-1.784,0
		c-0.489-0.492-0.489-1.29,0-1.78C65.725,65.375,66.524,65.375,67.015,65.865z"/>
	<path fill="#F2F2F2" d="M66.684,68.126c0.308,0.309,0.308,0.808,0,1.117c-0.312,0.306-0.81,0.306-1.117,0
		c-0.312-0.31-0.312-0.809,0-1.117C65.874,67.818,66.372,67.818,66.684,68.126z"/>
	<path fill="#F2F2F2" d="M51.257,65.136c0.308,0.307,0.308,0.806-0.001,1.115c-0.307,0.307-0.809,0.307-1.116,0
		c-0.312-0.31-0.312-0.808-0.001-1.115C50.446,64.827,50.949,64.827,51.257,65.136z"/>
	<path fill="#F2F2F2" d="M53.379,67.325c0.494,0.491,0.494,1.287,0,1.78c-0.489,0.491-1.288,0.491-1.782,0
		c-0.49-0.493-0.49-1.289-0.001-1.78C52.091,66.832,52.89,66.832,53.379,67.325z"/>
	<path fill="#F2F2F2" d="M54.63,64.408c0.308,0.307,0.308,0.808,0,1.115c-0.311,0.309-0.809,0.309-1.12,0
		c-0.309-0.308-0.309-0.809-0.001-1.115C53.821,64.099,54.319,64.099,54.63,64.408z"/>
	<circle fill="#F2F2F2" cx="53.06" cy="65.936" r="0.57"/>
	<path fill="#F2F2F2" d="M54.188,70.27c0.312,0.307,0.312,0.806,0,1.115c-0.308,0.307-0.81,0.307-1.117,0
		c-0.308-0.309-0.308-0.808,0-1.115C53.378,69.961,53.88,69.961,54.188,70.27z"/>
	<path fill="#F2F2F2" d="M76.305,61.979L76.305,61.979c-0.336,0.104-0.713,0.078-1.051-0.1c-0.34-0.183-0.573-0.485-0.672-0.829
		l-0.008,0.009c-0.089-0.414-0.349-0.791-0.753-1.005c-0.73-0.387-1.642-0.109-2.031,0.62c-0.39,0.731-0.111,1.638,0.623,2.027
		c0.404,0.215,0.86,0.219,1.256,0.063l-0.005,0.009h0.001c0.338-0.108,0.722-0.084,1.064,0.095c0.334,0.179,0.567,0.476,0.667,0.812
		h0.002c0.091,0.416,0.351,0.792,0.756,1.007c0.73,0.389,1.642,0.112,2.03-0.62c0.39-0.73,0.112-1.637-0.622-2.026
		C77.157,61.827,76.702,61.823,76.305,61.979z"/>
	<path fill="#F2F2F2" d="M79.868,62.112L79.868,62.112c-0.22,0.273-0.549,0.462-0.93,0.502c-0.381,0.039-0.745-0.084-1.021-0.312
		l0.002,0.011c-0.307-0.292-0.731-0.458-1.19-0.413c-0.823,0.085-1.421,0.822-1.339,1.645c0.087,0.823,0.824,1.421,1.648,1.337
		c0.458-0.048,0.84-0.299,1.078-0.648l0.001,0.01h0.001c0.223-0.279,0.552-0.473,0.937-0.513c0.379-0.04,0.739,0.078,1.013,0.3v0
		c0.308,0.295,0.731,0.462,1.188,0.414c0.824-0.084,1.426-0.822,1.338-1.644c-0.086-0.823-0.822-1.42-1.646-1.335
		C80.491,61.512,80.109,61.761,79.868,62.112z"/>
	<path fill="#F2F2F2" d="M80.192,64.607c0.488,0.491,0.488,1.289,0,1.78c-0.494,0.491-1.293,0.491-1.786,0
		c-0.49-0.491-0.49-1.289-0.002-1.78C78.899,64.117,79.698,64.117,80.192,64.607z"/>
	<path fill="#F2F2F2" d="M88.78,68.386c0.494,0.491,0.494,1.289,0,1.78c-0.49,0.491-1.288,0.491-1.782,0
		c-0.49-0.491-0.49-1.289-0.001-1.78C87.492,67.895,88.29,67.895,88.78,68.386z"/>
	<circle fill="#F2F2F2" cx="89.151" cy="68.175" r="0.789"/>
	<circle fill="#F2F2F2" cx="58.853" cy="55.846" r="0.473"/>
	<path fill="#F2F2F2" d="M61.36,66.618c0.655,0.653,0.655,1.712,0,2.367c-0.655,0.652-1.717,0.652-2.372,0
		c-0.65-0.655-0.65-1.713-0.001-2.367C59.644,65.966,60.705,65.966,61.36,66.618z"/>
	<circle fill="#F2F2F2" cx="90.628" cy="56.378" r="1.26"/>
	<path fill="#F2F2F2" d="M94.01,61.409L94.01,61.409c-0.283-0.208-0.49-0.526-0.546-0.901c-0.061-0.382,0.045-0.75,0.264-1.034
		l-0.015,0.002c0.279-0.322,0.429-0.752,0.358-1.205c-0.126-0.818-0.89-1.38-1.709-1.255c-0.819,0.125-1.386,0.89-1.261,1.707
		c0.071,0.452,0.34,0.82,0.699,1.043l-0.01,0.002l0.001,0c0.293,0.208,0.501,0.528,0.558,0.908c0.06,0.377-0.041,0.739-0.249,1.022
		v0c-0.278,0.322-0.426,0.753-0.358,1.206c0.125,0.818,0.893,1.38,1.712,1.254c0.819-0.125,1.382-0.889,1.257-1.707
		C94.64,62.001,94.37,61.631,94.01,61.409z"/>
	<circle fill="#F2F2F2" cx="97.722" cy="50.589" r="1.26"/>
	<circle fill="#F2F2F2" cx="79.299" cy="50.225" r="0.79"/>
	<path fill="#F2F2F2" d="M98.887,54.929c0.493,0.491,0.493,1.289,0,1.78c-0.489,0.49-1.288,0.49-1.782,0
		c-0.49-0.492-0.49-1.29-0.001-1.78C97.599,54.438,98.397,54.438,98.887,54.929z"/>
	<circle fill="#F2F2F2" cx="101.117" cy="54.807" r="0.79"/>
	<path fill="#F2F2F2" d="M106.012,53.955c0.492,0.491,0.492,1.289,0,1.78c-0.49,0.491-1.289,0.491-1.783,0
		c-0.49-0.491-0.49-1.289-0.001-1.78C104.723,53.464,105.521,53.464,106.012,53.955z"/>
	<path fill="#F2F2F2" d="M102.805,55.488c0.493,0.493,0.493,1.289,0,1.78c-0.494,0.493-1.289,0.493-1.782,0
		c-0.495-0.492-0.495-1.288-0.001-1.78C101.516,54.997,102.311,54.997,102.805,55.488z"/>
	<circle fill="#F2F2F2" cx="101.914" cy="59.256" r="1.674"/>
	<path fill="#F2F2F2" d="M78.148,58.991c0.489,0.491,0.489,1.287,0,1.78c-0.494,0.491-1.294,0.491-1.782,0
		c-0.495-0.494-0.495-1.29-0.001-1.78C76.854,58.498,77.654,58.498,78.148,58.991z"/>
	<path fill="#F2F2F2" d="M83.161,53.028c0.312,0.309,0.312,0.808,0,1.117c-0.308,0.307-0.81,0.307-1.117,0
		c-0.308-0.31-0.308-0.808,0-1.117C82.352,52.722,82.854,52.722,83.161,53.028z"/>
	<circle fill="#F2F2F2" cx="85.351" cy="54.107" r="0.789"/>
	<path fill="#F2F2F2" d="M83.161,57.387c0.312,0.309,0.312,0.808,0,1.116c-0.308,0.308-0.81,0.308-1.117,0
		c-0.308-0.309-0.308-0.807,0-1.116C82.352,57.08,82.854,57.08,83.161,57.387z"/>
	<path fill="#F2F2F2" d="M87.19,57.387c0.307,0.309,0.307,0.808-0.001,1.116c-0.312,0.308-0.809,0.308-1.116,0
		c-0.312-0.309-0.312-0.807,0-1.116C86.38,57.08,86.878,57.08,87.19,57.387z"/>
	<circle fill="#F2F2F2" cx="92.29" cy="51.013" r="0.789"/>
	<circle fill="#F2F2F2" cx="69.875" cy="51.847" r="0.473"/>
	<circle fill="#F2F2F2" cx="71.614" cy="51.375" r="0.472"/>
	<path fill="#F2F2F2" d="M105.453,51.042c0.188,0.185,0.188,0.482,0,0.667c-0.183,0.184-0.481,0.184-0.668,0
		c-0.184-0.185-0.184-0.483,0-0.667C104.972,50.858,105.271,50.858,105.453,51.042z"/>
	<path fill="#F2F2F2" d="M60.511,58.924c0.183,0.183,0.183,0.482,0,0.666c-0.188,0.184-0.486,0.184-0.669,0
		c-0.188-0.183-0.188-0.483,0-0.666C60.024,58.739,60.323,58.739,60.511,58.924z"/>
	<path fill="#F2F2F2" d="M114.375,89.345L114.375,89.345c-0.057,0.348-0.242,0.675-0.547,0.9c-0.315,0.228-0.688,0.304-1.042,0.246
		l0.006,0.01c-0.414-0.099-0.863-0.028-1.235,0.242c-0.668,0.489-0.812,1.428-0.32,2.095c0.487,0.667,1.428,0.811,2.097,0.321
		c0.371-0.27,0.571-0.678,0.601-1.103l0.006,0.008l0.001-0.001c0.054-0.353,0.238-0.687,0.548-0.914
		c0.311-0.224,0.676-0.303,1.026-0.25v0c0.415,0.1,0.865,0.029,1.236-0.241c0.669-0.489,0.813-1.427,0.32-2.095
		c-0.487-0.667-1.427-0.812-2.096-0.321C114.604,88.511,114.404,88.919,114.375,89.345z"/>
	<path fill="#F2F2F2" d="M108.945,87.737c0.308,0.309,0.308,0.808,0,1.115c-0.307,0.308-0.809,0.308-1.116,0
		c-0.312-0.308-0.312-0.807-0.001-1.115C108.137,87.43,108.639,87.43,108.945,87.737z"/>
	
		<ellipse transform="matrix(0.0038 -1 1 0.0038 -41.7077 180.7684)" fill="#F2F2F2" cx="69.873" cy="111.317" rx="4.387" ry="4.218"/>
	<ellipse transform="matrix(0.0038 -1 1 0.0038 -43.1612 169.4427)" fill="#F2F2F2" cx="63.463" cy="106.384" rx="3.86" ry="3.71"/>
	
		<ellipse transform="matrix(0.0039 -1 1 0.0039 -37.6493 162.4927)" fill="#F2F2F2" cx="62.742" cy="100.145" rx="2.48" ry="2.382"/>
	<path fill="#F2F2F2" d="M73.915,157.153L73.915,157.153c0.058-0.581,0.338-1.139,0.828-1.538c0.493-0.405,1.11-0.564,1.698-0.498
		l-0.011-0.014c0.692,0.125,1.435-0.031,2.021-0.51c1.064-0.868,1.222-2.431,0.35-3.492c-0.868-1.061-2.433-1.219-3.498-0.351
		c-0.59,0.48-0.89,1.173-0.902,1.876l-0.011-0.013l-0.001,0c-0.051,0.59-0.33,1.158-0.827,1.563
		c-0.489,0.398-1.092,0.562-1.672,0.502l0.001,0c-0.695-0.126-1.438,0.029-2.027,0.509c-1.063,0.869-1.221,2.43-0.353,3.492
		c0.872,1.063,2.437,1.219,3.501,0.351C73.601,158.551,73.903,157.857,73.915,157.153z"/>
	<path fill="#F2F2F2" d="M76.784,143.192c1.178,1.179,1.178,3.091,0,4.27c-1.183,1.177-3.097,1.177-4.279,0
		c-1.177-1.178-1.177-3.09-0.001-4.269C73.688,142.013,75.602,142.013,76.784,143.192z"/>
	<path fill="#F2F2F2" d="M80.615,139.572c0.904,0.907,0.904,2.375-0.001,3.281c-0.908,0.907-2.382,0.907-3.287,0
		c-0.908-0.905-0.908-2.374-0.001-3.281C78.232,138.666,79.706,138.666,80.615,139.572z"/>
	<path fill="#F2F2F2" d="M83.216,152.548c0.456-2.718,3.133-4.541,5.973-4.065c2.84,0.475,4.773,3.067,4.317,5.786
		c-0.455,2.721-3.132,4.543-5.973,4.069C84.69,157.862,82.756,155.27,83.216,152.548z"/>
	
		<ellipse transform="matrix(-0.9863 -0.1649 0.1649 -0.9863 136.6777 324.5881)" fill="#F2F2F2" cx="81.813" cy="156.62" rx="3.412" ry="3.268"/>
	
		<ellipse transform="matrix(-0.9862 -0.1653 0.1653 -0.9862 126.7914 326.7042)" fill="#F2F2F2" cx="76.993" cy="158.075" rx="1.958" ry="1.875"/>
	<path fill="#F2F2F2" d="M71.606,148.427L71.606,148.427c-0.567-0.215-1.057-0.647-1.326-1.246
		c-0.274-0.608-0.269-1.269-0.042-1.843l-0.017,0.008c0.312-0.663,0.355-1.448,0.031-2.168c-0.585-1.303-2.123-1.882-3.425-1.297
		c-1.308,0.587-1.888,2.118-1.303,3.42c0.328,0.721,0.944,1.209,1.649,1.413l-0.016,0.007l0.001,0
		c0.577,0.213,1.078,0.647,1.351,1.253c0.27,0.598,0.271,1.25,0.058,1.818l0.001,0c-0.319,0.664-0.362,1.449-0.039,2.172
		c0.592,1.302,2.125,1.882,3.427,1.296c1.308-0.587,1.888-2.118,1.302-3.42C72.932,149.118,72.313,148.629,71.606,148.427z"/>
	<path fill="#F2F2F2" d="M48.156,130.766c1.472,1.468,1.472,3.853-0.001,5.322c-1.473,1.47-3.859,1.47-5.333,0
		c-1.473-1.47-1.474-3.854-0.001-5.322C44.296,129.295,46.683,129.295,48.156,130.766z"/>
	<path fill="#F2F2F2" d="M59.724,138.973c1.473,1.468,1.473,3.853-0.001,5.324c-1.473,1.468-3.859,1.468-5.332,0
		c-1.474-1.471-1.475-3.855-0.002-5.323C55.862,137.502,58.25,137.502,59.724,138.973z"/>
	<path fill="#F2F2F2" d="M50.501,127.076c0.908,0.905,0.908,2.374-0.001,3.281c-0.905,0.905-2.378,0.905-3.287,0
		c-0.905-0.907-0.905-2.376-0.001-3.281C48.122,126.168,49.595,126.168,50.501,127.076z"/>
	<path fill="#F2F2F2" d="M71.392,134.849c1.472,1.47,1.472,3.855-0.001,5.324c-1.474,1.47-3.859,1.47-5.333-0.001
		c-1.473-1.469-1.473-3.853-0.001-5.323C67.531,133.38,69.917,133.38,71.392,134.849z"/>
	<path fill="#F2F2F2" d="M64.274,148.113L64.274,148.113c-0.346,0.061-0.717-0.009-1.028-0.227
		c-0.319-0.221-0.512-0.551-0.572-0.903l-0.006,0.009c-0.04-0.422-0.249-0.826-0.625-1.089c-0.68-0.474-1.616-0.307-2.09,0.369
		c-0.477,0.679-0.312,1.613,0.367,2.087c0.377,0.262,0.829,0.323,1.239,0.214l-0.005,0.008l0.001,0
		c0.353-0.066,0.73,0.002,1.045,0.224c0.312,0.218,0.508,0.54,0.567,0.888l0.001-0.001c0.038,0.424,0.252,0.828,0.629,1.089
		c0.679,0.475,1.611,0.31,2.089-0.369c0.474-0.678,0.309-1.612-0.371-2.085C65.139,148.066,64.687,148.006,64.274,148.113z"/>
	<path fill="#F2F2F2" d="M59.394,150.864c1.316,0.005,2.38,1.119,2.376,2.488c-0.006,1.369-1.077,2.474-2.395,2.47
		c-1.313-0.005-2.378-1.119-2.374-2.487C57.007,151.964,58.079,150.858,59.394,150.864z"/>
	<path fill="#F2F2F2" d="M98.636,95.003c1.472,1.47,1.472,3.855-0.001,5.324c-1.47,1.469-3.859,1.469-5.333-0.001
		c-1.469-1.469-1.47-3.854-0.001-5.323C94.775,93.534,97.165,93.534,98.636,95.003z"/>
	<path fill="#F2F2F2" d="M101.283,99.408c1.118,1.115,1.118,2.927,0,4.042c-1.117,1.115-2.935,1.115-4.051,0
		c-1.118-1.115-1.119-2.927-0.001-4.042C98.349,98.292,100.166,98.292,101.283,99.408z"/>
	<path fill="#F2F2F2" d="M92.271,92.261c0.909,0.907,0.909,2.375,0,3.281c-0.909,0.907-2.381,0.907-3.288,0
		c-0.908-0.905-0.908-2.374,0-3.281C89.891,91.355,91.362,91.355,92.271,92.261z"/>
	<path fill="#F2F2F2" d="M101.92,91.462c0.704,0.699,0.704,1.834,0,2.535c-0.7,0.698-1.837,0.698-2.537,0
		c-0.701-0.701-0.701-1.835-0.001-2.535C100.083,90.76,101.22,90.76,101.92,91.462z"/>
	<path fill="#F2F2F2" d="M88.513,106.624c0.704,0.701,0.704,1.835,0,2.537c-0.7,0.699-1.837,0.699-2.537,0
		c-0.701-0.701-0.701-1.835-0.001-2.536C86.676,105.924,87.812,105.924,88.513,106.624z"/>
	<path fill="#F2F2F2" d="M90.044,99.256c0.489,0.491,0.489,1.289,0,1.78c-0.493,0.491-1.293,0.491-1.783,0
		c-0.494-0.491-0.494-1.289,0-1.78C88.751,98.763,89.551,98.763,90.044,99.256z"/>
	<path fill="#F2F2F2" d="M108.025,124.434c0.908,0.905,0.908,2.376-0.001,3.282c-0.907,0.905-2.378,0.905-3.287,0
		c-0.908-0.905-0.908-2.376-0.001-3.281C105.646,123.528,107.117,123.528,108.025,124.434z"/>
	<path fill="#F2F2F2" d="M99.642,134.888c0.904,0.905,0.904,2.376,0,3.282c-0.909,0.905-2.383,0.905-3.288,0
		c-0.908-0.905-0.908-2.376,0-3.281C97.259,133.982,98.732,133.982,99.642,134.888z"/>
	<path fill="#F2F2F2" d="M108.301,132.598L108.301,132.598c-0.345,0.062-0.717-0.009-1.028-0.227
		c-0.319-0.221-0.512-0.551-0.572-0.903l-0.006,0.009c-0.039-0.422-0.249-0.826-0.625-1.088c-0.68-0.474-1.616-0.308-2.089,0.368
		c-0.478,0.679-0.312,1.614,0.367,2.088c0.376,0.262,0.828,0.322,1.239,0.214l-0.006,0.008l0.001,0
		c0.353-0.066,0.73,0.002,1.046,0.225c0.311,0.217,0.507,0.539,0.565,0.888l0.001,0c0.039,0.423,0.253,0.827,0.63,1.088
		c0.68,0.475,1.612,0.31,2.089-0.369c0.474-0.678,0.309-1.61-0.371-2.085C109.165,132.551,108.713,132.491,108.301,132.598z"/>
	<path fill="#F2F2F2" d="M127.581,82.65c-1.12,1.75-3.453,2.263-5.209,1.143c-1.754-1.118-2.269-3.446-1.145-5.198
		c1.121-1.75,3.453-2.264,5.208-1.145S128.701,80.898,127.581,82.65z"/>
	<path fill="#F2F2F2" d="M123.846,77.172c-0.691,1.078-2.131,1.394-3.213,0.705c-1.081-0.69-1.396-2.125-0.706-3.205
		c0.691-1.08,2.131-1.395,3.212-0.706C124.221,74.657,124.537,76.092,123.846,77.172z"/>
	<path fill="#F2F2F2" d="M91.115,141.112L91.115,141.112c-0.445,0.309-1.01,0.45-1.588,0.345c-0.586-0.104-1.072-0.441-1.381-0.899
		l-0.004,0.017c-0.331-0.566-0.89-0.994-1.585-1.119c-1.259-0.228-2.463,0.609-2.69,1.865c-0.224,1.256,0.612,2.458,1.87,2.683
		c0.696,0.125,1.369-0.083,1.877-0.498l-0.003,0.015l0.001,0c0.449-0.317,1.02-0.466,1.609-0.36c0.577,0.103,1.057,0.431,1.37,0.878
		v-0.001c0.328,0.568,0.887,0.997,1.583,1.123c1.258,0.227,2.463-0.61,2.69-1.866c0.229-1.255-0.612-2.458-1.871-2.684
		C92.298,140.487,91.624,140.695,91.115,141.112z"/>
	
		<ellipse transform="matrix(0.996 -0.0889 0.0889 0.996 -12.8716 9.3228)" fill="#F2F2F2" cx="98.23" cy="149.17" rx="3.771" ry="3.764"/>
	<path fill="#F2F2F2" d="M103.999,144.75c0.138,1.535-1.001,2.889-2.538,3.026c-1.535,0.137-2.893-0.996-3.03-2.531
		c-0.138-1.533,0.997-2.89,2.531-3.027C102.503,142.083,103.862,143.217,103.999,144.75z"/>
	<path fill="#F2F2F2" d="M115.356,101.684L115.356,101.684c0.888,0.204,1.701,0.749,2.226,1.583c0.532,0.849,0.66,1.832,0.44,2.731
		l0.023-0.015c-0.33,1.048-0.233,2.227,0.395,3.229c1.144,1.818,3.542,2.368,5.364,1.229c1.819-1.137,2.371-3.532,1.231-5.35
		c-0.632-1.006-1.653-1.605-2.744-1.765l0.025-0.014l-0.001-0.001c-0.906-0.198-1.736-0.742-2.268-1.587
		c-0.523-0.834-0.659-1.804-0.452-2.692l-0.001,0c0.333-1.05,0.24-2.228-0.393-3.235c-1.14-1.815-3.542-2.368-5.36-1.229
		c-1.824,1.139-2.374,3.535-1.231,5.351C113.239,100.927,114.264,101.528,115.356,101.684z"/>
	<path fill="#F2F2F2" d="M125.888,96.574c0.904,0.907,0.904,2.375-0.001,3.281c-0.908,0.907-2.382,0.907-3.287,0
		c-0.908-0.906-0.908-2.374-0.001-3.281C123.505,95.668,124.979,95.668,125.888,96.574z"/>
	<path fill="#F2F2F2" d="M131.062,100.683c1.199,1.198,1.199,3.146-0.001,4.346c-1.203,1.201-3.151,1.201-4.355,0
		c-1.203-1.199-1.203-3.147-0.001-4.346C127.908,99.481,129.857,99.481,131.062,100.683z"/>
	<path fill="#F2F2F2" d="M132.99,106.093c0.904,0.905,0.904,2.374,0,3.281c-0.909,0.905-2.382,0.905-3.287,0
		c-0.909-0.907-0.909-2.376-0.001-3.281C130.607,105.185,132.081,105.185,132.99,106.093z"/>
	<circle fill="#F2F2F2" cx="127.25" cy="111.317" r="1.26"/>
	<path fill="#F2F2F2" d="M133.205,112.219c0.493,0.491,0.493,1.289,0,1.78c-0.49,0.493-1.288,0.493-1.782,0
		c-0.49-0.491-0.49-1.289-0.001-1.78C131.917,111.728,132.715,111.728,133.205,112.219z"/>
	<circle fill="#F2F2F2" cx="106.145" cy="106.384" r="1.795"/>
	<path fill="#F2F2F2" d="M109.774,58.709c0.769,0.765,0.769,2.006,0,2.77c-0.768,0.765-2.011,0.765-2.775,0
		c-0.768-0.764-0.768-2.005-0.001-2.77C107.764,57.943,109.007,57.943,109.774,58.709z"/>
	<path fill="#F2F2F2" d="M118.759,71.131c-0.691,1.08-2.131,1.396-3.214,0.707c-1.081-0.692-1.396-2.125-0.706-3.205
		c0.691-1.081,2.132-1.397,3.209-0.708C119.13,68.616,119.45,70.051,118.759,71.131z"/>
	<path fill="#F2F2F2" d="M127.03,66.316c0.7,0.699,0.7,1.835,0,2.535c-0.7,0.699-1.837,0.699-2.537,0
		c-0.705-0.7-0.705-1.835-0.001-2.535C125.193,65.617,126.33,65.617,127.03,66.316z"/>
	<path fill="#F2F2F2" d="M116.322,57.535c0.489,0.493,0.489,1.289,0,1.78c-0.494,0.493-1.294,0.493-1.782,0
		c-0.495-0.491-0.495-1.287-0.001-1.78C115.028,57.044,115.828,57.044,116.322,57.535z"/>
	<path fill="#F2F2F2" d="M121.525,59.205c0.489,0.491,0.489,1.289,0,1.78c-0.494,0.491-1.294,0.491-1.782,0
		c-0.495-0.491-0.495-1.289-0.001-1.78C120.231,58.713,121.031,58.713,121.525,59.205z"/>
	<circle fill="#F2F2F2" cx="131.055" cy="86.043" r="1.26"/>
	<circle fill="#F2F2F2" cx="78.951" cy="110.053" r="1.26"/>
	<path fill="#F2F2F2" d="M84.791,99.764c0.908,0.905,0.908,2.375,0,3.281c-0.905,0.905-2.378,0.905-3.287,0
		c-0.906-0.906-0.906-2.376-0.001-3.281C82.412,98.858,83.886,98.858,84.791,99.764z"/>
	<path fill="#F2F2F2" d="M83.871,104.145c0.704,0.699,0.704,1.835,0,2.535c-0.7,0.699-1.837,0.699-2.537,0
		c-0.701-0.699-0.701-1.835-0.001-2.534C82.034,103.445,83.171,103.445,83.871,104.145z"/>
	<path fill="#F2F2F2" d="M47.588,140.366c0.7,0.699,0.7,1.835,0,2.535c-0.7,0.699-1.837,0.699-2.539,0
		c-0.703-0.699-0.703-1.835-0.002-2.534C45.751,139.667,46.888,139.667,47.588,140.366z"/>
	<circle fill="#F2F2F2" cx="50.697" cy="145.634" r="1.259"/>
	<path fill="#F2F2F2" d="M52.759,147.369c0.699,0.699,0.699,1.833-0.001,2.535c-0.701,0.699-1.84,0.699-2.541,0
		c-0.701-0.701-0.701-1.835-0.001-2.534C50.917,146.667,52.057,146.667,52.759,147.369z"/>
	
		<ellipse transform="matrix(-0.1881 0.9821 -0.9821 -0.1881 167.6212 86.0497)" fill="#F2F2F2" cx="48.246" cy="112.304" rx="3.273" ry="3.279"/>
	<path fill="#F2F2F2" d="M52.4,107.85c-1.259-0.24-2.086-1.456-1.844-2.714c0.242-1.26,1.457-2.084,2.721-1.843
		c1.26,0.24,2.088,1.456,1.845,2.713C54.88,107.267,53.666,108.091,52.4,107.85z"/>
	<path fill="#F2F2F2" d="M59.909,114.08c0.7,0.699,0.7,1.833-0.001,2.535c-0.7,0.698-1.836,0.698-2.537,0
		c-0.704-0.701-0.704-1.835-0.001-2.535C58.071,113.379,59.208,113.379,59.909,114.08z"/>
	<path fill="#F2F2F2" d="M50.992,116.401c1.214,1.211,1.214,3.178-0.001,4.39c-1.214,1.21-3.181,1.21-4.396,0
		c-1.214-1.212-1.215-3.178-0.001-4.39C47.81,115.19,49.777,115.19,50.992,116.401z"/>
	<path fill="#F2F2F2" d="M55.06,118.922c0.904,0.907,0.904,2.375-0.001,3.281c-0.908,0.907-2.382,0.907-3.287,0
		c-0.908-0.905-0.908-2.374-0.001-3.281C52.677,118.017,54.15,118.017,55.06,118.922z"/>
</g>
<g id="Main_Menu">
	<rect x="-0.132" y="174.926" fill="#313237" width="174.75" height="592.743"/>
	<g>
		<text transform="matrix(1 0 0 1 38.6123 233.1514)" fill="#999999" font-family="'LucidaGrande'" font-size="10">Grids</text>
	</g>
	<g>
		<text transform="matrix(1 0 0 1 38.6123 265.9785)" fill="#999999" font-family="'LucidaGrande'" font-size="10">Iteration</text>
	</g>
	<g>
		<text transform="matrix(1 0 0 1 38.6123 301.2104)" fill="#999999" font-family="'LucidaGrande'" font-size="10">Sampling</text>
	</g>
	<g>
		<text transform="matrix(1 0 0 1 38.6123 337.3882)" fill="#999999" font-family="'LucidaGrande'" font-size="10">Energy and Interaction</text>
	</g>
	<g>
		<text transform="matrix(1 0 0 1 38.6123 372.2036)" fill="#999999" font-family="'LucidaGrande'" font-size="10">Cryo-EM</text>
	</g>
	<g>
		<text transform="matrix(1 0 0 1 38.6123 407.6606)" fill="#999999" font-family="'LucidaGrande'" font-size="10">Symmetry</text>
	</g>
	<g>
		<text transform="matrix(1 0 0 1 38.6123 442.9126)" fill="#999999" font-family="'LucidaGrande'" font-size="10">Analysis</text>
	</g>
	<g>
		<text transform="matrix(1 0 0 1 38.5332 477.395)" fill="#999999" font-family="'LucidaGrande'" font-size="10">Computation</text>
	</g>
	<g>
		<path fill="#A8A8A8" d="M19.783,439.708L19.783,439.708c-0.888,0.204-1.701,0.749-2.226,1.583c-0.532,0.849-0.66,1.832-0.44,2.731
			l-0.023-0.015c0.33,1.048,0.233,2.227-0.395,3.229c-1.144,1.818-3.542,2.368-5.364,1.229c-1.819-1.137-2.371-3.532-1.231-5.35
			c0.632-1.006,1.653-1.605,2.744-1.765l-0.025-0.014l0.001-0.001c0.906-0.198,1.736-0.742,2.268-1.587
			c0.523-0.834,0.659-1.804,0.452-2.692l0.001,0c-0.333-1.05-0.24-2.228,0.393-3.235c1.14-1.815,3.542-2.368,5.36-1.229
			c1.824,1.139,2.374,3.535,1.231,5.351C21.9,438.951,20.876,439.552,19.783,439.708z"/>
		<path fill="#A8A8A8" stroke="#333333" stroke-miterlimit="10" d="M29.231,442.82l-4.291-4.292
			c0.674-0.949,1.074-2.105,1.074-3.355c0-3.205-2.607-5.812-5.812-5.812s-5.812,2.607-5.812,5.812s2.607,5.812,5.812,5.812
			c1.234,0,2.377-0.389,3.319-1.047l4.296,4.297L29.231,442.82z M20.202,438.984c-2.103,0-3.812-1.71-3.812-3.812
			s1.71-3.812,3.812-3.812s3.812,1.71,3.812,3.812S22.305,438.984,20.202,438.984z"/>
	</g>
	<g>
		<g>
			<path fill="#A8A8A8" d="M24.455,398.925c-1.188,0.002-2.238,0.55-2.951,1.391l0.002-0.029h-0.002
				c-0.648,0.664-1.549,1.079-2.547,1.081c-0.985,0.001-1.88-0.398-2.522-1.044v0.001c-0.714-0.839-1.761-1.385-2.95-1.383
				c-2.044,0.003-3.704,1.593-3.856,3.599h18.684C28.171,400.521,26.508,398.923,24.455,398.925z"/>
			<path fill="#A8A8A8" d="M13.481,406.716c1.187,0.001,2.239-0.549,2.951-1.392v0.001c0.645-0.646,1.537-1.046,2.521-1.049
				c1.002-0.001,1.903,0.412,2.549,1.075v-0.028c0.714,0.835,1.764,1.378,2.947,1.378c2.047-0.005,3.703-1.592,3.857-3.601H9.625
				C9.762,405.124,11.426,406.721,13.481,406.716z"/>
		</g>
		<circle fill="#A8A8A8" cx="18.966" cy="395.839" r="3.124"/>
		<circle fill="#A8A8A8" cx="18.966" cy="409.938" r="3.124"/>
	</g>
	<text transform="matrix(1 0 0 1 38.6123 195.8384)" fill="#EDF2F7" font-family="'LucidaGrande'" font-size="10">Partners</text>
	<path id="Puzzle_icon_4_" fill="#3FCDD2" d="M22.684,190.904c-0.294,0-0.571,0.069-0.821,0.185v-2.806
		c0-0.361-0.296-0.657-0.657-0.657h-2.747c0.077-0.21,0.126-0.434,0.126-0.671c0-1.088-0.883-1.971-1.972-1.971
		c-1.088,0-1.971,0.883-1.971,1.971c0,0.237,0.049,0.46,0.125,0.671H12.02c-0.361,0-0.657,0.296-0.657,0.657v4.128
		c0.061,0.009,0.122,0.02,0.186,0.021c0.375,0.002,0.715-0.149,0.959-0.396h0.001v0.01c0.27-0.313,0.665-0.514,1.11-0.51
		c0.806,0.006,1.453,0.664,1.447,1.469c-0.006,0.805-0.664,1.453-1.469,1.446c-0.445-0.003-0.839-0.21-1.104-0.527v0.011
		c-0.24-0.251-0.578-0.409-0.954-0.412c-0.06-0.001-0.118,0.009-0.177,0.016v3.929c0,0.361,0.296,0.657,0.657,0.657h2.817
		c-0.122,0.256-0.195,0.54-0.195,0.843c0,1.088,0.883,1.971,1.971,1.971c1.089,0,1.972-0.883,1.972-1.971
		c0-0.303-0.074-0.586-0.196-0.843h2.817c0.361,0,0.657-0.296,0.657-0.657v-2.806c0.25,0.116,0.527,0.185,0.821,0.185
		c1.09,0,1.972-0.883,1.972-1.971C24.655,191.787,23.773,190.904,22.684,190.904z"/>
	<g>
		<path fill="#A8A8A8" d="M22.285,222.484c-1.322,0.214-2.359,1.251-2.573,2.574h2.573V222.484z"/>
		<path fill="#A8A8A8" d="M25.858,225.058c-0.214-1.322-1.251-2.359-2.573-2.574v2.574H25.858z"/>
		<path fill="#A8A8A8" d="M23.285,228.632c1.322-0.214,2.359-1.251,2.573-2.574h-2.573V228.632z"/>
		<path fill="#A8A8A8" d="M19.711,226.058c0.214,1.322,1.251,2.359,2.573,2.574v-2.574H19.711z"/>
		<path fill="#A8A8A8" d="M10.525,226.058c0.214,1.322,1.251,2.359,2.573,2.574v-2.574H10.525z"/>
		<path fill="#A8A8A8" d="M16.671,225.058c-0.214-1.322-1.251-2.359-2.573-2.574v2.574H16.671z"/>
		<path fill="#A8A8A8" d="M16.671,226.058h-2.573v2.574C15.42,228.417,16.458,227.38,16.671,226.058z"/>
		<path fill="#A8A8A8" d="M13.098,222.484c-1.322,0.214-2.359,1.251-2.573,2.574h2.573V222.484z"/>
		<path fill="#A8A8A8" d="M25.858,234.245c-0.214-1.322-1.251-2.359-2.573-2.574v2.574H25.858z"/>
		<path fill="#A8A8A8" d="M19.711,235.245c0.214,1.322,1.251,2.359,2.573,2.574v-2.574H19.711z"/>
		<path fill="#A8A8A8" d="M19.711,234.245h2.573v-2.574C20.962,231.885,19.925,232.922,19.711,234.245z"/>
		<path fill="#A8A8A8" d="M23.285,237.818c1.322-0.214,2.359-1.251,2.573-2.574h-2.573V237.818z"/>
		<path fill="#A8A8A8" d="M14.098,237.818c1.322-0.214,2.359-1.251,2.573-2.574h-2.573V237.818z"/>
		<path fill="#A8A8A8" d="M13.098,231.671c-1.322,0.214-2.359,1.251-2.573,2.574h2.573V231.671z"/>
		<path fill="#A8A8A8" d="M10.525,235.245c0.214,1.322,1.251,2.359,2.573,2.574v-2.574H10.525z"/>
		<path fill="#A8A8A8" d="M14.098,231.671v2.574h2.573C16.458,232.922,15.42,231.885,14.098,231.671z"/>
		<path fill="#A8A8A8" d="M22.285,237.818v2.418h1v-2.418c-0.164,0.026-0.329,0.05-0.5,0.05S22.449,237.845,22.285,237.818z"/>
		<path fill="#A8A8A8" d="M23.285,222.484v-3.582h-1v3.582c0.164-0.026,0.329-0.05,0.5-0.05S23.121,222.458,23.285,222.484z"/>
		<path fill="#A8A8A8" d="M25.858,226.058h3.094v-1h-3.094c0.026,0.164,0.051,0.329,0.051,0.5S25.884,225.895,25.858,226.058z"/>
		<path fill="#A8A8A8" d="M25.858,235.245h3.094v-1h-3.094c0.026,0.164,0.051,0.329,0.051,0.5S25.884,235.081,25.858,235.245z"/>
		<path fill="#A8A8A8" d="M22.785,228.682c-0.171,0-0.336-0.024-0.5-0.05v3.039c0.164-0.026,0.329-0.05,0.5-0.05
			s0.336,0.024,0.5,0.05v-3.039C23.121,228.658,22.956,228.682,22.785,228.682z"/>
		<path fill="#A8A8A8" d="M10.525,225.058H7.619v1h2.906c-0.027-0.164-0.051-0.329-0.051-0.5S10.498,225.222,10.525,225.058z"/>
		<path fill="#A8A8A8" d="M14.098,231.671v-3.039c-0.164,0.026-0.329,0.05-0.5,0.05s-0.336-0.024-0.5-0.05v3.039
			c0.164-0.026,0.329-0.05,0.5-0.05S13.934,231.645,14.098,231.671z"/>
		<path fill="#A8A8A8" d="M13.098,237.818v2.418h1v-2.418c-0.164,0.026-0.329,0.05-0.5,0.05S13.262,237.845,13.098,237.818z"/>
		<path fill="#A8A8A8" d="M16.671,226.058h3.04c-0.026-0.164-0.051-0.329-0.051-0.5s0.024-0.336,0.051-0.5h-3.04
			c0.027,0.164,0.051,0.329,0.051,0.5S16.699,225.895,16.671,226.058z"/>
		<path fill="#A8A8A8" d="M10.525,234.245H7.619v1h2.906c-0.027-0.164-0.051-0.329-0.051-0.5S10.498,234.408,10.525,234.245z"/>
		<path fill="#A8A8A8" d="M19.711,234.245h-3.04c0.027,0.164,0.051,0.329,0.051,0.5s-0.023,0.336-0.051,0.5h3.04
			c-0.026-0.164-0.051-0.329-0.051-0.5S19.685,234.408,19.711,234.245z"/>
		<path fill="#A8A8A8" d="M14.098,222.484v-3.582h-1v3.582c0.164-0.026,0.329-0.05,0.5-0.05S13.934,222.458,14.098,222.484z"/>
	</g>
	<g>
		<path fill="#A8A8A8" d="M20.492,367.688c-0.287-0.295-0.672-0.457-1.079-0.457c-0.397,0.001-0.771,0.151-1.054,0.423
			c-0.602,0.696-1.426,1.122-2.317,1.245l2.626,8.92c0.311,1.055,0.839,1.061,1.174,0.014l2.859-8.938
			C21.429,368.672,20.578,367.782,20.492,367.688z"/>
		<path fill="#A8A8A8" d="M17.729,366.952L17.729,366.952c0.454-0.455,1.085-0.737,1.781-0.74c0.707,0,1.343,0.291,1.799,0.759
			l0.001-0.02c0.503,0.59,1.244,0.974,2.08,0.973c1.516-0.004,2.742-1.234,2.742-2.751c0.001-1.515-1.227-2.741-2.74-2.739
			c-0.839,0.001-1.579,0.388-2.084,0.982l0.002-0.021v0c-0.459,0.468-1.096,0.762-1.799,0.763c-0.696,0.001-1.327-0.28-1.781-0.737
			v0.001c-0.504-0.592-1.243-0.979-2.084-0.976c-1.512,0.001-2.742,1.233-2.742,2.749c0,1.517,1.228,2.743,2.742,2.739
			C16.483,367.936,17.227,367.547,17.729,366.952z"/>
		<circle fill="#A8A8A8" cx="19.637" cy="360.405" r="2.433"/>
	</g>
	<g>
		<path fill="#A8A8A8" d="M18.525,295.685c-0.029-0.127-0.034-0.253-0.049-0.379l-5.646,5.646c-0.594,0.594-0.908,1.326-0.945,2.004
			l-0.009-0.013l-0.001-0.001c-0.072,0.578-0.363,1.187-0.859,1.686l1.104,1.106c0.5-0.5,1.106-0.793,1.682-0.862l-0.009-0.012
			c0.672-0.037,1.402-0.355,1.994-0.946c0-0.001,0.002-0.001,0.002-0.002l5.645-5.644C20.052,298.111,18.854,297.117,18.525,295.685
			z"/>
		<g>
			<circle fill="#A8A8A8" cx="22.342" cy="294.398" r="3.374"/>
		</g>
		<line fill="none" stroke="#313237" stroke-miterlimit="10" x1="15.83" y1="298.128" x2="17.31" y2="299.609"/>
		<line fill="none" stroke="#313237" stroke-miterlimit="10" x1="13.738" y1="300.222" x2="15.216" y2="301.701"/>
	</g>
	<g>
		<path fill="#A8A8A8" d="M17.876,340.206l0.039,3.087l1.224-3.11c-0.254,0.029-0.512,0.048-0.773,0.048
			C18.201,340.231,18.039,340.218,17.876,340.206z"/>
		<path fill="#A8A8A8" d="M17.854,323.239l-1.415,3.843c0.459-0.138,0.939-0.223,1.434-0.259L17.854,323.239z"/>
		<path fill="#A8A8A8" d="M25.083,333.515c0-3.709-3.007-6.716-6.717-6.716c-0.166,0-0.329,0.013-0.493,0.025l0.026,4.889
			l4.819-0.626l-3.579,9.097C22.484,339.799,25.083,336.961,25.083,333.515z"/>
		<path fill="#A8A8A8" d="M13.416,335.29l3.023-8.207c-2.77,0.829-4.789,3.393-4.789,6.432c0,3.543,2.746,6.44,6.227,6.691
			l-0.069-5.399L13.416,335.29z"/>
	</g>
	<g>
		<g>
			<path fill="#A8A8A8" d="M25.84,264.15c0-2.391-1.134-4.517-2.887-5.885l-1.228,1.576c1.284,1.001,2.114,2.559,2.114,4.31
				c0,0.403-0.047,0.795-0.13,1.174l1.938,0.487C25.77,265.277,25.84,264.722,25.84,264.15z"/>
			<path fill="#A8A8A8" d="M18.37,269.62c-3.016,0-5.47-2.454-5.47-5.47c0-3.014,2.452-5.466,5.466-5.469v-2
				c-4.117,0.002-7.466,3.352-7.466,7.469c0,4.119,3.351,7.47,7.47,7.47c1.729,0,3.317-0.596,4.585-1.585l-1.229-1.575
				C20.799,269.184,19.636,269.62,18.37,269.62z"/>
		</g>
		<polygon fill="#A8A8A8" points="18.366,260.081 18.366,255.473 20.67,257.777 		"/>
		<polygon fill="#A8A8A8" points="22.353,264.873 26.815,266.014 24.013,267.675 		"/>
	</g>
	<circle fill="#53B9D9" cx="160.002" cy="192.962" r="3.8"/>
	<circle fill="#53B9D9" cx="160.002" cy="298.868" r="3.8"/>
	<circle fill="#53B9D9" cx="160.002" cy="334.356" r="3.8"/>
	<circle fill="#53B9D9" cx="160.002" cy="404.908" r="3.8"/>
	<g>
		<rect x="-0.216" y="733" fill="#3FCDD2" width="174.834" height="35"/>
		<rect x="139.618" y="733" fill="#2A9099" width="35" height="35"/>
		<path fill="#F5F5F5" d="M163.367,749.564h-2.582v-5.746H153.3v5.746h-2.582c-0.822,0-1.02,0.477-0.438,1.059l5.705,5.703
			c0.581,0.582,1.535,0.582,2.116,0l5.705-5.703C164.387,750.041,164.189,749.564,163.367,749.564z"/>
		<g>
			<text transform="matrix(1 0 0 1 13.3623 754.1934)" fill="#FFFFFF" font-family="'LucidaGrande'" font-size="10">Download Configuration</text>
		</g>
	</g>
	
		<line fill="none" stroke="#4D4D4D" stroke-width="0.75" stroke-miterlimit="10" x1="-0.382" y1="210.138" x2="174.784" y2="210.138"/>
	<line fill="none" stroke="#4D4D4D" stroke-width="0.75" stroke-miterlimit="10" x1="-0.22" y1="245.11" x2="174.618" y2="245.11"/>
	
		<line fill="none" stroke="#4D4D4D" stroke-width="0.75" stroke-miterlimit="10" x1="-0.382" y1="280.138" x2="174.349" y2="280.138"/>
	
		<line fill="none" stroke="#4D4D4D" stroke-width="0.75" stroke-miterlimit="10" x1="-0.22" y1="315.388" x2="174.618" y2="315.388"/>
	
		<line fill="none" stroke="#4D4D4D" stroke-width="0.75" stroke-miterlimit="10" x1="-0.132" y1="350.388" x2="174.618" y2="350.388"/>
	
		<line fill="none" stroke="#4D4D4D" stroke-width="0.75" stroke-miterlimit="10" x1="-0.132" y1="385.388" x2="174.618" y2="385.388"/>
	
		<line fill="none" stroke="#4D4D4D" stroke-width="0.75" stroke-miterlimit="10" x1="-0.132" y1="420.388" x2="174.618" y2="420.388"/>
	
		<line fill="none" stroke="#4D4D4D" stroke-width="0.75" stroke-miterlimit="10" x1="-0.132" y1="455.388" x2="174.618" y2="455.388"/>
	
		<line fill="none" stroke="#4D4D4D" stroke-width="0.75" stroke-miterlimit="10" x1="-0.132" y1="490.388" x2="174.618" y2="490.388"/>
</g>
<g id="Interface">
	<rect x="174.618" y="175.138" fill="#E1E5ED" width="849.382" height="35"/>
	<g>
		<line fill="none" stroke="#313237" stroke-width="2" stroke-miterlimit="10" x1="1000.8" y1="188.138" x2="1009.8" y2="197.138"/>
		
			<line fill="none" stroke="#313237" stroke-width="2" stroke-miterlimit="10" x1="1000.802" y1="197.138" x2="1009.8" y2="188.138"/>
	</g>
	<g>
		<g>
			<path fill="none" stroke="#313237" stroke-width="2" stroke-miterlimit="10" d="M973.44,191.066
				c0.611,1.442,0.345,3.173-0.814,4.369c-1.544,1.595-4.09,1.635-5.684,0.09c-1.595-1.545-1.636-4.09-0.09-5.685
				c0.771-0.797,1.794-1.207,2.822-1.223"/>
			<g>
				<polygon fill="#313237" points="969.068,190.821 972.832,188.566 968.997,186.434 				"/>
			</g>
		</g>
	</g>
	<g>
		<text transform="matrix(1 0 0 1 235.8828 197.5781)" fill="#313237" font-family="'LucidaGrande-Bold'" font-size="14">Docking partner 1</text>
	</g>
	<text transform="matrix(1 0 0 1 242.8828 271.4365)" fill="#313237" font-family="'LucidaGrande-Bold'" font-size="14">Structure Sources</text>
	<g>
		<text transform="matrix(1 0 0 1 709.623 297.9302)" fill="#666666" font-family="'PTSans-Regular'" font-size="12">Or define</text>
	</g>
	<g>
		<text transform="matrix(1 0 0 1 242.8828 369.3657)" fill="#666666" font-family="'PTSans-Regular'" font-size="12">The molecule is in reduced form</text>
	</g>
	<g>
		<text transform="matrix(1 0 0 1 709.623 368.4375)" fill="#666666" font-family="'PTSans-Regular'" font-size="12">Remove flexibility</text>
	</g>
	<g>
		<text transform="matrix(1 0 0 1 244.3623 667.4082)" fill="#666666" font-family="'PTSans-Regular'" font-size="12">Select only backbone atoms for RMSD calculation</text>
	</g>
	<g>
		<text transform="matrix(1 0 0 1 242.8828 333.437)" fill="#666666" font-family="'PTSans-Regular'" font-size="12">Name of the grid for this mol</text>
	</g>
	<g>
		<text transform="matrix(1 0 0 1 244.3623 593.9746)" fill="#666666" font-family="'PTSans-Regular'" font-size="12">Reference RMSD PDB file</text>
	</g>
	<g>
		<text transform="matrix(1 0 0 1 709.623 593.9746)" fill="#666666" font-family="'PTSans-Regular'" font-size="12">Collect PDB file</text>
	</g>
	<g>
		<text transform="matrix(1 0 0 1 244.3623 629.7402)" fill="#666666" font-family="'PTSans-Regular'" font-size="12">Collect ensemble list file</text>
	</g>
	<g>
		<text transform="matrix(1 0 0 1 709.623 333.4121)" fill="#666666" font-family="'PTSans-Regular'" font-size="12">Which chain must be used?</text>
	</g>
	<g>
		<text transform="matrix(1 0 0 1 244.3623 440.1704)" fill="#666666" font-family="'PTSans-Regular'" font-size="12">Harmonic modes file</text>
	</g>
	<g>
		<text transform="matrix(1 0 0 1 244.3623 478.8013)" fill="#666666" font-family="'PTSans-Regular'" font-size="12">All-atom harmonic modes file (for RMSD/collect)</text>
	</g>
	<g>
		<text transform="matrix(1 0 0 1 709.623 443.9331)" fill="#666666" font-family="'PTSans-Regular'" font-size="12">Number of modes to select</text>
	</g>
	<rect x="174.618" y="210.138" fill="#56606F" width="849.382" height="35"/>
	<g>
		<text transform="matrix(1 0 0 1 235.8828 233.127)" fill="#FFFFFF" font-family="'LucidaGrande-Bold'" font-size="14">Docking partner 2</text>
	</g>
	<g>
		<path fill="#53B9D9" d="M582.169,304.43c0,1.1-0.9,2-2,2h-171c-1.1,0-2-0.9-2-2v-21c0-1.1,0.9-2,2-2h171c1.1,0,2,0.9,2,2V304.43z"
			/>
	</g>
	<g>
		<text transform="matrix(1 0 0 0.95 418.0508 297.9121)" fill="#FFFFFF" font-family="'LucidaGrande'" font-size="10">1AZ4.pdb</text>
	</g>
	<path fill="#343A42" d="M582.407,304.43c0,1.1-0.9,2-2,2h-23v-25h23c1.1,0,2,0.9,2,2V304.43z"/>
	<path fill="#F5F5F5" d="M572.043,287.889h-7.293v12.082h10.314v-9.082L572.043,287.889z M572.48,290.419l0.037,0.037h-0.037
		V290.419z M566.236,298.484v-9.108h4.758v2.566h2.584v6.542H566.236z"/>
	<g>
		<path fill="#53B9D9" d="M582.169,377.93c0,1.1-0.9,2-2,2h-21c-1.1,0-2-0.9-2-2v-21c0-1.1,0.9-2,2-2h21c1.1,0,2,0.9,2,2V377.93z"/>
	</g>
	
		<line fill="none" stroke="#FFFFFF" stroke-width="3" stroke-miterlimit="10" x1="563.346" y1="367.991" x2="569.283" y2="373.741"/>
	
		<line fill="none" stroke="#FFFFFF" stroke-width="3" stroke-miterlimit="10" x1="567.117" y1="373.741" x2="575.992" y2="364.991"/>
	<g>
		<text transform="matrix(1 0 0 1 242.8828 296.9302)" fill="#666666" font-family="'PTSans-Regular'" font-size="12">Structure file</text>
	</g>
	<g>
		<path fill="#56606F" d="M582.169,340.912c0,1.1-0.9,2-2,2h-171c-1.1,0-2-0.9-2-2v-21c0-1.1,0.9-2,2-2h171c1.1,0,2,0.9,2,2V340.912
			z"/>
	</g>
	<g>
		<text transform="matrix(1 0 0 1 418.1699 333.4121)" fill="#FFFFFF" font-family="'LucidaGrande'" font-size="10">Same as structure</text>
	</g>
	<path fill="#343A42" d="M582.169,340.912c0,1.1-0.9,2-2,2h-23v-25h23c1.1,0,2,0.9,2,2V340.912z"/>
	<g>
		
			<rect x="564.708" y="328.742" transform="matrix(-0.7071 0.7071 -0.7071 -0.7071 1207.7943 159.7337)" fill="#FFFFFF" width="12.22" height="2.495"/>
		<polygon fill="#FFFFFF" points="565.139,333.904 566.904,335.667 564.771,336.038 		"/>
	</g>
	<g>
		<path fill="#56606F" d="M988.161,340.912c0,1.1-0.9,2-2,2H900.86c-1.1,0-2-0.9-2-2v-21c0-1.1,0.9-2,2-2h85.301c1.1,0,2,0.9,2,2
			V340.912z"/>
	</g>
	<g>
		<text transform="matrix(1 0 0 1 928.0078 333.9023)" fill="#FFFFFF" font-family="'LucidaGrande'" font-size="10">A</text>
	</g>
	<g>
		<path fill="#53B9D9" d="M989,377.93c0,1.1-0.9,2-2,2h-21c-1.1,0-2-0.9-2-2v-21c0-1.1,0.9-2,2-2h21c1.1,0,2,0.9,2,2V377.93z"/>
	</g>
	
		<line fill="none" stroke="#FFFFFF" stroke-width="3" stroke-miterlimit="10" x1="970.177" y1="367.991" x2="976.114" y2="373.741"/>
	
		<line fill="none" stroke="#FFFFFF" stroke-width="3" stroke-miterlimit="10" x1="973.948" y1="373.741" x2="982.823" y2="364.991"/>
	<text transform="matrix(1 0 0 1 242.8828 414.9302)" fill="#313237" font-family="'LucidaGrande-Bold'" font-size="14">Use Harmonic Modes</text>
	<g>
		<path fill="#56606F" d="M582.05,448.937c0,1.1-0.9,2-2,2h-171c-1.1,0-2-0.9-2-2v-21c0-1.1,0.9-2,2-2h171c1.1,0,2,0.9,2,2V448.937z
			"/>
	</g>
	<g>
		<text transform="matrix(1 0 0 1 418.2891 441.437)" fill="#FFFFFF" font-family="'LucidaGrande'" font-size="10">Select file</text>
	</g>
	<g>
		<path fill="#56606F" d="M988.014,448.937c0,1.1-0.9,2-2,2H900.86c-1.1,0-2-0.9-2-2v-21c0-1.1,0.9-2,2-2h85.153c1.1,0,2,0.9,2,2
			V448.937z"/>
	</g>
	<g>
		<text transform="matrix(1 0 0 1 909.3936 441.437)" fill="#FFFFFF" font-family="'LucidaGrande'" font-size="10">No modes</text>
	</g>
	<g>
		<path fill="#56606F" d="M988.337,486.302c0,1.1-0.9,2-2,2h-171c-1.1,0-2-0.9-2-2v-21.001c0-1.1,0.9-2,2-2h171c1.1,0,2,0.9,2,2
			V486.302z"/>
	</g>
	<g>
		<text transform="matrix(1 0 0 1 824.5762 478.8013)" fill="#FFFFFF" font-family="'LucidaGrande'" font-size="10">Select file</text>
	</g>
	<text transform="matrix(1 0 0 1 242.8828 524.9297)" fill="#313237" font-family="'LucidaGrande-Bold'" font-size="14">Use ensembles</text>
	<text transform="matrix(1 0 0 1 242.8828 561.9297)" fill="#313237" font-family="'LucidaGrande-Bold'" font-size="14">RMSD calculation</text>
	<g>
		<path fill="#56606F" d="M581.931,599.986c0,1.1-0.9,2-2,2h-171c-1.1,0-2-0.9-2-2v-21c0-1.1,0.9-2,2-2h171c1.1,0,2,0.9,2,2V599.986
			z"/>
	</g>
	<g>
		<text transform="matrix(1 0 0 1 418.1699 592.4863)" fill="#FFFFFF" font-family="'LucidaGrande'" font-size="10">Select file</text>
	</g>
	<g>
		<path fill="#56606F" d="M988.218,599.986c0,1.1-0.9,2-2,2H816c-1.1,0-2-0.9-2-2v-21c0-1.1,0.9-2,2-2h170.218c1.1,0,2,0.9,2,2
			V599.986z"/>
	</g>
	<g>
		<text transform="matrix(1 0 0 1 824.5762 592.4863)" fill="#FFFFFF" font-family="'LucidaGrande'" font-size="10">Select file</text>
	</g>
	<g>
		<path fill="#56606F" d="M581.812,637.242c0,1.1-0.9,2-2,2h-171c-1.1,0-2-0.9-2-2v-21c0-1.1,0.9-2,2-2h171c1.1,0,2,0.9,2,2V637.242
			z"/>
	</g>
	<g>
		<text transform="matrix(1 0 0 1 418.0508 629.7402)" fill="#FFFFFF" font-family="'LucidaGrande'" font-size="10">Select file</text>
	</g>
	<g>
		<path fill="#56606F" d="M579.783,650.598c0.552,0,1,0.448,1,1v21c0,0.552-0.448,1-1,1h-21c-0.552,0-1-0.448-1-1v-21
			c0-0.552,0.448-1,1-1H579.783 M579.783,649.598h-21c-1.1,0-2,0.9-2,2v21c0,1.1,0.9,2,2,2h21c1.1,0,2-0.9,2-2v-21
			C581.783,650.498,580.883,649.598,579.783,649.598L579.783,649.598z"/>
	</g>
	<g>
		<line fill="none" stroke="#FFFFFF" stroke-width="2" stroke-miterlimit="10" x1="1000.8" y1="223.686" x2="1009.8" y2="232.686"/>
		
			<line fill="none" stroke="#FFFFFF" stroke-width="2" stroke-miterlimit="10" x1="1000.802" y1="232.686" x2="1009.8" y2="223.686"/>
	</g>
	<g>
		<g>
			<path fill="none" stroke="#FFFFFF" stroke-width="2" stroke-miterlimit="10" d="M973.44,226.614
				c0.611,1.442,0.345,3.173-0.814,4.369c-1.544,1.595-4.09,1.635-5.684,0.09c-1.595-1.545-1.636-4.09-0.09-5.685
				c0.771-0.797,1.794-1.207,2.822-1.223"/>
			<g>
				<polygon fill="#FFFFFF" points="969.068,226.37 972.832,224.115 968.997,221.982 				"/>
			</g>
		</g>
	</g>
	<path fill="none" stroke="#3274A8" stroke-width="2" stroke-miterlimit="10" d="M977.219,321.888"/>
	<path fill="none" stroke="#3274A8" stroke-width="2" stroke-miterlimit="10" d="M977.219,334.615"/>
	<polyline fill="none" stroke="#E1E5ED" stroke-width="2" stroke-miterlimit="10" points="187.394,227.631 193.758,232.045 
		200.122,227.631 	"/>
	<g>
		<path fill="#57C3E5" d="M226.172,409.709c0,3.85-3.15,7-7,7h-23.148c-3.85,0-7-3.15-7-7l0,0c0-3.85,3.15-7,7-7h23.148
			C223.022,402.709,226.172,405.859,226.172,409.709L226.172,409.709z"/>
	</g>
	<circle fill="#FFFFFF" cx="218.172" cy="409.708" r="5.162"/>
	<g>
		<path fill="#56606F" d="M989,304.43c0,1.1-0.9,2-2,2H816c-1.1,0-2-0.9-2-2v-21c0-1.1,0.9-2,2-2h171c1.1,0,2,0.9,2,2V304.43z"/>
	</g>
	<path fill="#343A42" d="M989,304.43c0,1.1-0.9,2-2,2h-23v-25h23c1.1,0,2,0.9,2,2V304.43z"/>
	<g>
		
			<rect x="971.539" y="292.26" transform="matrix(-0.7071 0.7071 -0.7071 -0.7071 1876.5195 -190.2031)" fill="#FFFFFF" width="12.22" height="2.495"/>
		<polygon fill="#FFFFFF" points="971.97,297.422 973.735,299.185 971.602,299.556 		"/>
	</g>
	<g>
		<text transform="matrix(1 0 0 1 824.5762 297.5557)" fill="#FFFFFF" font-family="'LucidaGrande'" font-size="10">RCSB PDB id</text>
	</g>
	<g>
		<path fill="#313237" d="M704.099,670.598c0,2.2-1.8,4-4,4H596.343c-2.2,0-4-1.8-4-4v-17c0-2.2,1.8-4,4-4h103.756c2.2,0,4,1.8,4,4
			V670.598z"/>
	</g>
	<path fill="#53B9D9" d="M704.099,670.598c0,2.2-1.8,4-4,4h-21v-25h21c2.2,0,4,1.8,4,4V670.598z"/>
	<g>
		<text transform="matrix(1 0 0 1 607.126 665.001)" fill="#EDF2F7" font-family="'LucidaGrande'" font-size="10">Tooltip</text>
	</g>
	<text transform="matrix(1 0 0 1 687.8428 667.4082)" fill="#F5F5F5" font-family="'Times-BoldItalic'" font-size="18">i</text>
</g>
<path fill="#343A42" d="M988.456,340.912c0,1.101-0.9,2-2,2h-23v-25h23c1.1,0,2,0.9,2,2V340.912z"/>
<path fill="#343A42" d="M581.783,637.242c0,1.101-0.9,2-2,2h-23v-25h23c1.1,0,2,0.9,2,2V637.242z"/>
<path fill="#343A42" d="M581.783,599.986c0,1.101-0.9,2-2,2h-23v-25h23c1.1,0,2,0.9,2,2V599.986z"/>
<g id="Info">
	<rect x="174.705" y="34.592" fill="#F1F1F1" width="849.295" height="140.333"/>
	<g>
		<defs>
			<rect id="SVGID_1_" x="174.784" y="34.592" width="779.02" height="139.546"/>
		</defs>
		<clipPath id="SVGID_2_">
			<use xlink:href="#SVGID_1_"  overflow="visible"/>
		</clipPath>
		<path id="Puzzle_icon_1_" clip-path="url(#SVGID_2_)" fill="#DEE1E2" d="M288.145,112.338c-2.352-2.046-5.04-3.416-7.843-4.237
			l19.499-22.414c2.511-2.887,2.199-7.306-0.689-9.818l-21.937-19.084c2.073-1.151,4.021-2.598,5.669-4.492
			c7.563-8.693,6.646-21.88-2.051-29.446c-8.698-7.568-21.883-6.648-29.445,2.045c-1.647,1.894-2.812,4.021-3.669,6.231
			l-21.941-19.088c-2.885-2.51-7.306-2.208-9.818,0.68L187.231,45.69c0.426,0.496,0.833,1.01,1.338,1.454
			c2.979,2.624,6.746,3.771,10.415,3.501l0.008,0.008l-0.069,0.081c4.331-0.626,8.887,0.518,12.419,3.644
			c6.391,5.645,6.995,15.401,1.349,21.798c-5.646,6.379-15.407,6.985-21.789,1.338c-3.537-3.121-5.234-7.507-5.152-11.881
			l-0.077,0.088c-0.177-3.676-1.775-7.286-4.756-9.915c-0.477-0.423-1.015-0.755-1.53-1.1l-27.303,31.383
			c-2.509,2.885-2.2,7.31,0.684,9.819l22.506,19.579c-2.754,1.2-5.312,2.953-7.42,5.376c-7.563,8.693-6.65,21.876,2.05,29.445
			c8.696,7.565,21.882,6.648,29.445-2.045c2.107-2.422,3.486-5.204,4.291-8.097l22.503,19.576c2.888,2.512,7.311,2.205,9.82-0.68
			l19.5-22.415c1.199,2.667,2.929,5.139,5.281,7.186c8.706,7.573,21.883,6.648,29.446-2.047
			C297.758,133.091,296.849,119.912,288.145,112.338z"/>
	</g>
	<text transform="matrix(0.8729 0 0 0.95 237.3623 108.7935)"><tspan x="0" y="0" fill="#4D4D4D" font-family="'LucidaGrande'" font-size="12">Define up to 10 docking partners by uploading a PDB structure file or identifing them by there RCSB Protein Databank ID. </tspan><tspan x="0" y="22.105" fill="#4D4D4D" font-family="'LucidaGrande'" font-size="12">Ensemble structures are allowed. </tspan></text>
	<text transform="matrix(1 0 0 1 237.3623 80.6221)" fill="#4D4D4D" font-family="'BallparkWeiner'" font-size="28">Docking Partners</text>
	<line fill="none" stroke="#B3B3B3" stroke-miterlimit="10" x1="174.618" y1="174.926" x2="1024" y2="174.926"/>
</g>
<g id="Header">
	<rect x="-0.382" y="-0.334" fill="#313237" width="1024.382" height="35"/>
	
		<line fill="none" stroke="#FFFFFF" stroke-width="2" stroke-miterlimit="10" x1="1002.316" y1="12.196" x2="1010.684" y2="20.563"/>
	
		<line fill="none" stroke="#FFFFFF" stroke-width="2" stroke-miterlimit="10" x1="1002.316" y1="20.563" x2="1010.684" y2="12.196"/>
	<text transform="matrix(1 0 0 1 89.3936 23.27)" fill="#FFFFFF" font-family="'MuseoSans-300'" font-size="14">ONLINE</text>
	<g>
		<g>
			<path fill="none" stroke="#FFFFFF" stroke-width="2" stroke-miterlimit="10" d="M234.622,17.958
				c-0.357,2.603-2.229,4.869-4.924,5.598c-3.596,0.973-7.299-1.155-8.27-4.749c-0.973-3.596,1.152-7.299,4.749-8.271
				c1.797-0.487,3.623-0.199,5.119,0.659"/>
			<g>
				<polygon fill="#FFFFFF" points="229.646,12.778 234.034,12.766 231.831,8.972 				"/>
			</g>
		</g>
	</g>
	<text transform="matrix(1 0 0 1 21.3623 23.27)" fill="#FFFFFF" font-family="'MuseoSans-700'" font-size="14">ATTRACT</text>
	
		<line fill="none" stroke="#4D4D4D" stroke-width="0.75" stroke-miterlimit="10" x1="209.705" y1="-0.455" x2="209.705" y2="34.466"/>
	<line fill="none" stroke="#3FCDD2" stroke-width="2" stroke-miterlimit="10" x1="-0.216" y1="0.545" x2="174.784" y2="0.545"/>
	<text transform="matrix(1 0 0 1 259.9023 21.27)" fill="#EDF2F7" font-family="'LucidaGrande-Bold'" font-size="12">Menu</text>
	<g id="Menu">
		<g>
			<path fill="#313237" d="M370.402,156.939c0,2.2-1.8,4-4,4H228.367c-2.2,0-4-1.8-4-4V48.757c0-2.2,1.8-4,4-4h138.035
				c2.2,0,4,1.8,4,4V156.939z"/>
		</g>
		
			<rect x="270.632" y="39.187" transform="matrix(0.7071 -0.7071 0.7071 0.7071 48.9596 209.0812)" fill="#313237" width="12.501" height="12.499"/>
		<text transform="matrix(1 0 0 1 259.9023 67.8013)" fill="#EDF2F7" font-family="'LucidaGrande'" font-size="10">Messages</text>
		<text transform="matrix(1 0 0 1 259.9023 93.4326)" fill="#EDF2F7" font-family="'LucidaGrande'" font-size="10">Save</text>
		<text transform="matrix(1 0 0 1 259.9023 119.0635)" fill="#EDF2F7" font-family="'LucidaGrande'" font-size="10">Contact</text>
		<text transform="matrix(1 0 0 1 259.9023 144.6948)" fill="#EDF2F7" font-family="'LucidaGrande'" font-size="10">Help</text>
		<g id="Help_2_">
			<path fill="#A8A8A8" d="M238.622,135.096c-3.309,0-6,2.692-6,6c0,3.308,2.692,6,6,6s6.001-2.692,6.001-6
				C244.623,137.788,241.931,135.096,238.622,135.096z M243.557,139.114l-2.492,0.619c-0.258-0.459-0.636-0.835-1.099-1.089
				l0.623-2.5C241.941,136.682,243.011,137.765,243.557,139.114z M238.622,143.241c-1.183,0-2.144-0.962-2.144-2.144
				c0-1.183,0.961-2.145,2.144-2.145s2.144,0.962,2.144,2.145C240.766,142.279,239.805,143.241,238.622,143.241z M236.656,136.143
				l0.621,2.501c-0.464,0.255-0.845,0.634-1.103,1.097l-2.491-0.62C234.229,137.769,235.301,136.684,236.656,136.143z
				 M233.673,143.074l2.503-0.621c0.255,0.458,0.631,0.834,1.09,1.09l-0.623,2.503C235.293,145.503,234.215,144.426,233.673,143.074
				z M240.6,146.045l-0.621-2.503c0.457-0.255,0.831-0.628,1.086-1.083l2.504,0.623C243.025,144.43,241.949,145.504,240.6,146.045z"
				/>
		</g>
		<path fill="#A8A8A8" d="M245.297,67.26c0,0.534-0.417,0.971-0.927,0.971h-6.689l-3.475,1.952l0.618-1.952h-1.57
			c-0.51,0-0.927-0.437-0.927-0.971V60.66c0-0.534,0.417-0.971,0.927-0.971h11.117c0.51,0,0.927,0.437,0.927,0.971V67.26z"/>
		<circle fill="#3FCDD2" cx="358.667" cy="64.937" r="5.826"/>
		<text transform="matrix(1 0 0 1 355.748 67.8306)" fill="#313237" font-family="'LucidaGrande-Bold'" font-size="9">1</text>
		<g id="Save_2_">
			<path fill="#A8A8A8" d="M245.128,90.033h-2.54V84.38h-7.364v5.653h-2.539c-0.809,0-1.004,0.469-0.431,1.042l5.611,5.609
				c0.571,0.572,1.51,0.572,2.081,0l5.612-5.609C246.131,90.501,245.937,90.033,245.128,90.033z"/>
		</g>
		<g id="Contact_2_">
			<path fill="#A8A8A8" d="M233.492,110.902l4.88,4.88c0.116,0.116,0.272,0.181,0.439,0.181c0.167,0,0.324-0.064,0.44-0.181
				l4.88-4.88H233.492z"/>
			<g>
				<path fill="#A8A8A8" d="M240.678,115.246l-0.971,0.971c-0.242,0.241-0.558,0.361-0.875,0.361s-0.634-0.12-0.875-0.361
					l-0.991-0.991l-4.085,4.085c-0.027,0.027-0.054,0.049-0.081,0.072c0.113,0.115,0.269,0.187,0.443,0.187h11.137
					c0.174,0,0.33-0.072,0.443-0.187c-0.027-0.023-0.054-0.045-0.081-0.072L240.678,115.246z"/>
			</g>
			<g>
				<path fill="#A8A8A8" d="M232.9,111.161c-0.031-0.031-0.053-0.061-0.078-0.092c-0.123,0.114-0.201,0.274-0.201,0.455v7.176
					l3.909-3.909L232.9,111.161z"/>
				<path fill="#A8A8A8" d="M244.763,111.161l-3.65,3.649l3.889,3.889v-7.176c0-0.169-0.068-0.322-0.179-0.434
					C244.803,111.114,244.787,111.137,244.763,111.161z"/>
			</g>
		</g>
	</g>
</g>
<g id="Lines">
	<line fill="#ECF0F1" x1="174.784" y1="-0.455" x2="174.784" y2="34.545"/>
	<g>
		<rect x="184.166" y="11.062" fill="#FFFFFF" width="16" height="2"/>
		<rect x="184.166" y="21.27" fill="#FFFFFF" width="16" height="2"/>
		<rect x="184.166" y="16.166" fill="#FFFFFF" width="16" height="2"/>
	</g>
	
		<line fill="none" stroke="#4D4D4D" stroke-width="0.75" stroke-miterlimit="10" x1="244.367" y1="-0.334" x2="244.367" y2="34.666"/>
</g>
<line fill="none" stroke="#03A6A8" stroke-miterlimit="10" x1="-0.216" y1="174.926" x2="174.618" y2="174.926"/>
<polyline fill="none" stroke="#313237" stroke-width="2" stroke-miterlimit="10" points="191.551,199.001 195.965,192.638 
	191.551,186.275 "/>
<line fill="none" stroke="#4D4D4D" stroke-width="0.75" stroke-miterlimit="10" x1="989" y1="-1" x2="989" y2="34"/>
<polyline fill="none" stroke="#E1E5ED" stroke-width="2" stroke-miterlimit="10" points="301.741,17.315 305.749,20.095 
	309.756,17.315 "/>
<path fill="#343A42" d="M581.783,448.937c0,1.1-0.9,2-2,2h-23v-25h23c1.1,0,2,0.9,2,2V448.937z"/>
<path fill="#F5F5F5" d="M572.043,432.396h-7.293v12.082h10.314v-9.082L572.043,432.396z M572.48,434.926l0.037,0.037h-0.037V434.926
	z M566.236,442.991v-9.108h4.758v2.566h2.584v6.542H566.236z"/>
<path fill="#F5F5F5" d="M571.419,583.445h-7.293v12.082h10.314v-9.082L571.419,583.445z M571.856,585.975l0.037,0.037h-0.037
	V585.975z M565.612,594.04v-9.108h4.758v2.566h2.584v6.542H565.612z"/>
<path fill="#F5F5F5" d="M571.419,620.701h-7.293v12.082h10.314v-9.082L571.419,620.701z M571.856,623.23l0.037,0.037h-0.037V623.23z
	 M565.612,631.296v-9.108h4.758v2.566h2.584v6.542H565.612z"/>
<polygon fill="#FFFFFF" points="981.023,328.878 975.955,333.946 970.889,328.878 "/>
<path fill="#343A42" d="M988.014,448.937c0,1.101-0.9,2-2,2h-23v-25h23c1.1,0,2,0.9,2,2V448.937z"/>
<polygon fill="#FFFFFF" points="980.581,436.903 975.513,441.971 970.446,436.903 "/>
<path fill="#343A42" d="M988.456,486.302c0,1.101-0.9,2-2,2h-23v-25h23c1.1,0,2,0.9,2,2V486.302z"/>
<path fill="#F5F5F5" d="M978.092,469.761h-7.293v12.082h10.314v-9.082L978.092,469.761z M978.529,472.29l0.037,0.037h-0.037V472.29z
	 M972.285,480.355v-9.108h4.758v2.566h2.584v6.542H972.285z"/>
<path fill="#343A42" d="M988.014,599.985c0,1.101-0.9,2-2,2h-23v-25h23c1.1,0,2,0.9,2,2V599.985z"/>
<path fill="#F5F5F5" d="M977.649,583.444h-7.293v12.082h10.314v-9.082L977.649,583.444z M978.087,585.974l0.037,0.037h-0.037
	V585.974z M971.843,594.039v-9.108h4.758v2.566h2.584v6.542H971.843z"/>
<rect x="588.725" y="658.48" transform="matrix(0.7072 -0.707 0.707 0.7072 -294.6758 612.6888)" fill="#313237" width="7.236" height="7.235"/>
<g>
	<path fill="#53B9D9" d="M991.693,146.412c0,1.1-0.9,2-2,2H882.731c-1.1,0-2-0.9-2-2v-21c0-1.1,0.9-2,2-2h106.962c1.1,0,2,0.9,2,2
		V146.412z"/>
</g>
<g>
	<text transform="matrix(1 0 0 0.95 895.5752 139.625)" fill="#FFFFFF" font-family="'LucidaGrande'" font-size="10">Add partner</text>
</g>
<path fill="#343A42" d="M991.932,146.412c0,1.1-0.9,2-2,2h-23v-25h23c1.1,0,2,0.9,2,2V146.412z"/>
<polygon fill="#F2F2F2" points="985.339,135.039 981.046,135.039 981.046,130.745 979.3,130.745 979.3,135.039 975.006,135.039 
	975.006,136.785 979.3,136.785 979.3,141.079 981.046,141.079 981.046,136.785 985.339,136.785 "/>
<g>
	<path fill="#A8A8A8" d="M25.461,470.582c-1.261,0.002-2.374,0.583-3.133,1.477l0.003-0.031v-0.001
		c-0.69,0.704-1.647,1.146-2.704,1.147c-1.047,0.002-1.995-0.42-2.678-1.107v0.001c-0.757-0.891-1.869-1.471-3.132-1.467
		c-2.272,0.002-4.122,1.854-4.122,4.132c0,2.28,1.845,4.123,4.122,4.117c1.258,0.002,2.376-0.582,3.131-1.477v0.001
		c0.683-0.686,1.631-1.109,2.678-1.114c1.062,0,2.018,0.437,2.704,1.14l0.001-0.029c0.756,0.888,1.87,1.464,3.127,1.463
		c2.278-0.006,4.122-1.854,4.122-4.135C29.581,472.421,27.736,470.579,25.461,470.582z M14.581,477.185h-0.998v-3.418h-1.166v-0.663
		c0.307-0.014,0.521-0.034,0.645-0.062c0.195-0.043,0.354-0.13,0.477-0.26c0.084-0.089,0.148-0.208,0.191-0.355
		c0.025-0.089,0.038-0.155,0.038-0.198h0.813V477.185z M26.963,476.521c-0.254,0.442-0.697,0.663-1.328,0.663
		s-1.074-0.221-1.328-0.663c-0.254-0.442-0.381-1.072-0.381-1.89s0.127-1.449,0.381-1.894c0.254-0.444,0.697-0.667,1.328-0.667
		s1.074,0.222,1.328,0.667c0.254,0.444,0.381,1.076,0.381,1.894S27.217,476.08,26.963,476.521z"/>
	<path fill="#A8A8A8" d="M25.635,472.875c-0.29,0-0.481,0.144-0.574,0.431s-0.14,0.729-0.14,1.326c0,0.57,0.047,1.005,0.14,1.307
		c0.093,0.302,0.285,0.453,0.574,0.453s0.479-0.151,0.569-0.453c0.09-0.302,0.135-0.737,0.135-1.307
		c0-0.597-0.045-1.039-0.135-1.326C26.114,473.018,25.925,472.875,25.635,472.875z"/>
</g>
<line fill="none" stroke="#757677" stroke-width="0.75" stroke-miterlimit="10" x1="989" y1="210.687" x2="989" y2="245.687"/>
<line fill="none" stroke="#757677" stroke-width="0.75" stroke-miterlimit="10" x1="952.804" y1="210.687" x2="952.804" y2="245.687"/>
<line fill="none" stroke="#D2D5D8" stroke-width="0.75" stroke-miterlimit="10" x1="952.804" y1="175.138" x2="952.804" y2="210.138"/>
<line fill="none" stroke="#D2D5D8" stroke-width="0.75" stroke-miterlimit="10" x1="989" y1="175.138" x2="989" y2="210.138"/>
<g>
	<text transform="matrix(1 0 0 1 194.5244 412.8765)" fill="#F2F2F2" font-family="'LucidaGrande'" font-size="8">ON</text>
</g>
<g>
	<path fill="#57C3E5" d="M226.172,519.999c0,3.851-3.15,7-7,7h-23.148c-3.851,0-7-3.149-7-7l0,0c0-3.851,3.149-7,7-7h23.148
		C223.022,512.999,226.172,516.148,226.172,519.999L226.172,519.999z"/>
</g>
<circle fill="#FFFFFF" cx="196.837" cy="519.998" r="5.163"/>
<g>
	<text transform="matrix(1 0 0 1 206.5977 522.834)" fill="#F2F2F2" font-family="'LucidaGrande'" font-size="8">OFF</text>
</g>
<g>
	<path fill="#57C3E5" d="M226.172,557c0,3.85-3.15,7-7,7h-23.148c-3.851,0-7-3.15-7-7l0,0c0-3.85,3.149-7,7-7h23.148
		C223.022,550,226.172,553.15,226.172,557L226.172,557z"/>
</g>
<circle fill="#FFFFFF" cx="218.171" cy="557" r="5.163"/>
<g>
	<text transform="matrix(1 0 0 1 194.5239 560.168)" fill="#F2F2F2" font-family="'LucidaGrande'" font-size="8">ON</text>
</g>
</svg>
