<?xml version="1.0" encoding="utf-8"?>
<!-- Generator: Adobe Illustrator 16.0.1, SVG Export Plug-In . SVG Version: 6.00 Build 0)  -->
<!DOCTYPE svg PUBLIC "-//W3C//DTD SVG 1.1//EN" "http://www.w3.org/Graphics/SVG/1.1/DTD/svg11.dtd">
<svg version="1.1" id="Attract-logo" xmlns="http://www.w3.org/2000/svg" xmlns:xlink="http://www.w3.org/1999/xlink" x="0px"
	 y="0px" width="125px" height="125px" viewBox="0 0 125 125" enable-background="new 0 0 125 125" xml:space="preserve">
<g id="Logo_2_">
	<path fill="#1A1A1A" d="M56.639,25.071L56.639,25.071c-0.307,0.458-0.784,0.8-1.364,0.918c-0.594,0.12-1.175-0.017-1.635-0.331
		l0.004,0.017c-0.521-0.408-1.205-0.604-1.906-0.46c-1.269,0.254-2.087,1.487-1.829,2.752c0.257,1.263,1.492,2.079,2.757,1.825
		c0.704-0.144,1.258-0.588,1.576-1.168l0.003,0.017l0.001,0c0.303-0.467,0.786-0.818,1.375-0.938
		c0.58-0.118,1.158,0.011,1.614,0.314v0c0.522,0.411,1.208,0.604,1.908,0.463c1.265-0.255,2.084-1.487,1.827-2.751
		c-0.258-1.264-1.492-2.081-2.757-1.825C57.512,24.044,56.957,24.492,56.639,25.071z"/>
	<path fill="#1A1A1A" d="M94.654,112.102c0.791,0.792,0.791,2.08,0,2.875c-0.797,0.792-2.089,0.792-2.881-0.001
		c-0.795-0.794-0.796-2.082,0-2.874C92.565,111.308,93.857,111.308,94.654,112.102z"/>
	<path fill="#1A1A1A" d="M83.542,30.954l-0.001-0.002c0.156,0.521,0.115,1.102-0.162,1.617c-0.283,0.526-0.752,0.88-1.284,1.033
		l0.016,0.008c-0.644,0.137-1.224,0.534-1.561,1.155c-0.604,1.125-0.182,2.526,0.943,3.131c1.13,0.604,2.533,0.184,3.137-0.942
		c0.337-0.622,0.347-1.324,0.107-1.934l0.013,0.007l0.001-0.001c-0.164-0.526-0.128-1.113,0.154-1.637
		c0.277-0.516,0.742-0.873,1.263-1.027l-0.004-0.001c0.645-0.136,1.226-0.534,1.563-1.156c0.604-1.124,0.182-2.526-0.944-3.13
		c-1.125-0.603-2.529-0.182-3.136,0.941C83.313,29.638,83.304,30.343,83.542,30.954z"/>
	<path fill="#1A1A1A" d="M103.225,105.317l0.002-0.002c-1.187-0.314-2.254-1.087-2.918-2.232c-0.673-1.165-0.798-2.494-0.458-3.693
		l-0.037,0.02c0.498-1.393,0.426-2.982-0.371-4.362c-1.446-2.497-4.645-3.354-7.15-1.911c-2.501,1.441-3.357,4.636-1.915,7.135
		c0.8,1.381,2.142,2.236,3.601,2.502l-0.033,0.018l0.002,0.002c1.208,0.311,2.297,1.081,2.97,2.244
		c0.664,1.147,0.8,2.455,0.481,3.642l0.002-0.003c-0.503,1.396-0.431,2.986,0.367,4.369c1.447,2.498,4.646,3.354,7.151,1.912
		c2.501-1.442,3.356-4.635,1.915-7.134C106.031,106.438,104.688,105.581,103.225,105.317z"/>
	<path fill="#1A1A1A" d="M37.675,81.244h-0.002c0.594,0.602,0.959,1.43,0.951,2.341c-0.006,0.926-0.397,1.758-1.019,2.352h0.03
		c-0.783,0.652-1.296,1.621-1.304,2.717c-0.016,1.984,1.585,3.605,3.57,3.621c1.991,0.016,3.615-1.582,3.63-3.566
		c0.009-1.098-0.489-2.07-1.263-2.736h0.028V85.97c-0.61-0.602-0.988-1.439-0.981-2.363c0.011-0.912,0.386-1.734,0.99-2.326h-0.001
		c0.782-0.654,1.296-1.621,1.304-2.721c0.016-1.983-1.581-3.605-3.571-3.621c-1.985-0.015-3.611,1.581-3.626,3.565
		C36.403,79.603,36.899,80.578,37.675,81.244z"/>
	<path fill="#1A1A1A" d="M107.25,97.024h0.002c-0.621-0.594-1.013-1.425-1.03-2.348c-0.019-0.94,0.356-1.795,0.965-2.415h-0.025
		c0.775-0.685,1.267-1.679,1.244-2.79c-0.037-2.016-1.705-3.615-3.723-3.578c-2.02,0.041-3.624,1.705-3.582,3.719
		c0.021,1.113,0.552,2.089,1.354,2.742l-0.027,0.001v0.002c0.635,0.597,1.041,1.435,1.059,2.37c0.017,0.926-0.34,1.771-0.938,2.389
		l0.001-0.001c-0.774,0.685-1.271,1.683-1.249,2.797c0.039,2.015,1.71,3.614,3.725,3.577c2.019-0.041,3.624-1.704,3.585-3.72
		C108.586,98.655,108.057,97.679,107.25,97.024z"/>
	<path fill="#1A1A1A" d="M80.662,29.948c0.933,0.927,0.933,2.435,0,3.365c-0.931,0.929-2.44,0.929-3.368,0
		c-0.932-0.93-0.932-2.437,0-3.364C78.221,29.018,79.731,29.018,80.662,29.948z"/>
	<path fill="#1A1A1A" d="M41.296,11.818c0.734,0.729,0.734,1.916-0.001,2.645c-0.73,0.731-1.919,0.731-2.649,0
		c-0.73-0.729-0.73-1.916-0.001-2.645C39.376,11.086,40.564,11.086,41.296,11.818z"/>
	<path fill="#1A1A1A" d="M60.157,21.241L60.157,21.241c0.11,0.538,0.012,1.119-0.314,1.611c-0.331,0.501-0.841,0.816-1.389,0.918
		l0.015,0.011c-0.659,0.079-1.278,0.424-1.674,1.017c-0.717,1.075-0.419,2.524,0.654,3.237c1.078,0.711,2.53,0.418,3.243-0.657
		c0.396-0.593,0.474-1.3,0.287-1.936l0.013,0.009l0.001-0.001c-0.113-0.544-0.023-1.133,0.312-1.633
		c0.326-0.494,0.824-0.808,1.362-0.917l0,0c0.656-0.078,1.282-0.423,1.679-1.019c0.712-1.076,0.419-2.524-0.659-3.238
		c-1.078-0.712-2.527-0.418-3.244,0.657C60.047,19.898,59.973,20.605,60.157,21.241z"/>
	<path fill="#1A1A1A" d="M49.855,22.366c0.823,0.823,0.823,2.157-0.001,2.982c-0.824,0.823-2.163,0.823-2.988,0
		c-0.823-0.825-0.823-2.159-0.001-2.982C47.691,21.542,49.03,21.542,49.855,22.366z"/>
	<path fill="#1A1A1A" d="M104.172,45.938c1.472,1.468,1.472,3.853-0.001,5.324c-1.474,1.468-3.86,1.468-5.333,0
		c-1.473-1.471-1.475-3.855-0.001-5.323C100.311,44.468,102.697,44.468,104.172,45.938z"/>
	<path fill="#1A1A1A" d="M104.942,30.124c0.904,0.907,0.904,2.375-0.001,3.281c-0.908,0.907-2.382,0.907-3.287,0
		c-0.908-0.905-0.908-2.374-0.001-3.281C102.56,29.218,104.033,29.218,104.942,30.124z"/>
	<path fill="#1A1A1A" d="M100.224,87.773L100.224,87.773c0.093-0.908,0.531-1.78,1.296-2.403c0.773-0.635,1.738-0.882,2.658-0.779
		l-0.018-0.021c1.083,0.196,2.244-0.047,3.16-0.797c1.661-1.357,1.909-3.803,0.55-5.463c-1.36-1.659-3.811-1.905-5.474-0.549
		c-0.92,0.751-1.389,1.836-1.408,2.936l-0.017-0.02h-0.001c-0.084,0.921-0.52,1.811-1.295,2.443
		c-0.763,0.622-1.707,0.877-2.618,0.786l0.001,0.001c-1.087-0.2-2.244,0.043-3.167,0.795c-1.662,1.357-1.909,3.802-0.549,5.463
		c1.359,1.66,3.81,1.905,5.473,0.549C99.737,89.962,100.205,88.875,100.224,87.773z"/>
	<path fill="#1A1A1A" d="M85.416,56.036c1.473,1.47,1.473,3.854-0.001,5.324c-1.473,1.47-3.859,1.47-5.332-0.001
		c-1.474-1.468-1.475-3.853-0.002-5.323C81.555,54.567,83.942,54.567,85.416,56.036z"/>
	<path fill="#1A1A1A" d="M85.41,49.387c0.7,0.699,0.7,1.835,0,2.535c-0.701,0.701-1.837,0.701-2.542,0c-0.7-0.699-0.7-1.835,0-2.534
		C83.573,48.688,84.709,48.688,85.41,49.387z"/>
	<path fill="#1A1A1A" d="M92.344,40.129c0.93,0.931,0.93,2.446-0.001,3.379c-0.936,0.932-2.451,0.932-3.386-0.001
		c-0.936-0.932-0.936-2.447-0.002-3.378C89.892,39.196,91.407,39.196,92.344,40.129z"/>
	<path fill="#1A1A1A" d="M86.472,39.466c0.7,0.699,0.7,1.835,0,2.535c-0.7,0.699-1.841,0.699-2.541,0
		c-0.701-0.699-0.701-1.835-0.001-2.534C84.631,38.767,85.771,38.767,86.472,39.466z"/>
	<path fill="#1A1A1A" d="M33.593,81.573c1.277,1.277,1.277,3.351-0.001,4.629c-1.278,1.276-3.357,1.276-4.637,0
		c-1.278-1.278-1.279-3.352-0.002-4.629C30.233,80.296,32.313,80.296,33.593,81.573z"/>
	<path fill="#1A1A1A" d="M89.963,112.745L89.963,112.745c0.011-0.641,0.268-1.28,0.768-1.763c0.509-0.489,1.166-0.718,1.82-0.7
		l-0.015-0.015c0.773,0.075,1.572-0.163,2.171-0.742c1.087-1.049,1.117-2.78,0.064-3.865c-1.049-1.084-2.783-1.114-3.87-0.065
		c-0.6,0.581-0.866,1.368-0.816,2.143l-0.014-0.014l-0.001,0.001c-0.004,0.649-0.258,1.301-0.766,1.789
		c-0.497,0.48-1.146,0.715-1.789,0.704l0,0c-0.771-0.076-1.57,0.16-2.176,0.742c-1.083,1.049-1.115,2.78-0.063,3.863
		c1.052,1.086,2.783,1.115,3.87,0.065C89.751,114.31,90.017,113.519,89.963,112.745z"/>
	<path fill="#1A1A1A" d="M92.533,104.837L92.533,104.837c-0.645,0.002-1.286-0.24-1.781-0.729c-0.5-0.498-0.742-1.15-0.737-1.804
		L90,102.321c0.059-0.773-0.196-1.563-0.787-2.152c-1.075-1.062-2.81-1.057-3.876,0.013c-1.062,1.071-1.057,2.802,0.017,3.865
		c0.593,0.587,1.388,0.837,2.158,0.771l-0.012,0.013l0,0c0.653-0.008,1.31,0.232,1.807,0.729c0.494,0.488,0.743,1.129,0.744,1.771
		h0.001c-0.063,0.773,0.191,1.566,0.789,2.154c1.073,1.063,2.805,1.059,3.87-0.014c1.066-1.07,1.061-2.801-0.013-3.863
		C94.106,105.019,93.309,104.77,92.533,104.837z"/>
	<path fill="#1A1A1A" d="M88.234,106.278c0.727,0.727,0.727,1.906,0,2.635c-0.73,0.729-1.911,0.728-2.642,0
		c-0.728-0.729-0.729-1.908,0-2.635C86.323,105.553,87.504,105.553,88.234,106.278z"/>
	<circle fill="#1A1A1A" cx="96.731" cy="114.784" r="0.875"/>
	<path fill="#1A1A1A" d="M43.101,113.86L43.101,113.86c0.059-0.602,0.352-1.186,0.861-1.6c0.518-0.422,1.155-0.59,1.772-0.52
		l-0.013-0.016c0.721,0.132,1.493-0.029,2.104-0.53c1.107-0.903,1.271-2.534,0.367-3.639c-0.907-1.105-2.54-1.269-3.647-0.365
		c-0.61,0.499-0.926,1.223-0.938,1.954l-0.012-0.014v0.002c-0.055,0.613-0.344,1.207-0.861,1.627
		c-0.51,0.415-1.138,0.586-1.745,0.525h0.001c-0.724-0.133-1.497,0.027-2.109,0.527c-1.107,0.906-1.274,2.534-0.367,3.642
		c0.907,1.106,2.54,1.268,3.647,0.364C42.773,115.321,43.085,114.595,43.101,113.86z"/>
	<path fill="#1A1A1A" d="M46.735,57.057c0.908,0.907,0.908,2.375-0.001,3.281c-0.909,0.907-2.378,0.907-3.287,0
		c-0.909-0.905-0.909-2.374-0.001-3.281C44.356,56.151,45.825,56.151,46.735,57.057z"/>
	<path fill="#1A1A1A" d="M69.152,62.094c0.908,0.905,0.908,2.375-0.001,3.282c-0.908,0.904-2.378,0.904-3.287-0.001
		s-0.909-2.376-0.001-3.281C66.773,61.188,68.243,61.188,69.152,62.094z"/>
	<path fill="#1A1A1A" d="M70.323,95.837c0.905,0.904,0.905,2.373,0,3.281c-0.91,0.904-2.382,0.904-3.287,0
		c-0.91-0.908-0.91-2.377-0.001-3.281C67.94,94.929,69.413,94.929,70.323,95.837z"/>
	<circle fill="#1A1A1A" cx="86.52" cy="12.97" r="1.961"/>
	<path fill="#1A1A1A" d="M108.069,53.293c0.904,0.907,0.904,2.376,0,3.282c-0.909,0.907-2.382,0.907-3.287,0
		c-0.909-0.905-0.909-2.374-0.001-3.281C105.687,52.388,107.16,52.388,108.069,53.293z"/>
	<path fill="#1A1A1A" d="M94.11,74.741c0.904,0.906,0.904,2.377-0.001,3.282c-0.909,0.905-2.382,0.905-3.287-0.001
		c-0.908-0.904-0.908-2.375-0.001-3.281C91.728,73.836,93.2,73.836,94.11,74.741z"/>
	<path fill="#1A1A1A" d="M20.028,79.927c0.904,0.906,0.904,2.377,0,3.282c-0.91,0.905-2.382,0.905-3.287-0.001
		c-0.909-0.904-0.909-2.375-0.001-3.281C17.646,79.021,19.118,79.021,20.028,79.927z"/>
	<path fill="#1A1A1A" d="M47.008,12.741c0.7,0.699,0.7,1.835-0.001,2.535c-0.7,0.699-1.835,0.699-2.536,0
		c-0.704-0.7-0.704-1.836-0.001-2.535C45.171,12.042,46.307,12.042,47.008,12.741z"/>
	<path fill="#1A1A1A" d="M63.53,7.324c0.588,0.587,0.588,1.54,0,2.13c-0.589,0.588-1.543,0.588-2.136,0
		c-0.588-0.589-0.588-1.542-0.001-2.129C61.986,6.735,62.941,6.735,63.53,7.324z"/>
	<circle fill="#1A1A1A" cx="79.678" cy="23.129" r="1.793"/>
	<circle fill="#1A1A1A" cx="33.598" cy="36.379" r="1.793"/>
	<path fill="#1A1A1A" d="M28.752,96.21c0.7,0.698,0.7,1.834,0,2.534c-0.705,0.698-1.841,0.698-2.542-0.001
		c-0.7-0.699-0.7-1.835,0-2.533C26.911,95.509,28.047,95.509,28.752,96.21z"/>
	<path fill="#1A1A1A" d="M51.842,61.194c0.704,0.699,0.704,1.835,0,2.535c-0.7,0.699-1.836,0.699-2.537,0
		c-0.701-0.7-0.701-1.836-0.001-2.535C50.006,60.495,51.142,60.495,51.842,61.194z"/>
	<path fill="#1A1A1A" d="M54.727,51.962L54.727,51.962c-0.333,0.431-0.829,0.737-1.411,0.815c-0.591,0.078-1.155-0.096-1.59-0.437
		l0.002,0.019c-0.488-0.44-1.151-0.678-1.853-0.585c-1.267,0.17-2.159,1.333-1.987,2.597c0.168,1.266,1.331,2.155,2.602,1.986
		c0.701-0.093,1.277-0.496,1.63-1.046l0.005,0.016l0.002-0.001c0.329-0.439,0.83-0.754,1.419-0.833
		c0.581-0.078,1.14,0.088,1.571,0.418v-0.001c0.489,0.44,1.154,0.68,1.855,0.587c1.267-0.169,2.159-1.333,1.99-2.596
		c-0.172-1.267-1.335-2.156-2.604-1.988C55.655,51.006,55.079,51.41,54.727,51.962z"/>
	<path fill="#1A1A1A" d="M98.008,74.854L98.008,74.854c0.155,0.519,0.115,1.1-0.163,1.615c-0.282,0.524-0.756,0.88-1.283,1.032
		l0.015,0.01c-0.644,0.137-1.224,0.532-1.561,1.154c-0.604,1.125-0.182,2.525,0.943,3.131c1.126,0.604,2.533,0.184,3.137-0.942
		c0.337-0.622,0.347-1.324,0.107-1.935l0.013,0.008l0.001-0.002c-0.164-0.523-0.128-1.113,0.154-1.637
		c0.278-0.516,0.738-0.87,1.26-1.027l-0.001-0.002c0.645-0.136,1.226-0.533,1.563-1.155c0.604-1.124,0.182-2.526-0.943-3.129
		c-1.126-0.604-2.533-0.184-3.136,0.94C97.776,73.537,97.767,74.243,98.008,74.854z"/>
	<path fill="#1A1A1A" d="M95.006,78.855L95.006,78.855c-0.245,0.484-0.675,0.878-1.232,1.062c-0.565,0.188-1.152,0.122-1.645-0.132
		l0.006,0.016c-0.561-0.342-1.256-0.453-1.928-0.229c-1.215,0.401-1.874,1.709-1.472,2.919c0.402,1.213,1.715,1.871,2.929,1.47
		c0.671-0.222,1.161-0.727,1.408-1.333l0.006,0.017v-0.001c0.243-0.496,0.676-0.896,1.24-1.084c0.557-0.184,1.136-0.125,1.624,0.121
		v-0.002c0.562,0.342,1.257,0.452,1.93,0.23c1.214-0.4,1.874-1.709,1.472-2.92c-0.401-1.213-1.714-1.869-2.929-1.468
		C95.747,77.743,95.252,78.247,95.006,78.855z"/>
	<path fill="#1A1A1A" d="M90.487,85.239c0.909,0.905,0.909,2.374,0,3.281c-0.909,0.905-2.378,0.905-3.287,0
		c-0.909-0.907-0.909-2.376-0.001-3.281C88.108,84.332,89.578,84.332,90.487,85.239z"/>
	<path fill="#1A1A1A" d="M88.601,73.721c1.473,1.47,1.473,3.854-0.001,5.324c-1.469,1.469-3.858,1.469-5.332-0.001
		c-1.469-1.469-1.47-3.854-0.002-5.323C84.74,72.251,87.131,72.251,88.601,73.721z"/>
	<path fill="#1A1A1A" d="M87.519,69.3c1.091,1.088,1.091,2.855,0,3.945c-1.092,1.089-2.862,1.089-3.953,0
		c-1.087-1.09-1.089-2.857-0.001-3.945C84.656,68.212,86.427,68.212,87.519,69.3z"/>
	<path fill="#1A1A1A" d="M89.61,66.42c0.7,0.701,0.7,1.835-0.001,2.535c-0.7,0.7-1.84,0.7-2.541-0.001
		c-0.7-0.699-0.7-1.833-0.001-2.534C87.769,65.721,88.909,65.721,89.61,66.42z"/>
	<path fill="#1A1A1A" d="M92.438,89.724c0.703,0.7,0.703,1.836-0.001,2.535c-0.7,0.701-1.835,0.701-2.537,0
		c-0.701-0.699-0.701-1.835-0.001-2.535C90.6,89.024,91.736,89.024,92.438,89.724z"/>
	<circle fill="#1A1A1A" cx="31.803" cy="15.801" r="0.79"/>
	<path fill="#1A1A1A" d="M108.343,75.116c0.7,0.699,0.7,1.833,0,2.535c-0.7,0.698-1.841,0.698-2.541-0.001
		c-0.701-0.701-0.701-1.835-0.001-2.534C106.502,74.414,107.643,74.414,108.343,75.116z"/>
	<path fill="#1A1A1A" d="M24.633,19.708c0.312,0.309,0.312,0.808,0,1.116c-0.308,0.308-0.805,0.308-1.116,0
		c-0.309-0.308-0.309-0.807-0.001-1.116C23.828,19.4,24.325,19.4,24.633,19.708z"/>
	<path fill="#1A1A1A" d="M108.365,103.435c0.768,0.77,0.768,2.017,0,2.788c-0.773,0.769-2.022,0.769-2.795-0.001
		c-0.769-0.771-0.769-2.018-0.001-2.787C106.343,102.665,107.592,102.665,108.365,103.435z"/>
	<path fill="#1A1A1A" d="M84.057,94.821L84.057,94.821c-0.326,0.433-0.822,0.741-1.403,0.821c-0.594,0.083-1.158-0.088-1.595-0.426
		l0.003,0.017c-0.487-0.438-1.152-0.671-1.853-0.574c-1.27,0.176-2.153,1.342-1.979,2.608c0.175,1.263,1.346,2.146,2.611,1.97
		c0.701-0.096,1.279-0.502,1.629-1.055l0.002,0.016l0.001-0.001c0.331-0.441,0.826-0.759,1.419-0.841
		c0.58-0.08,1.141,0.082,1.573,0.411v-0.001c0.492,0.437,1.157,0.673,1.858,0.574c1.266-0.174,2.147-1.342,1.974-2.605
		c-0.175-1.264-1.346-2.147-2.611-1.973C84.985,93.86,84.411,94.268,84.057,94.821z"/>
	<path fill="#1A1A1A" d="M72.03,24.183c1.214,1.211,1.214,3.178-0.001,4.391c-1.214,1.209-3.181,1.209-4.396,0
		c-1.214-1.213-1.215-3.179-0.001-4.39C68.848,22.972,70.815,22.972,72.03,24.183z"/>
	<path fill="#1A1A1A" d="M76.098,26.704c0.904,0.907,0.904,2.375,0,3.281c-0.909,0.907-2.383,0.907-3.288,0
		c-0.908-0.905-0.908-2.374,0-3.281C73.715,25.798,75.188,25.798,76.098,26.704z"/>
	<circle fill="#1A1A1A" cx="72.984" cy="20.641" r="1.793"/>
	<circle fill="#1A1A1A" cx="53.423" cy="14.009" r="1.739"/>
	<path fill="#1A1A1A" d="M98.008,48.403c0.908,0.905,0.908,2.375,0,3.281c-0.909,0.905-2.379,0.905-3.288,0
		c-0.908-0.905-0.908-2.376,0-3.281C95.629,47.497,97.099,47.497,98.008,48.403z"/>
	<circle fill="#1A1A1A" cx="49.861" cy="11.27" r="1.26"/>
	<circle fill="#1A1A1A" cx="88.339" cy="20.95" r="1.26"/>
	<circle fill="#1A1A1A" cx="31.802" cy="26.846" r="1.26"/>
	<circle fill="#1A1A1A" cx="38.711" cy="15.801" r="1.26"/>
	<path fill="#1A1A1A" d="M83.235,25.956c0.493,0.493,0.493,1.289,0,1.78c-0.494,0.493-1.288,0.493-1.782,0
		c-0.494-0.491-0.494-1.287-0.001-1.78C81.947,25.466,82.741,25.466,83.235,25.956z"/>
	<path fill="#1A1A1A" d="M94.319,21.979L94.319,21.979c-0.346,0.062-0.717-0.01-1.028-0.227c-0.319-0.221-0.512-0.551-0.572-0.903
		l-0.006,0.009c-0.04-0.422-0.249-0.827-0.625-1.089c-0.68-0.473-1.616-0.309-2.09,0.369c-0.477,0.679-0.312,1.613,0.367,2.087
		c0.377,0.262,0.829,0.323,1.239,0.214L91.6,22.447l0.001,0c0.353-0.066,0.73,0.002,1.045,0.223c0.312,0.22,0.508,0.541,0.567,0.888
		l0.001,0c0.038,0.425,0.252,0.827,0.629,1.09c0.679,0.475,1.611,0.31,2.089-0.369c0.474-0.678,0.309-1.613-0.371-2.087
		C95.184,21.931,94.731,21.871,94.319,21.979z"/>
	<path fill="#1A1A1A" d="M32.34,29.929c0.729,0.729,0.729,1.916-0.001,2.645c-0.735,0.731-1.919,0.731-2.654,0
		c-0.73-0.729-0.73-1.916-0.001-2.645C30.42,29.197,31.604,29.197,32.34,29.929z"/>
	<path fill="#1A1A1A" d="M35.241,29.611c0.91,0.905,0.91,2.375,0,3.281c-0.909,0.905-2.377,0.905-3.287,0
		c-0.909-0.905-0.909-2.376-0.001-3.281C32.863,28.706,34.332,28.706,35.241,29.611z"/>
	<path fill="#1A1A1A" d="M37.769,33.698c0.491,0.491,0.491,1.289,0,1.78c-0.492,0.491-1.291,0.491-1.785,0
		c-0.49-0.492-0.49-1.29-0.001-1.78C36.478,33.205,37.276,33.205,37.769,33.698z"/>
	<path fill="#1A1A1A" d="M90.136,35.616L90.136,35.616c-0.349,0.062-0.72-0.009-1.031-0.229c-0.316-0.221-0.512-0.551-0.568-0.904
		l-0.006,0.009c-0.044-0.422-0.253-0.826-0.63-1.089c-0.68-0.474-1.615-0.307-2.089,0.371c-0.477,0.678-0.308,1.611,0.371,2.085
		c0.373,0.263,0.828,0.323,1.239,0.214l-0.005,0.01v0c0.35-0.066,0.727,0.002,1.042,0.222c0.315,0.217,0.508,0.542,0.566,0.888
		h0.001c0.043,0.423,0.253,0.828,0.63,1.09c0.679,0.474,1.615,0.308,2.088-0.371c0.478-0.678,0.312-1.611-0.367-2.085
		C91,35.567,90.548,35.507,90.136,35.616z"/>
	<path fill="#1A1A1A" d="M41.804,29.531L41.804,29.531c-0.194,0.292-0.506,0.508-0.876,0.582c-0.381,0.075-0.754-0.014-1.049-0.216
		l0.002,0.011c-0.331-0.264-0.772-0.39-1.222-0.302c-0.813,0.16-1.343,0.949-1.183,1.761c0.164,0.81,0.951,1.339,1.764,1.179
		c0.453-0.09,0.808-0.374,1.017-0.743l0.002,0.01l0.001,0c0.193-0.298,0.503-0.523,0.883-0.597c0.375-0.074,0.744,0.01,1.036,0.207
		V31.42c0.332,0.265,0.771,0.393,1.223,0.305c0.813-0.161,1.343-0.949,1.179-1.761c-0.159-0.812-0.949-1.34-1.763-1.178
		C42.367,28.874,42.013,29.158,41.804,29.531z"/>
	<path fill="#1A1A1A" d="M41.901,32.427c0.308,0.309,0.308,0.808-0.001,1.115c-0.311,0.309-0.809,0.309-1.116,0
		c-0.312-0.307-0.312-0.806-0.001-1.115C41.091,32.12,41.59,32.12,41.901,32.427z"/>
	<path fill="#1A1A1A" d="M48.354,28.571c0.7,0.699,0.7,1.833,0,2.535c-0.701,0.699-1.84,0.699-2.542,0c-0.7-0.702-0.7-1.835,0-2.535
		C46.515,27.87,47.653,27.87,48.354,28.571z"/>
	<path fill="#1A1A1A" d="M45.85,27.488c0.307,0.307,0.307,0.808,0,1.115c-0.312,0.309-0.81,0.309-1.121,0
		c-0.309-0.308-0.309-0.808,0-1.115C45.04,27.179,45.538,27.179,45.85,27.488z"/>
	<circle fill="#1A1A1A" cx="27.398" cy="19.158" r="1.739"/>
	<path fill="#1A1A1A" d="M33.165,20.98c0.489,0.491,0.489,1.287,0,1.78c-0.493,0.491-1.292,0.491-1.782,0
		c-0.494-0.493-0.494-1.289-0.001-1.78C31.873,20.487,32.672,20.487,33.165,20.98z"/>
	<circle fill="#1A1A1A" cx="35.392" cy="20.417" r="0.79"/>
	<circle fill="#1A1A1A" cx="39.398" cy="20.895" r="1.26"/>
	<path fill="#1A1A1A" d="M38.343,22.238c0.489,0.491,0.489,1.289,0,1.78c-0.494,0.491-1.293,0.491-1.783,0
		c-0.494-0.491-0.494-1.289,0-1.78C37.05,21.747,37.849,21.747,38.343,22.238z"/>
	<circle fill="#1A1A1A" cx="43.217" cy="22.742" r="1.873"/>
	<path fill="#1A1A1A" d="M42.232,24.028c0.493,0.491,0.493,1.289,0,1.78c-0.49,0.491-1.29,0.491-1.784,0
		c-0.489-0.492-0.489-1.29,0-1.78C40.942,23.538,41.742,23.538,42.232,24.028z"/>
	<path fill="#1A1A1A" d="M41.901,26.289c0.308,0.309,0.308,0.808,0,1.117c-0.312,0.306-0.81,0.306-1.117,0
		c-0.312-0.31-0.312-0.809,0-1.117C41.092,25.981,41.59,25.981,41.901,26.289z"/>
	<path fill="#1A1A1A" d="M26.475,23.299c0.308,0.307,0.308,0.806-0.001,1.115c-0.307,0.307-0.809,0.307-1.116,0
		c-0.312-0.31-0.312-0.808-0.001-1.115C25.664,22.99,26.167,22.99,26.475,23.299z"/>
	<path fill="#1A1A1A" d="M28.597,25.488c0.494,0.491,0.494,1.287,0,1.78c-0.489,0.491-1.288,0.491-1.782,0
		c-0.49-0.493-0.49-1.289-0.001-1.78C27.309,24.995,28.107,24.995,28.597,25.488z"/>
	<path fill="#1A1A1A" d="M29.848,22.571c0.308,0.307,0.308,0.808,0,1.115c-0.311,0.309-0.809,0.309-1.12,0
		c-0.309-0.308-0.309-0.809-0.001-1.115C29.039,22.262,29.537,22.262,29.848,22.571z"/>
	<circle fill="#1A1A1A" cx="28.277" cy="24.099" r="0.57"/>
	<path fill="#1A1A1A" d="M29.405,28.433c0.312,0.307,0.312,0.806,0,1.115c-0.308,0.307-0.81,0.307-1.117,0
		c-0.308-0.309-0.308-0.808,0-1.115C28.596,28.124,29.098,28.124,29.405,28.433z"/>
	<path fill="#1A1A1A" d="M51.522,20.143L51.522,20.143c-0.336,0.104-0.713,0.078-1.051-0.1c-0.34-0.183-0.573-0.485-0.672-0.829
		l-0.008,0.009c-0.089-0.414-0.349-0.791-0.753-1.005c-0.73-0.387-1.642-0.109-2.031,0.62c-0.39,0.731-0.111,1.638,0.623,2.027
		c0.404,0.215,0.86,0.219,1.256,0.063l-0.005,0.009h0.001c0.338-0.108,0.722-0.084,1.064,0.095c0.334,0.179,0.567,0.476,0.667,0.812
		h0.002c0.091,0.416,0.351,0.792,0.756,1.007c0.73,0.389,1.642,0.112,2.03-0.62c0.39-0.73,0.112-1.637-0.622-2.026
		C52.375,19.99,51.92,19.986,51.522,20.143z"/>
	<path fill="#1A1A1A" d="M55.086,20.275L55.086,20.275c-0.22,0.273-0.549,0.462-0.93,0.502c-0.381,0.039-0.745-0.084-1.021-0.312
		l0.002,0.011c-0.307-0.292-0.731-0.458-1.19-0.413c-0.823,0.085-1.421,0.822-1.339,1.645c0.087,0.823,0.824,1.421,1.648,1.337
		c0.458-0.048,0.84-0.299,1.078-0.648l0.001,0.01h0.001c0.223-0.279,0.552-0.473,0.937-0.513c0.379-0.04,0.739,0.078,1.013,0.3v0
		c0.308,0.295,0.731,0.462,1.188,0.414c0.824-0.084,1.426-0.822,1.338-1.644c-0.086-0.823-0.822-1.42-1.646-1.335
		C55.709,19.675,55.327,19.924,55.086,20.275z"/>
	<path fill="#1A1A1A" d="M55.41,22.771c0.488,0.491,0.488,1.289,0,1.78c-0.494,0.491-1.293,0.491-1.786,0
		c-0.49-0.491-0.49-1.289-0.002-1.78C54.117,22.28,54.916,22.28,55.41,22.771z"/>
	<path fill="#1A1A1A" d="M63.999,26.549c0.494,0.491,0.494,1.289,0,1.78c-0.49,0.491-1.289,0.491-1.783,0
		c-0.49-0.491-0.49-1.289-0.001-1.78C62.71,26.058,63.509,26.058,63.999,26.549z"/>
	<circle fill="#1A1A1A" cx="64.37" cy="26.338" r="0.789"/>
	<circle fill="#1A1A1A" cx="34.071" cy="14.009" r="0.473"/>
	<path fill="#1A1A1A" d="M36.578,24.781c0.655,0.653,0.655,1.712,0,2.367c-0.655,0.652-1.717,0.652-2.372,0
		c-0.65-0.655-0.65-1.713-0.001-2.367C34.861,24.129,35.923,24.129,36.578,24.781z"/>
	<circle fill="#1A1A1A" cx="65.847" cy="14.541" r="1.26"/>
	<path fill="#1A1A1A" d="M69.229,19.572L69.229,19.572c-0.283-0.208-0.49-0.526-0.546-0.901c-0.061-0.382,0.045-0.75,0.264-1.034
		l-0.015,0.002c0.279-0.322,0.429-0.752,0.358-1.205c-0.126-0.818-0.89-1.38-1.709-1.255c-0.819,0.125-1.386,0.89-1.261,1.707
		c0.071,0.452,0.34,0.82,0.699,1.043l-0.01,0.002l0.001,0c0.293,0.208,0.501,0.528,0.558,0.908c0.06,0.377-0.041,0.739-0.249,1.022
		v0c-0.278,0.322-0.426,0.753-0.358,1.206c0.125,0.818,0.893,1.38,1.712,1.254c0.819-0.125,1.382-0.889,1.257-1.707
		C69.858,20.164,69.589,19.794,69.229,19.572z"/>
	<circle fill="#1A1A1A" cx="72.941" cy="8.752" r="1.26"/>
	<circle fill="#1A1A1A" cx="54.517" cy="8.388" r="0.79"/>
	<path fill="#1A1A1A" d="M74.105,13.092c0.493,0.491,0.493,1.289,0,1.78c-0.489,0.49-1.288,0.49-1.782,0
		c-0.49-0.492-0.49-1.29-0.001-1.78C72.817,12.601,73.616,12.601,74.105,13.092z"/>
	<circle fill="#1A1A1A" cx="76.336" cy="12.97" r="0.79"/>
	<path fill="#1A1A1A" d="M81.23,12.118c0.492,0.491,0.492,1.289,0,1.78c-0.49,0.491-1.289,0.491-1.783,0
		c-0.49-0.491-0.49-1.289-0.001-1.78C79.941,11.627,80.74,11.627,81.23,12.118z"/>
	<path fill="#1A1A1A" d="M78.023,13.651c0.493,0.493,0.493,1.289,0,1.78c-0.494,0.493-1.289,0.493-1.782,0
		c-0.495-0.492-0.495-1.288-0.001-1.78C76.734,13.16,77.529,13.16,78.023,13.651z"/>
	<circle fill="#1A1A1A" cx="77.132" cy="17.419" r="1.674"/>
	<path fill="#1A1A1A" d="M53.366,17.154c0.489,0.491,0.489,1.287,0,1.78c-0.494,0.491-1.294,0.491-1.782,0
		c-0.495-0.494-0.495-1.29-0.001-1.78C52.072,16.661,52.872,16.661,53.366,17.154z"/>
	<path fill="#1A1A1A" d="M58.379,11.191c0.312,0.309,0.312,0.808,0,1.117c-0.308,0.307-0.81,0.307-1.117,0
		c-0.308-0.31-0.308-0.808,0-1.117C57.569,10.885,58.071,10.885,58.379,11.191z"/>
	<circle fill="#1A1A1A" cx="60.568" cy="12.27" r="0.789"/>
	<path fill="#1A1A1A" d="M58.379,15.55c0.312,0.309,0.312,0.808,0,1.116c-0.308,0.308-0.81,0.308-1.117,0
		c-0.308-0.309-0.308-0.807,0-1.116C57.569,15.243,58.071,15.243,58.379,15.55z"/>
	<path fill="#1A1A1A" d="M62.408,15.55c0.307,0.309,0.307,0.808-0.001,1.116c-0.312,0.308-0.809,0.308-1.116,0
		c-0.312-0.309-0.312-0.807,0-1.116C61.598,15.243,62.096,15.243,62.408,15.55z"/>
	<circle fill="#1A1A1A" cx="67.509" cy="9.177" r="0.789"/>
	<circle fill="#1A1A1A" cx="45.092" cy="10.01" r="0.473"/>
	<circle fill="#1A1A1A" cx="46.832" cy="9.538" r="0.472"/>
	<path fill="#1A1A1A" d="M80.672,9.205c0.188,0.185,0.188,0.482,0,0.667c-0.183,0.184-0.481,0.184-0.668,0
		c-0.184-0.185-0.184-0.483,0-0.667C80.19,9.021,80.489,9.021,80.672,9.205z"/>
	<path fill="#1A1A1A" d="M35.729,17.087c0.183,0.183,0.183,0.482,0,0.666c-0.188,0.184-0.486,0.184-0.669,0
		c-0.188-0.183-0.188-0.483,0-0.666C35.242,16.902,35.541,16.902,35.729,17.087z"/>
	<path fill="#1A1A1A" d="M89.594,47.508L89.594,47.508c-0.057,0.348-0.242,0.675-0.547,0.9c-0.315,0.228-0.688,0.304-1.042,0.246
		l0.006,0.01c-0.414-0.099-0.863-0.028-1.235,0.242c-0.668,0.489-0.812,1.428-0.32,2.095c0.487,0.667,1.428,0.811,2.097,0.321
		c0.371-0.27,0.571-0.678,0.601-1.103l0.006,0.008l0.001-0.001c0.054-0.353,0.238-0.687,0.548-0.914
		c0.311-0.224,0.676-0.303,1.026-0.25v0c0.415,0.1,0.865,0.029,1.236-0.241c0.669-0.489,0.813-1.427,0.32-2.095
		c-0.487-0.667-1.427-0.812-2.096-0.321C89.823,46.674,89.623,47.082,89.594,47.508z"/>
	<path fill="#1A1A1A" d="M84.164,45.9c0.308,0.309,0.308,0.808,0,1.115c-0.307,0.308-0.809,0.308-1.116,0
		c-0.312-0.308-0.312-0.807-0.001-1.115C83.355,45.593,83.857,45.593,84.164,45.9z"/>
	<ellipse transform="matrix(0.0038 -1 1 0.0038 -24.5593 114.3076)" fill="#1A1A1A" cx="45.091" cy="69.48" rx="4.387" ry="4.218"/>
	<ellipse transform="matrix(0.0038 -1 1 0.0038 -26.013 102.9828)" fill="#1A1A1A" cx="38.681" cy="64.547" rx="3.86" ry="3.71"/>
	<ellipse transform="matrix(0.0039 -1 1 0.0039 -20.4974 96.0384)" fill="#1A1A1A" cx="37.96" cy="58.308" rx="2.48" ry="2.382"/>
	<path fill="#1A1A1A" d="M49.133,115.315l0.001,0.002c0.057-0.582,0.337-1.141,0.827-1.539c0.493-0.404,1.11-0.564,1.698-0.498
		l-0.011-0.014c0.692,0.125,1.435-0.03,2.021-0.51c1.064-0.868,1.222-2.431,0.35-3.492c-0.868-1.061-2.433-1.219-3.498-0.352
		c-0.59,0.48-0.89,1.174-0.902,1.877l-0.011-0.014h-0.001c-0.051,0.59-0.33,1.158-0.827,1.563c-0.489,0.398-1.092,0.562-1.672,0.502
		l0.001,0.001c-0.695-0.127-1.438,0.028-2.027,0.509c-1.063,0.868-1.221,2.431-0.353,3.492c0.872,1.063,2.437,1.219,3.501,0.351
		C48.818,116.714,49.121,116.021,49.133,115.315z"/>
	<path fill="#1A1A1A" d="M52.002,101.354c1.178,1.18,1.178,3.092,0,4.27c-1.183,1.178-3.097,1.178-4.279,0
		c-1.177-1.178-1.177-3.09-0.001-4.27C48.905,100.177,50.819,100.177,52.002,101.354z"/>
	<path fill="#1A1A1A" d="M55.833,97.735c0.904,0.906,0.904,2.375-0.001,3.281c-0.908,0.906-2.382,0.906-3.287-0.001
		c-0.908-0.905-0.908-2.374-0.001-3.28C53.45,96.829,54.924,96.829,55.833,97.735z"/>
	<path fill="#1A1A1A" d="M58.434,110.712c0.456-2.719,3.133-4.541,5.974-4.065c2.84,0.476,4.773,3.067,4.317,5.786
		c-0.455,2.721-3.132,4.543-5.974,4.068C59.908,116.024,57.974,113.433,58.434,110.712z"/>
	
		<ellipse transform="matrix(-0.9863 -0.165 0.165 -0.9863 94.3431 237.4034)" fill="#1A1A1A" cx="57.031" cy="114.784" rx="3.412" ry="3.268"/>
	
		<ellipse transform="matrix(-0.9863 -0.1651 0.1651 -0.9863 84.5152 239.5009)" fill="#1A1A1A" cx="52.21" cy="116.238" rx="1.958" ry="1.874"/>
	<path fill="#1A1A1A" d="M46.824,106.59L46.824,106.59c-0.567-0.216-1.057-0.647-1.326-1.246c-0.274-0.608-0.269-1.269-0.042-1.843
		l-0.017,0.008c0.312-0.662,0.355-1.447,0.031-2.168c-0.585-1.303-2.123-1.882-3.425-1.297c-1.308,0.588-1.888,2.117-1.303,3.42
		c0.328,0.721,0.944,1.209,1.649,1.413l-0.016,0.007l0.001,0.001c0.577,0.213,1.078,0.647,1.351,1.253
		c0.27,0.598,0.271,1.25,0.058,1.818l0.001-0.001c-0.319,0.664-0.362,1.449-0.039,2.172c0.592,1.302,2.125,1.882,3.427,1.296
		c1.308-0.586,1.888-2.117,1.302-3.42C48.149,107.281,47.531,106.792,46.824,106.59z"/>
	<path fill="#1A1A1A" d="M23.374,88.929c1.472,1.469,1.472,3.854-0.001,5.322c-1.473,1.47-3.859,1.47-5.333,0
		c-1.473-1.47-1.474-3.854-0.001-5.322C19.514,87.458,21.9,87.458,23.374,88.929z"/>
	<path fill="#1A1A1A" d="M34.941,97.136c1.473,1.469,1.473,3.854-0.001,5.324c-1.473,1.468-3.859,1.468-5.332,0
		c-1.474-1.471-1.475-3.855-0.002-5.324C31.08,95.665,33.468,95.665,34.941,97.136z"/>
	<path fill="#1A1A1A" d="M25.719,85.239c0.908,0.904,0.908,2.373-0.001,3.281c-0.905,0.905-2.378,0.905-3.287,0
		c-0.905-0.908-0.905-2.377-0.001-3.281C23.34,84.331,24.812,84.331,25.719,85.239z"/>
	<path fill="#1A1A1A" d="M46.609,93.012c1.472,1.47,1.472,3.854-0.001,5.324c-1.474,1.47-3.859,1.47-5.333-0.001
		c-1.473-1.469-1.473-3.854-0.001-5.323C42.749,91.544,45.135,91.544,46.609,93.012z"/>
	<path fill="#1A1A1A" d="M39.492,106.276L39.492,106.276c-0.346,0.061-0.717-0.01-1.028-0.227c-0.319-0.221-0.512-0.551-0.572-0.904
		l-0.006,0.01c-0.04-0.422-0.249-0.826-0.625-1.089c-0.68-0.474-1.616-0.308-2.09,0.368c-0.477,0.68-0.312,1.613,0.367,2.088
		c0.377,0.262,0.829,0.322,1.239,0.214l-0.005,0.009h0.001c0.353-0.066,0.73,0.002,1.045,0.225c0.312,0.217,0.508,0.539,0.567,0.888
		l0.001-0.001c0.038,0.424,0.252,0.828,0.629,1.089c0.679,0.475,1.611,0.31,2.089-0.369c0.474-0.678,0.309-1.612-0.371-2.085
		C40.356,106.229,39.904,106.169,39.492,106.276z"/>
	<path fill="#1A1A1A" d="M34.611,109.026c1.316,0.006,2.38,1.119,2.376,2.488c-0.006,1.369-1.077,2.475-2.395,2.471
		c-1.313-0.006-2.378-1.119-2.374-2.488C32.225,110.128,33.297,109.021,34.611,109.026z"/>
	<path fill="#1A1A1A" d="M73.854,53.167c1.472,1.47,1.472,3.855-0.001,5.324c-1.47,1.469-3.859,1.469-5.333-0.001
		c-1.469-1.469-1.47-3.854-0.001-5.323C69.994,51.697,72.384,51.697,73.854,53.167z"/>
	<path fill="#1A1A1A" d="M76.502,57.571c1.118,1.115,1.118,2.927,0,4.042c-1.117,1.115-2.935,1.115-4.051,0
		c-1.118-1.115-1.119-2.927-0.001-4.042C73.567,56.456,75.385,56.456,76.502,57.571z"/>
	<path fill="#1A1A1A" d="M67.49,50.424c0.909,0.907,0.909,2.375,0,3.281c-0.909,0.907-2.381,0.907-3.288,0
		c-0.909-0.905-0.909-2.374,0-3.281C65.109,49.519,66.581,49.519,67.49,50.424z"/>
	<path fill="#1A1A1A" d="M77.139,49.625c0.704,0.699,0.704,1.834,0,2.535c-0.7,0.698-1.837,0.698-2.537,0
		c-0.701-0.701-0.701-1.835-0.001-2.535C75.302,48.923,76.438,48.923,77.139,49.625z"/>
	<path fill="#1A1A1A" d="M63.731,64.786c0.704,0.701,0.704,1.836,0,2.537c-0.701,0.699-1.838,0.699-2.538,0
		c-0.701-0.701-0.701-1.836-0.001-2.537C61.894,64.087,63.03,64.087,63.731,64.786z"/>
	<path fill="#1A1A1A" d="M65.263,57.419c0.489,0.491,0.489,1.289,0,1.78c-0.493,0.491-1.293,0.491-1.784,0
		c-0.494-0.491-0.494-1.289,0-1.78C63.97,56.926,64.77,56.926,65.263,57.419z"/>
	<path fill="#1A1A1A" d="M83.244,82.597c0.908,0.904,0.908,2.376-0.001,3.281c-0.907,0.905-2.378,0.905-3.287,0
		c-0.908-0.905-0.908-2.377-0.001-3.281C80.865,81.69,82.336,81.69,83.244,82.597z"/>
	<path fill="#1A1A1A" d="M74.86,93.051c0.904,0.905,0.904,2.376,0,3.282c-0.909,0.904-2.383,0.904-3.288-0.001
		c-0.908-0.905-0.908-2.376,0-3.281C72.478,92.146,73.951,92.146,74.86,93.051z"/>
	<path fill="#1A1A1A" d="M83.52,90.761L83.52,90.761c-0.345,0.062-0.717-0.009-1.028-0.227c-0.319-0.221-0.512-0.551-0.572-0.902
		l-0.006,0.008c-0.039-0.422-0.249-0.825-0.625-1.088c-0.68-0.475-1.616-0.308-2.089,0.368c-0.478,0.679-0.312,1.614,0.367,2.088
		c0.376,0.263,0.828,0.322,1.239,0.214L80.8,91.229h0.001c0.353-0.065,0.73,0.003,1.046,0.226c0.311,0.218,0.507,0.539,0.565,0.888
		h0.001c0.039,0.422,0.253,0.826,0.63,1.088c0.68,0.475,1.612,0.31,2.089-0.369c0.474-0.678,0.309-1.61-0.371-2.085
		C84.384,90.714,83.932,90.653,83.52,90.761z"/>
	<path fill="#1A1A1A" d="M102.8,40.813c-1.12,1.75-3.453,2.263-5.209,1.143c-1.754-1.118-2.269-3.446-1.145-5.198
		c1.121-1.75,3.453-2.264,5.208-1.145S103.92,39.061,102.8,40.813z"/>
	<path fill="#1A1A1A" d="M99.064,35.335c-0.691,1.078-2.131,1.394-3.213,0.705c-1.081-0.69-1.396-2.125-0.706-3.205
		c0.691-1.08,2.131-1.395,3.212-0.706C99.439,32.82,99.756,34.255,99.064,35.335z"/>
	<path fill="#1A1A1A" d="M66.334,99.275L66.334,99.275c-0.445,0.309-1.01,0.45-1.588,0.345c-0.586-0.104-1.072-0.441-1.382-0.898
		l-0.004,0.017c-0.331-0.565-0.89-0.993-1.585-1.119c-1.259-0.228-2.463,0.609-2.69,1.865c-0.224,1.256,0.612,2.458,1.87,2.683
		c0.696,0.126,1.369-0.082,1.877-0.498l-0.003,0.016h0.001c0.449-0.318,1.021-0.467,1.61-0.36c0.577,0.103,1.057,0.431,1.37,0.878
		l0,0c0.328,0.567,0.887,0.996,1.583,1.122c1.258,0.228,2.463-0.61,2.69-1.866c0.229-1.255-0.612-2.458-1.871-2.684
		C67.517,98.649,66.843,98.858,66.334,99.275z"/>
	
		<ellipse transform="matrix(0.996 -0.089 0.089 0.996 -9.2571 6.9595)" fill="#1A1A1A" cx="73.449" cy="107.333" rx="3.771" ry="3.764"/>
	<path fill="#1A1A1A" d="M79.218,102.913c0.138,1.535-1.001,2.889-2.538,3.026c-1.535,0.138-2.893-0.995-3.03-2.53
		c-0.138-1.533,0.997-2.891,2.531-3.027C77.722,100.246,79.081,101.38,79.218,102.913z"/>
	<path fill="#1A1A1A" d="M90.575,59.847L90.575,59.847c0.888,0.204,1.701,0.749,2.226,1.583c0.532,0.849,0.66,1.831,0.44,2.731
		l0.023-0.016c-0.33,1.049-0.233,2.227,0.395,3.23c1.144,1.817,3.542,2.367,5.364,1.229c1.819-1.137,2.371-3.532,1.231-5.35
		c-0.632-1.006-1.653-1.605-2.744-1.765l0.025-0.014l-0.001-0.001c-0.906-0.198-1.736-0.742-2.268-1.587
		c-0.523-0.834-0.659-1.804-0.452-2.692l-0.001,0c0.333-1.05,0.24-2.228-0.393-3.235c-1.14-1.815-3.542-2.368-5.36-1.229
		c-1.824,1.139-2.374,3.535-1.231,5.351C88.458,59.09,89.482,59.691,90.575,59.847z"/>
	<path fill="#1A1A1A" d="M101.106,54.737c0.904,0.907,0.904,2.375-0.001,3.281c-0.908,0.907-2.382,0.907-3.287,0
		c-0.908-0.906-0.908-2.374-0.001-3.281C98.724,53.831,100.197,53.831,101.106,54.737z"/>
	<path fill="#1A1A1A" d="M106.28,58.846c1.199,1.198,1.199,3.146-0.001,4.347c-1.203,1.2-3.151,1.2-4.355-0.001
		c-1.203-1.199-1.203-3.147-0.001-4.346C103.127,57.644,105.076,57.644,106.28,58.846z"/>
	<path fill="#1A1A1A" d="M108.209,64.256c0.904,0.905,0.904,2.374,0,3.281c-0.909,0.905-2.382,0.905-3.287-0.001
		c-0.909-0.906-0.909-2.375-0.001-3.28C105.826,63.349,107.3,63.349,108.209,64.256z"/>
	<circle fill="#1A1A1A" cx="102.469" cy="69.48" r="1.26"/>
	<path fill="#1A1A1A" d="M108.424,70.382c0.493,0.491,0.493,1.289,0,1.78c-0.49,0.493-1.288,0.493-1.782,0
		c-0.49-0.491-0.49-1.289-0.001-1.78C107.136,69.892,107.934,69.892,108.424,70.382z"/>
	<path fill="#1A1A1A" d="M82.634,63.28c0.7,0.7,0.7,1.834,0,2.537c-0.7,0.697-1.841,0.697-2.541-0.003
		c-0.701-0.7-0.701-1.834-0.001-2.534C80.793,62.581,81.934,62.581,82.634,63.28z"/>
	<path fill="#1A1A1A" d="M84.993,16.873c0.769,0.765,0.769,2.006,0,2.77c-0.768,0.765-2.011,0.765-2.775,0
		c-0.768-0.764-0.768-2.005-0.001-2.77C82.982,16.106,84.226,16.106,84.993,16.873z"/>
	<path fill="#1A1A1A" d="M93.978,29.294c-0.691,1.08-2.131,1.396-3.214,0.707c-1.081-0.692-1.396-2.125-0.706-3.205
		c0.691-1.081,2.132-1.397,3.209-0.708C94.349,26.779,94.669,28.214,93.978,29.294z"/>
	<path fill="#1A1A1A" d="M102.249,24.479c0.7,0.699,0.7,1.835,0,2.535c-0.7,0.699-1.837,0.699-2.537,0
		c-0.705-0.7-0.705-1.835-0.001-2.535C100.412,23.78,101.549,23.78,102.249,24.479z"/>
	<path fill="#1A1A1A" d="M91.541,15.698c0.489,0.493,0.489,1.289,0,1.78c-0.494,0.493-1.294,0.493-1.782,0
		c-0.495-0.491-0.495-1.287-0.001-1.78C90.247,15.208,91.047,15.208,91.541,15.698z"/>
	<path fill="#1A1A1A" d="M96.744,17.368c0.489,0.491,0.489,1.289,0,1.78c-0.494,0.491-1.294,0.491-1.782,0
		c-0.495-0.491-0.495-1.289-0.001-1.78C95.45,16.876,96.25,16.876,96.744,17.368z"/>
	<circle fill="#1A1A1A" cx="106.273" cy="44.206" r="1.26"/>
	<circle fill="#1A1A1A" cx="54.168" cy="68.216" r="1.26"/>
	<path fill="#1A1A1A" d="M60.009,57.927c0.908,0.905,0.908,2.375,0,3.281c-0.905,0.905-2.378,0.905-3.287,0
		c-0.906-0.906-0.906-2.376-0.001-3.281C57.63,57.021,59.104,57.021,60.009,57.927z"/>
	<path fill="#1A1A1A" d="M59.089,62.308c0.704,0.699,0.704,1.835,0,2.535c-0.7,0.698-1.837,0.698-2.537-0.001
		c-0.701-0.699-0.701-1.835-0.001-2.534C57.252,61.608,58.389,61.608,59.089,62.308z"/>
	<path fill="#1A1A1A" d="M22.806,98.529c0.7,0.699,0.7,1.835,0,2.534s-1.837,0.699-2.539,0c-0.703-0.699-0.703-1.835-0.002-2.534
		C20.969,97.829,22.105,97.829,22.806,98.529z"/>
	<circle fill="#1A1A1A" cx="25.915" cy="103.797" r="1.259"/>
	<path fill="#1A1A1A" d="M27.977,105.532c0.699,0.699,0.699,1.833-0.001,2.535c-0.701,0.699-1.84,0.699-2.541-0.001
		c-0.701-0.701-0.701-1.835-0.001-2.534C26.135,104.831,27.274,104.831,27.977,105.532z"/>
	
		<ellipse transform="matrix(-0.1882 0.9821 -0.9821 -0.1882 97.0864 60.6816)" fill="#1A1A1A" cx="23.463" cy="70.467" rx="3.272" ry="3.278"/>
	<path fill="#1A1A1A" d="M27.618,66.013c-1.259-0.24-2.086-1.456-1.844-2.714c0.242-1.26,1.457-2.084,2.721-1.843
		c1.26,0.24,2.088,1.456,1.845,2.713C30.098,65.43,28.884,66.255,27.618,66.013z"/>
	<path fill="#1A1A1A" d="M35.127,72.243c0.7,0.699,0.7,1.834-0.001,2.535c-0.7,0.698-1.836,0.698-2.537,0
		c-0.704-0.701-0.704-1.836-0.001-2.535C33.289,71.542,34.426,71.542,35.127,72.243z"/>
	<path fill="#1A1A1A" d="M26.21,74.564c1.214,1.212,1.214,3.178-0.001,4.39c-1.214,1.211-3.181,1.211-4.396,0
		c-1.214-1.213-1.215-3.178-0.001-4.39C23.027,73.354,24.995,73.354,26.21,74.564z"/>
	<path fill="#1A1A1A" d="M30.277,77.085c0.904,0.907,0.904,2.376-0.001,3.281c-0.908,0.908-2.382,0.908-3.287,0
		c-0.908-0.905-0.908-2.374-0.001-3.281C27.895,76.18,29.368,76.18,30.277,77.085z"/>
</g>
</svg>
