<?xml version="1.0" encoding="utf-8"?>
<!-- Generator: Adobe Illustrator 16.0.1, SVG Export Plug-In . SVG Version: 6.00 Build 0)  -->
<!DOCTYPE svg PUBLIC "-//W3C//DTD SVG 1.1//EN" "http://www.w3.org/Graphics/SVG/1.1/DTD/svg11.dtd">
<svg version="1.1" xmlns="http://www.w3.org/2000/svg" xmlns:xlink="http://www.w3.org/1999/xlink" x="0px" y="0px" width="25px"
	 height="25px" viewBox="0 0 25 25" enable-background="new 0 0 25 25" xml:space="preserve">
<g id="partner-icon">
</g>
<g id="grid-icon">
</g>
<g id="iteration-icon">
</g>
<g id="sample-icon">
</g>
<g id="energy-icon">
</g>
<g id="cryo-icon">
</g>
<g id="symmetry-icon">
</g>
<g id="analysis_x5F_icon">
	<g>
		<path fill="#3FCDD2" d="M12.912,13c0.142-0.021,0.277-0.068,0.417-0.104c-2.437-0.008-4.416-1.99-4.416-4.429
			c0-0.538,0.11-1.049,0.287-1.526c-0.042,0.061-0.095,0.11-0.135,0.174C8.433,8.121,8.34,9.299,8.673,10.35l-0.001-0.001
			c0.065,0.28,0.084,0.568,0.079,0.858c0.67,1.099,1.721,1.924,2.973,2.313C12.089,13.275,12.491,13.097,12.912,13L12.912,13z"/>
		<path fill="#3FCDD2" d="M10.898,14.31c-0.947-0.389-1.778-1-2.431-1.769c-0.073,0.169-0.147,0.339-0.248,0.5
			c-0.531,0.846-1.361,1.389-2.268,1.587l-0.001,0.001l0.025,0.014c-1.091,0.159-2.112,0.759-2.744,1.765
			c-1.14,1.817-0.588,4.212,1.231,5.35c1.822,1.139,4.221,0.589,5.364-1.229c0.628-1.002,0.725-2.182,0.395-3.229l0.023,0.015
			c-0.22-0.899-0.092-1.883,0.44-2.731C10.749,14.482,10.828,14.401,10.898,14.31z"/>
		<path fill="#3FCDD2" d="M14.426,5.885c-0.763-0.478-1.627-0.642-2.459-0.556C10.76,5.861,9.913,7.065,9.913,8.467
			c0,1.892,1.539,3.431,3.431,3.431c1.031,0,1.946-0.467,2.575-1.188C16.671,8.979,16.079,6.917,14.426,5.885z"/>
		<path fill="#3FCDD2" d="M22.36,16.111l-4.291-4.293c0.674-0.949,1.074-2.105,1.074-3.355c0-3.205-2.607-5.812-5.812-5.812
			S7.519,5.258,7.519,8.463s2.607,5.812,5.812,5.812c1.234,0,2.377-0.389,3.319-1.047l4.296,4.297L22.36,16.111z M13.331,12.656
			c-2.313,0-4.194-1.882-4.194-4.193c0-2.312,1.881-4.194,4.194-4.194c2.312,0,4.193,1.882,4.193,4.194
			C17.524,10.774,15.644,12.656,13.331,12.656z"/>
	</g>
</g>
<g id="computation-icon">
</g>
<g id="message-icon">
</g>
<g id="download-icon">
</g>
<g id="message-icon_1_">
</g>
<g id="help-icon">
</g>
</svg>
