<?xml version="1.0" encoding="utf-8"?>
<!-- Generator: Adobe Illustrator 16.0.1, SVG Export Plug-In . SVG Version: 6.00 Build 0)  -->
<!DOCTYPE svg PUBLIC "-//W3C//DTD SVG 1.1//EN" "http://www.w3.org/Graphics/SVG/1.1/DTD/svg11.dtd">
<svg version="1.1" xmlns="http://www.w3.org/2000/svg" xmlns:xlink="http://www.w3.org/1999/xlink" x="0px" y="0px" width="25px"
	 height="25px" viewBox="0 0 25 25" enable-background="new 0 0 25 25" xml:space="preserve">
<g id="partner-icon">
</g>
<g id="grid-icon">
</g>
<g id="iteration-icon">
</g>
<g id="sample-icon">
</g>
<g id="energy-icon">
</g>
<g id="cryo-icon">
</g>
<g id="symmetry-icon">
</g>
<g id="analysis_x5F_icon">
</g>
<g id="computation-icon">
	<g>
		<path fill="#3FCDD2" d="M18.323,8.365c-1.262,0.002-2.374,0.584-3.133,1.477l0.003-0.03V9.811
			c-0.69,0.704-1.647,1.146-2.704,1.147c-1.047,0.002-1.994-0.421-2.678-1.107v0.001C9.055,8.961,7.943,8.381,6.68,8.385
			c-2.272,0.003-4.122,1.854-4.122,4.133s1.846,4.123,4.122,4.116c1.258,0.002,2.376-0.582,3.131-1.478v0.002
			c0.683-0.686,1.631-1.109,2.678-1.113c1.062,0,2.019,0.437,2.704,1.14l0.001-0.029c0.756,0.888,1.87,1.464,3.127,1.463
			c2.278-0.007,4.122-1.854,4.122-4.136C22.443,10.205,20.599,8.363,18.323,8.365z M7.442,14.969H6.444v-3.418H5.279v-0.663
			c0.307-0.014,0.521-0.034,0.645-0.062c0.195-0.043,0.354-0.13,0.478-0.26c0.084-0.089,0.147-0.207,0.19-0.355
			c0.024-0.089,0.038-0.154,0.038-0.198h0.812V14.969z M19.825,14.306c-0.254,0.442-0.696,0.663-1.328,0.663
			c-0.631,0-1.073-0.221-1.328-0.663c-0.254-0.442-0.381-1.072-0.381-1.89c0-0.818,0.127-1.449,0.381-1.895
			c0.255-0.443,0.697-0.666,1.328-0.666c0.632,0,1.074,0.223,1.328,0.666c0.254,0.445,0.381,1.076,0.381,1.895
			C20.206,13.233,20.079,13.863,19.825,14.306z"/>
		<path fill="#3FCDD2" d="M18.497,10.658c-0.289,0-0.48,0.145-0.574,0.432c-0.093,0.287-0.14,0.729-0.14,1.326
			c0,0.569,0.047,1.005,0.14,1.307c0.094,0.303,0.285,0.453,0.574,0.453c0.29,0,0.479-0.15,0.57-0.453
			c0.09-0.302,0.135-0.737,0.135-1.307c0-0.598-0.045-1.039-0.135-1.326C18.977,10.803,18.787,10.658,18.497,10.658z"/>
	</g>
</g>
<g id="message-icon">
</g>
<g id="download-icon">
</g>
<g id="message-icon_1_">
</g>
<g id="help-icon">
</g>
</svg>
