<?xml version="1.0" encoding="utf-8"?>
<!-- Generator: Adobe Illustrator 16.0.1, SVG Export Plug-In . SVG Version: 6.00 Build 0)  -->
<!DOCTYPE svg PUBLIC "-//W3C//DTD SVG 1.1//EN" "http://www.w3.org/Graphics/SVG/1.1/DTD/svg11.dtd">
<svg version="1.1" xmlns="http://www.w3.org/2000/svg" xmlns:xlink="http://www.w3.org/1999/xlink" x="0px" y="0px" width="25px"
	 height="25px" viewBox="0 0 25 25" enable-background="new 0 0 25 25" xml:space="preserve">
<g id="partner-icon">
</g>
<g id="grid-icon">
</g>
<g id="iteration-icon">
</g>
<g id="sample-icon">
</g>
<g id="energy-icon">
</g>
<g id="cryo-icon">
</g>
<g id="symmetry-icon">
</g>
<g id="analysis_x5F_icon">
</g>
<g id="computation-icon">
</g>
<g id="message-icon">
</g>
<g id="download-icon">
</g>
<g id="message-icon_1_">
	<g id="Contact_2_">
		<path fill="#3FCDD2" d="M7.181,8.166l4.879,4.881c0.117,0.115,0.273,0.18,0.439,0.18c0.168,0,0.324-0.064,0.44-0.18l4.88-4.881
			H7.181z"/>
		<g>
			<path fill="#3FCDD2" d="M14.366,12.511l-0.971,0.971c-0.242,0.241-0.559,0.36-0.875,0.36c-0.318,0-0.635-0.119-0.876-0.36
				l-0.991-0.991l-4.084,4.085c-0.027,0.027-0.055,0.049-0.081,0.072c0.112,0.114,0.269,0.187,0.442,0.187h11.138
				c0.174,0,0.33-0.072,0.443-0.187c-0.027-0.023-0.054-0.045-0.081-0.072L14.366,12.511z"/>
		</g>
		<g>
			<path fill="#3FCDD2" d="M6.589,8.426C6.558,8.395,6.536,8.365,6.511,8.334C6.388,8.447,6.31,8.607,6.31,8.788v7.176l3.908-3.909
				L6.589,8.426z"/>
			<path fill="#3FCDD2" d="M18.451,8.426l-3.649,3.649l3.889,3.889V8.788c0-0.169-0.068-0.321-0.179-0.435
				C18.491,8.379,18.476,8.401,18.451,8.426z"/>
		</g>
	</g>
</g>
<g id="help-icon">
</g>
</svg>
