<?xml version="1.0" encoding="utf-8"?>
<!-- Generator: Adobe Illustrator 16.0.1, SVG Export Plug-In . SVG Version: 6.00 Build 0)  -->
<!DOCTYPE svg PUBLIC "-//W3C//DTD SVG 1.1//EN" "http://www.w3.org/Graphics/SVG/1.1/DTD/svg11.dtd">
<svg version="1.1" xmlns="http://www.w3.org/2000/svg" xmlns:xlink="http://www.w3.org/1999/xlink" x="0px" y="0px" width="25px"
	 height="25px" viewBox="0 0 25 25" enable-background="new 0 0 25 25" xml:space="preserve">
<g id="partner-icon">
</g>
<g id="grid-icon">
</g>
<g id="iteration-icon">
</g>
<g id="sample-icon">
</g>
<g id="energy-icon">
</g>
<g id="cryo-icon">
	<g>
		<path fill="#A8A8A8" d="M13.475,11.896c-0.287-0.295-0.672-0.457-1.08-0.457c-0.396,0.002-0.77,0.151-1.053,0.423
			c-0.602,0.696-1.426,1.122-2.318,1.245l2.627,8.92c0.311,1.055,0.838,1.061,1.174,0.014l2.859-8.938
			C14.412,12.88,13.561,11.99,13.475,11.896z"/>
		<path fill="#A8A8A8" d="M10.711,11.159v0.002c0.455-0.457,1.086-0.738,1.781-0.742c0.707,0,1.344,0.291,1.799,0.76l0.002-0.02
			c0.502,0.59,1.244,0.973,2.08,0.973c1.516-0.004,2.742-1.234,2.742-2.751c0-1.515-1.227-2.741-2.74-2.739
			c-0.84,0.002-1.58,0.389-2.084,0.982l0.002-0.021V7.603c-0.459,0.469-1.096,0.763-1.799,0.764
			c-0.697,0.002-1.328-0.279-1.781-0.736l0,0c-0.504-0.592-1.244-0.979-2.084-0.975C7.117,6.656,5.887,7.888,5.887,9.403
			c0,1.518,1.227,2.743,2.742,2.738C9.465,12.144,10.209,11.755,10.711,11.159z"/>
		<circle fill="#A8A8A8" cx="12.619" cy="4.613" r="2.434"/>
	</g>
</g>
<g id="symmetry-icon">
</g>
<g id="analysis_x5F_icon">
</g>
<g id="computation-icon">
</g>
<g id="message-icon">
</g>
<g id="download-icon">
</g>
<g id="message-icon_1_">
</g>
<g id="help-icon">
</g>
</svg>
