<?xml version="1.0" encoding="utf-8"?>
<!-- Generator: Adobe Illustrator 16.0.1, SVG Export Plug-In . SVG Version: 6.00 Build 0)  -->
<!DOCTYPE svg PUBLIC "-//W3C//DTD SVG 1.1//EN" "http://www.w3.org/Graphics/SVG/1.1/DTD/svg11.dtd">
<svg version="1.1" xmlns="http://www.w3.org/2000/svg" xmlns:xlink="http://www.w3.org/1999/xlink" x="0px" y="0px" width="25px"
	 height="25px" viewBox="0 0 25 25" enable-background="new 0 0 25 25" xml:space="preserve">
<g id="partner-icon">
</g>
<g id="grid-icon">
</g>
<g id="iteration-icon">
</g>
<g id="sample-icon">
</g>
<g id="energy-icon">
	<g>
		<path fill="#3FCDD2" d="M12.011,19.439l0.039,3.088l1.223-3.109c-0.254,0.029-0.512,0.047-0.773,0.047
			C12.335,19.465,12.173,19.451,12.011,19.439z"/>
		<path fill="#3FCDD2" d="M11.987,2.473l-1.414,3.844c0.459-0.137,0.939-0.223,1.434-0.26L11.987,2.473z"/>
		<path fill="#3FCDD2" d="M19.216,12.748c0-3.709-3.006-6.715-6.717-6.715c-0.166,0-0.328,0.012-0.492,0.023l0.025,4.889l4.82-0.625
			l-3.58,9.098C16.618,19.033,19.216,16.195,19.216,12.748z"/>
		<path fill="#3FCDD2" d="M7.55,14.523l3.023-8.207c-2.77,0.828-4.789,3.393-4.789,6.432c0,3.545,2.746,6.441,6.227,6.691
			l-0.07-5.398L7.55,14.523z"/>
	</g>
</g>
<g id="cryo-icon">
</g>
<g id="symmetry-icon">
</g>
<g id="analysis_x5F_icon">
</g>
<g id="computation-icon">
</g>
<g id="message-icon">
</g>
<g id="download-icon">
</g>
<g id="message-icon_1_">
</g>
<g id="help-icon">
</g>
</svg>
