<?xml version="1.0" encoding="utf-8"?>
<!-- Generator: Adobe Illustrator 16.0.1, SVG Export Plug-In . SVG Version: 6.00 Build 0)  -->
<!DOCTYPE svg PUBLIC "-//W3C//DTD SVG 1.1//EN" "http://www.w3.org/Graphics/SVG/1.1/DTD/svg11.dtd">
<svg version="1.1" xmlns="http://www.w3.org/2000/svg" xmlns:xlink="http://www.w3.org/1999/xlink" x="0px" y="0px" width="25px"
	 height="25px" viewBox="0 0 25 25" enable-background="new 0 0 25 25" xml:space="preserve">
<g id="partner-icon">
</g>
<g id="grid-icon">
	<g>
		<path fill="#3FCDD2" d="M16.5,5.415c-1.322,0.214-2.359,1.251-2.574,2.573H16.5V5.415z"/>
		<path fill="#3FCDD2" d="M20.072,7.988c-0.213-1.322-1.25-2.359-2.572-2.573v2.573H20.072z"/>
		<path fill="#3FCDD2" d="M17.5,11.562c1.322-0.215,2.359-1.252,2.572-2.574H17.5V11.562z"/>
		<path fill="#3FCDD2" d="M13.926,8.988c0.215,1.322,1.252,2.359,2.574,2.574V8.988H13.926z"/>
		<path fill="#3FCDD2" d="M4.74,8.988c0.213,1.322,1.25,2.359,2.572,2.574V8.988H4.74z"/>
		<path fill="#3FCDD2" d="M10.887,7.988c-0.215-1.322-1.252-2.359-2.574-2.573v2.573H10.887z"/>
		<path fill="#3FCDD2" d="M10.887,8.988H8.312v2.574C9.635,11.348,10.672,10.311,10.887,8.988z"/>
		<path fill="#3FCDD2" d="M7.312,5.415C5.99,5.629,4.953,6.666,4.74,7.988h2.572V5.415z"/>
		<path fill="#3FCDD2" d="M20.072,17.175c-0.213-1.322-1.25-2.359-2.572-2.573v2.573H20.072z"/>
		<path fill="#3FCDD2" d="M13.926,18.175c0.215,1.322,1.252,2.359,2.574,2.574v-2.574H13.926z"/>
		<path fill="#3FCDD2" d="M13.926,17.175H16.5v-2.573C15.178,14.815,14.141,15.853,13.926,17.175z"/>
		<path fill="#3FCDD2" d="M17.5,20.749c1.322-0.215,2.359-1.252,2.572-2.574H17.5V20.749z"/>
		<path fill="#3FCDD2" d="M8.312,20.749c1.322-0.215,2.359-1.252,2.574-2.574H8.312V20.749z"/>
		<path fill="#3FCDD2" d="M7.312,14.602c-1.322,0.214-2.359,1.251-2.572,2.573h2.572V14.602z"/>
		<path fill="#3FCDD2" d="M4.74,18.175c0.213,1.322,1.25,2.359,2.572,2.574v-2.574H4.74z"/>
		<path fill="#3FCDD2" d="M8.312,14.602v2.573h2.574C10.672,15.853,9.635,14.815,8.312,14.602z"/>
		<path fill="#3FCDD2" d="M16.5,20.749v2.418h1v-2.418C17.336,20.775,17.17,20.8,17,20.8C16.828,20.8,16.664,20.775,16.5,20.749z"/>
		<path fill="#3FCDD2" d="M17.5,5.415V1.833h-1v3.582c0.164-0.026,0.328-0.051,0.5-0.051C17.17,5.364,17.336,5.389,17.5,5.415z"/>
		<path fill="#3FCDD2" d="M20.072,8.988h3.094v-1h-3.094c0.027,0.164,0.051,0.329,0.051,0.5C20.123,8.66,20.1,8.825,20.072,8.988z"
			/>
		<path fill="#3FCDD2" d="M20.072,18.175h3.094v-1h-3.094c0.027,0.164,0.051,0.329,0.051,0.5
			C20.123,17.847,20.1,18.012,20.072,18.175z"/>
		<path fill="#3FCDD2" d="M17,11.612c-0.172,0-0.336-0.023-0.5-0.05v3.039c0.164-0.026,0.328-0.05,0.5-0.05
			c0.17,0,0.336,0.023,0.5,0.05v-3.039C17.336,11.589,17.17,11.612,17,11.612z"/>
		<path fill="#3FCDD2" d="M4.74,7.988H1.834v1H4.74c-0.027-0.163-0.051-0.328-0.051-0.5C4.689,8.317,4.713,8.152,4.74,7.988z"/>
		<path fill="#3FCDD2" d="M8.312,14.602v-3.039c-0.164,0.026-0.328,0.05-0.5,0.05c-0.17,0-0.336-0.023-0.5-0.05v3.039
			c0.164-0.026,0.33-0.05,0.5-0.05C7.984,14.552,8.148,14.575,8.312,14.602z"/>
		<path fill="#3FCDD2" d="M7.312,20.749v2.418h1v-2.418c-0.164,0.026-0.328,0.051-0.5,0.051C7.643,20.8,7.477,20.775,7.312,20.749z"
			/>
		<path fill="#3FCDD2" d="M10.887,8.988h3.039c-0.025-0.163-0.051-0.328-0.051-0.5c0-0.171,0.025-0.336,0.051-0.5h-3.039
			c0.027,0.164,0.051,0.329,0.051,0.5C10.938,8.66,10.914,8.825,10.887,8.988z"/>
		<path fill="#3FCDD2" d="M4.74,17.175H1.834v1H4.74c-0.027-0.163-0.051-0.328-0.051-0.5C4.689,17.504,4.713,17.339,4.74,17.175z"/>
		<path fill="#3FCDD2" d="M13.926,17.175h-3.039c0.027,0.164,0.051,0.329,0.051,0.5c0,0.172-0.023,0.337-0.051,0.5h3.039
			c-0.025-0.163-0.051-0.328-0.051-0.5C13.875,17.504,13.9,17.339,13.926,17.175z"/>
		<path fill="#3FCDD2" d="M8.312,5.415V1.833h-1v3.582c0.164-0.026,0.33-0.051,0.5-0.051C7.984,5.364,8.148,5.389,8.312,5.415z"/>
	</g>
</g>
<g id="iteration-icon">
</g>
<g id="sample-icon">
</g>
<g id="energy-icon">
</g>
<g id="cryo-icon">
</g>
<g id="symmetry-icon">
</g>
<g id="analysis_x5F_icon">
</g>
<g id="computation-icon">
</g>
<g id="message-icon">
</g>
<g id="download-icon">
</g>
<g id="message-icon_1_">
</g>
<g id="help-icon">
</g>
</svg>
