<?xml version="1.0" encoding="utf-8"?>
<!-- Generator: Adobe Illustrator 16.0.1, SVG Export Plug-In . SVG Version: 6.00 Build 0)  -->
<!DOCTYPE svg PUBLIC "-//W3C//DTD SVG 1.1//EN" "http://www.w3.org/Graphics/SVG/1.1/DTD/svg11.dtd">
<svg version="1.1" xmlns="http://www.w3.org/2000/svg" xmlns:xlink="http://www.w3.org/1999/xlink" x="0px" y="0px" width="25px"
	 height="25px" viewBox="0 0 25 25" enable-background="new 0 0 25 25" xml:space="preserve">
<g id="partner-icon">
</g>
<g id="grid-icon">
</g>
<g id="iteration-icon">
</g>
<g id="sample-icon">
</g>
<g id="energy-icon">
</g>
<g id="cryo-icon">
</g>
<g id="symmetry-icon">
</g>
<g id="analysis_x5F_icon">
</g>
<g id="computation-icon">
</g>
<g id="message-icon">
</g>
<g id="download-icon">
</g>
<g id="message-icon_1_">
</g>
<g id="help-icon">
	<g id="Help_2_">
		<path fill="#A8A8A8" d="M12.5,5.867c-3.657,0-6.633,2.977-6.633,6.633s2.976,6.633,6.633,6.633s6.633-2.977,6.633-6.633
			S16.157,5.867,12.5,5.867z M17.954,10.309l-2.755,0.684c-0.284-0.506-0.704-0.924-1.216-1.203l0.689-2.764
			C16.169,7.621,17.353,8.818,17.954,10.309z M12.5,14.871c-1.307,0-2.369-1.062-2.369-2.371c0-1.307,1.062-2.369,2.369-2.369
			s2.368,1.062,2.368,2.369C14.868,13.809,13.807,14.871,12.5,14.871z M10.327,7.025l0.687,2.766
			c-0.514,0.283-0.934,0.701-1.219,1.213l-2.754-0.688C7.644,8.82,8.829,7.623,10.327,7.025z M7.029,14.688L9.796,14
			c0.283,0.508,0.699,0.922,1.206,1.205l-0.688,2.766C8.82,17.373,7.629,16.182,7.029,14.688z M14.686,17.971l-0.687-2.766
			c0.506-0.283,0.92-0.695,1.2-1.197l2.769,0.688C17.367,16.186,16.178,17.373,14.686,17.971z"/>
	</g>
</g>
</svg>
