<?xml version="1.0" encoding="utf-8"?>
<!-- Generator: Adobe Illustrator 16.0.1, SVG Export Plug-In . SVG Version: 6.00 Build 0)  -->
<!DOCTYPE svg PUBLIC "-//W3C//DTD SVG 1.1//EN" "http://www.w3.org/Graphics/SVG/1.1/DTD/svg11.dtd">
<svg version="1.1" xmlns="http://www.w3.org/2000/svg" xmlns:xlink="http://www.w3.org/1999/xlink" x="0px" y="0px" width="25px"
	 height="25px" viewBox="0 0 25 25" enable-background="new 0 0 25 25" xml:space="preserve">
<g id="reload-icon">
</g>
<g id="menu-icon">
</g>
<g id="close-icon">
</g>
<g id="add-icon">
</g>
<g id="edit-icon">
</g>
<g id="file-icon">
</g>
<g id="down-icon">
</g>
<g id="up-icon">
</g>
<g id="puzzle-icon">
</g>
<g id="grid-icon_1_">
</g>
<g id="iteration-icon_1_">
</g>
<g id="sample-icon_1_">
</g>
<g id="energy-icon_1_">
</g>
<g id="cryo-icon_1_">
</g>
<g id="symmetry-icon_1_">
</g>
<g id="analysis-icon">
</g>
<g id="computation-icon_1_">
</g>
<g id="message-icon_1_">
</g>
<g id="download-icon_1_">
</g>
<g id="contact-icon">
</g>
<g id="help-iocn">
</g>
<g id="info-icon">
	<rect fill="#53B9D9" width="25" height="25"/>
	<g>
		<path fill="#F5F5F5" d="M10.5,16.824c0.041-0.182,0.103-0.422,0.185-0.721l1.107-4.043c0.012-0.047,0.021-0.094,0.03-0.141
			s0.014-0.091,0.014-0.132c0-0.24-0.076-0.39-0.229-0.448s-0.43-0.097-0.833-0.114v-0.475c0.337-0.023,0.827-0.071,1.47-0.145
			s1.099-0.137,1.366-0.189l0.768-0.149l-1.397,5.124c-0.117,0.439-0.196,0.744-0.237,0.914c-0.105,0.434-0.158,0.715-0.158,0.844
			s0.029,0.213,0.088,0.25c0.059,0.039,0.123,0.058,0.193,0.058c0.183,0,0.408-0.155,0.679-0.466s0.508-0.636,0.714-0.976
			l0.396,0.255c-0.587,0.861-1.036,1.441-1.347,1.74c-0.511,0.492-1.056,0.738-1.637,0.738c-0.329,0-0.624-0.102-0.885-0.303
			c-0.261-0.203-0.392-0.512-0.392-0.928C10.395,17.372,10.43,17.141,10.5,16.824z M14.733,6.603
			c0.234,0.234,0.352,0.519,0.352,0.853s-0.117,0.62-0.352,0.856c-0.234,0.238-0.519,0.356-0.853,0.356s-0.62-0.118-0.856-0.356
			c-0.238-0.236-0.356-0.522-0.356-0.856s0.118-0.618,0.356-0.853c0.236-0.234,0.522-0.352,0.856-0.352S14.499,6.368,14.733,6.603z"
			/>
	</g>
</g>
</svg>
