<?xml version="1.0" encoding="utf-8"?>
<!-- Generator: Adobe Illustrator 16.0.1, SVG Export Plug-In . SVG Version: 6.00 Build 0)  -->
<!DOCTYPE svg PUBLIC "-//W3C//DTD SVG 1.1//EN" "http://www.w3.org/Graphics/SVG/1.1/DTD/svg11.dtd">
<svg version="1.1" xmlns="http://www.w3.org/2000/svg" xmlns:xlink="http://www.w3.org/1999/xlink" x="0px" y="0px" width="25px"
	 height="25px" viewBox="0 0 25 25" enable-background="new 0 0 25 25" xml:space="preserve">
<g id="partner-icon">
</g>
<g id="grid-icon">
</g>
<g id="iteration-icon">
	<g>
		<g>
			<path fill="#A8A8A8" d="M19.482,13.104c0-2.391-1.135-4.517-2.887-5.885l-1.229,1.575c1.285,1.002,2.115,2.559,2.115,4.31
				c0,0.403-0.047,0.795-0.131,1.174l1.938,0.488C19.412,14.23,19.482,13.676,19.482,13.104z"/>
			<path fill="#A8A8A8" d="M12.012,18.573c-3.016,0-5.469-2.454-5.469-5.47c0-3.014,2.451-5.466,5.465-5.469v-2
				c-4.117,0.003-7.465,3.353-7.465,7.469c0,4.119,3.35,7.47,7.469,7.47c1.729,0,3.318-0.596,4.586-1.585l-1.229-1.575
				C14.441,18.137,13.277,18.573,12.012,18.573z"/>
		</g>
		<polygon fill="#A8A8A8" points="12.008,9.034 12.008,4.427 14.312,6.73 		"/>
		<polygon fill="#A8A8A8" points="15.994,13.826 20.457,14.967 17.654,16.628 		"/>
	</g>
</g>
<g id="sample-icon">
</g>
<g id="energy-icon">
</g>
<g id="cryo-icon">
</g>
<g id="symmetry-icon">
</g>
<g id="analysis_x5F_icon">
</g>
<g id="computation-icon">
</g>
<g id="message-icon">
</g>
<g id="download-icon">
</g>
<g id="message-icon_1_">
</g>
<g id="help-icon">
</g>
</svg>
