<?xml version="1.0" encoding="utf-8"?>
<!-- Generator: Adobe Illustrator 16.0.1, SVG Export Plug-In . SVG Version: 6.00 Build 0)  -->
<!DOCTYPE svg PUBLIC "-//W3C//DTD SVG 1.1//EN" "http://www.w3.org/Graphics/SVG/1.1/DTD/svg11.dtd">
<svg version="1.1" xmlns="http://www.w3.org/2000/svg" xmlns:xlink="http://www.w3.org/1999/xlink" x="0px" y="0px" width="25px"
	 height="25px" viewBox="0 0 25 25" enable-background="new 0 0 25 25" xml:space="preserve">
<g id="partner-icon">
	<path id="Puzzle_icon_4_" fill="#A8A8A8" d="M17.175,10.442c-0.294,0-0.571,0.069-0.821,0.185V7.821
		c0-0.361-0.296-0.657-0.657-0.657h-2.747c0.077-0.21,0.126-0.434,0.126-0.671c0-1.088-0.883-1.971-1.972-1.971
		c-1.088,0-1.971,0.883-1.971,1.971c0,0.237,0.049,0.461,0.125,0.671H6.511c-0.361,0-0.657,0.296-0.657,0.657v4.128
		c0.061,0.009,0.122,0.021,0.186,0.021c0.375,0.003,0.715-0.149,0.959-0.396h0.001v0.01c0.27-0.313,0.665-0.514,1.11-0.51
		c0.806,0.006,1.453,0.663,1.447,1.469c-0.006,0.805-0.664,1.452-1.469,1.446c-0.445-0.003-0.839-0.211-1.104-0.527v0.012
		c-0.24-0.251-0.578-0.409-0.954-0.412c-0.06-0.001-0.118,0.009-0.177,0.017v3.929c0,0.361,0.296,0.656,0.657,0.656h2.817
		c-0.122,0.257-0.195,0.541-0.195,0.844c0,1.088,0.883,1.971,1.971,1.971c1.089,0,1.972-0.883,1.972-1.971
		c0-0.303-0.074-0.587-0.196-0.844h2.817c0.361,0,0.657-0.295,0.657-0.656V14.2c0.25,0.116,0.527,0.186,0.821,0.186
		c1.09,0,1.972-0.883,1.972-1.972S18.265,10.442,17.175,10.442z"/>
</g>
<g id="grid-icon">
</g>
<g id="iteration-icon">
</g>
<g id="sample-icon">
</g>
<g id="energy-icon">
</g>
<g id="cryo-icon">
</g>
<g id="symmetry-icon">
</g>
<g id="analysis_x5F_icon">
</g>
<g id="computation-icon">
</g>
<g id="message-icon">
</g>
<g id="download-icon">
</g>
<g id="message-icon_1_">
</g>
<g id="help-icon">
</g>
</svg>
