<?xml version="1.0" encoding="utf-8"?>
<!-- Generator: Adobe Illustrator 16.0.1, SVG Export Plug-In . SVG Version: 6.00 Build 0)  -->
<!DOCTYPE svg PUBLIC "-//W3C//DTD SVG 1.1//EN" "http://www.w3.org/Graphics/SVG/1.1/DTD/svg11.dtd">
<svg version="1.1" xmlns="http://www.w3.org/2000/svg" xmlns:xlink="http://www.w3.org/1999/xlink" x="0px" y="0px" width="25px"
	 height="25px" viewBox="0 0 25 25" enable-background="new 0 0 25 25" xml:space="preserve">
<g id="reload-icon">
	<path fill="#313237" d="M18.225,13.276c-0.315,2.293-1.962,4.165-4.195,4.77c-1.48,0.398-3.029,0.2-4.359-0.564
		c-1.331-0.764-2.284-2-2.684-3.48c-0.401-1.482-0.201-3.03,0.563-4.361s2-2.284,3.482-2.685c1.271-0.344,2.582-0.22,3.771,0.296
		L14.24,8.233l4.388-0.012l-2.204-3.794L15.814,5.49c-1.659-0.779-3.517-0.949-5.306-0.465c-1.997,0.54-3.664,1.826-4.694,3.62
		c-1.029,1.794-1.299,3.881-0.759,5.878c0.539,1.996,1.824,3.663,3.618,4.693c1.19,0.684,2.508,1.032,3.844,1.032
		c0.679,0,1.363-0.09,2.036-0.272c3.01-0.814,5.229-3.337,5.652-6.428L18.225,13.276z"/>
</g>
<g id="menu-icon">
</g>
<g id="close-icon">
</g>
<g id="add-icon">
</g>
<g id="edit-icon">
</g>
<g id="file-icon">
</g>
<g id="down-icon">
</g>
<g id="up-icon">
</g>
<g id="puzzle-icon">
</g>
<g id="grid-icon_1_">
</g>
<g id="iteration-icon_1_">
</g>
<g id="sample-icon_1_">
</g>
<g id="energy-icon_1_">
</g>
<g id="cryo-icon_1_">
</g>
<g id="symmetry-icon_1_">
</g>
<g id="analysis-icon">
</g>
<g id="computation-icon_1_">
</g>
<g id="message-icon_1_">
</g>
<g id="download-icon_1_">
</g>
<g id="contact-icon">
</g>
<g id="help-iocn">
</g>
<g id="info-icon">
</g>
<g id="Page_2">
</g>
</svg>
