<?xml version="1.0" encoding="utf-8"?>
<!-- Generator: Adobe Illustrator 16.0.1, SVG Export Plug-In . SVG Version: 6.00 Build 0)  -->
<!DOCTYPE svg PUBLIC "-//W3C//DTD SVG 1.1//EN" "http://www.w3.org/Graphics/SVG/1.1/DTD/svg11.dtd">
<svg version="1.1" xmlns="http://www.w3.org/2000/svg" xmlns:xlink="http://www.w3.org/1999/xlink" x="0px" y="0px" width="25px"
	 height="25px" viewBox="0 0 25 25" enable-background="new 0 0 25 25" xml:space="preserve">
<g id="partner-icon">
</g>
<g id="grid-icon">
</g>
<g id="iteration-icon">
</g>
<g id="sample-icon">
	<g>
		<g>
			<circle fill="#3FCDD2" cx="16.476" cy="8.521" r="3.374"/>
		</g>
		<path fill="#3FCDD2" d="M12.658,9.808c-0.029-0.127-0.035-0.254-0.049-0.379l-5.646,5.646c-0.594,0.594-0.908,1.326-0.945,2.004
			l-0.01-0.014c-0.072,0.578-0.363,1.186-0.859,1.686l1.104,1.105c0.5-0.5,1.107-0.793,1.682-0.861l-0.008-0.012
			c0.672-0.037,1.402-0.355,1.994-0.947c0,0,0.002,0,0.002-0.002l5.645-5.643C14.186,12.233,12.986,11.239,12.658,9.808z
			 M8.996,16.177l-1.479-1.479l0.707-0.707l1.479,1.479L8.996,16.177z M11.09,14.085l-1.48-1.48l0.707-0.707l1.48,1.48L11.09,14.085
			z"/>
	</g>
</g>
<g id="energy-icon">
</g>
<g id="cryo-icon">
</g>
<g id="symmetry-icon">
</g>
<g id="analysis_x5F_icon">
</g>
<g id="computation-icon">
</g>
<g id="message-icon">
</g>
<g id="download-icon">
</g>
<g id="message-icon_1_">
</g>
<g id="help-icon">
</g>
</svg>
