<?xml version="1.0" encoding="utf-8"?>
<!-- Generator: Adobe Illustrator 16.0.1, SVG Export Plug-In . SVG Version: 6.00 Build 0)  -->
<!DOCTYPE svg PUBLIC "-//W3C//DTD SVG 1.1//EN" "http://www.w3.org/Graphics/SVG/1.1/DTD/svg11.dtd">
<svg version="1.1" xmlns="http://www.w3.org/2000/svg" xmlns:xlink="http://www.w3.org/1999/xlink" x="0px" y="0px" width="25px"
	 height="25px" viewBox="0 0 25 25" enable-background="new 0 0 25 25" xml:space="preserve">
<g id="partner-icon">
</g>
<g id="grid-icon">
</g>
<g id="iteration-icon">
</g>
<g id="sample-icon">
</g>
<g id="energy-icon">
</g>
<g id="cryo-icon">
</g>
<g id="symmetry-icon">
	<g>
		<g>
			<path fill="#3FCDD2" d="M17.987,8.537c-1.189,0.002-2.238,0.551-2.951,1.391l0.002-0.029h-0.002
				c-0.648,0.664-1.549,1.08-2.547,1.082c-0.986,0-1.881-0.398-2.523-1.045l0,0c-0.713-0.838-1.76-1.385-2.949-1.383
				c-2.045,0.004-3.705,1.594-3.857,3.6h18.684C21.704,10.133,20.04,8.535,17.987,8.537z"/>
			<path fill="#3FCDD2" d="M7.013,16.328c1.188,0,2.24-0.549,2.951-1.393v0.002c0.645-0.646,1.537-1.047,2.521-1.049
				c1.002-0.002,1.904,0.412,2.549,1.074v-0.027c0.715,0.836,1.764,1.379,2.947,1.379c2.047-0.006,3.703-1.594,3.857-3.602H3.157
				C3.294,14.736,4.958,16.332,7.013,16.328z"/>
		</g>
		<circle fill="#3FCDD2" cx="12.498" cy="5.451" r="3.124"/>
		<circle fill="#3FCDD2" cx="12.498" cy="19.549" r="3.124"/>
	</g>
</g>
<g id="analysis_x5F_icon">
</g>
<g id="computation-icon">
</g>
<g id="message-icon">
</g>
<g id="download-icon">
</g>
<g id="message-icon_1_">
</g>
<g id="help-icon">
</g>
</svg>
